SplineFontDB: 3.2
FontName: Spritulo-Regular
FullName: Spritulo Regular
FamilyName: Spritulo
Weight: Regular
Copyright: (C) 2022-2024 UkiyoMoji Fonts
Version: 1.5
StyleMapFamilyName: Spritulo
ItalicAngle: 0
UnderlinePosition: -153
UnderlineWidth: 64
Ascent: 800
Descent: 200
InvalidEm: 1
UFOAscent: 640
UFODescent: -160
LayerCount: 2
Layer: 0 0 "Back" 1
Layer: 1 0 "public.default" 0 "glyphs"
PreferredKerning: 1
StyleMap: 0x0040
FSType: 0
OS2Version: 0
OS2_WeightWidthSlopeOnly: 0
OS2_UseTypoMetrics: 0
CreationTime: 1741857159
ModificationTime: 1741857159
PfmFamily: 16
TTFWeight: 400
TTFWidth: 5
LineGap: 0
VLineGap: 0
Panose: 2 0 5 3 0 0 0 0 0 0
OS2TypoAscent: 640
OS2TypoAOffset: 0
OS2TypoDescent: -160
OS2TypoDOffset: 0
OS2TypoLinegap: 80
OS2WinAscent: 600
OS2WinAOffset: 0
OS2WinDescent: 200
OS2WinDOffset: 0
HheadAscent: 960
HheadAOffset: 0
HheadDescent: -256
HheadDOffset: 0
OS2SubXSize: 520
OS2SubYSize: 559
OS2SubXOff: 0
OS2SubYOff: 112
OS2SupXSize: 520
OS2SupYSize: 559
OS2SupXOff: 0
OS2SupYOff: 383
OS2StrikeYSize: 39
OS2StrikeYPos: 206
OS2CapHeight: 720
OS2XHeight: 435
OS2Vendor: 'UKYO'
OS2CodePages: 0000009f.00000000
Lookup: 4 0 1 "langeIJ" { "langeIJ subtable"  } ['liga' ('latn' <'NLD ' 'dflt' > ) ]
Lookup: 4 0 1 "ligaStandardPriority" { "ligaStandardPriority subtable"  } ['liga' ('shaw' <'dflt' > 'latn' <'dflt' > 'grek' <'dflt' > 'cyrl' <'dflt' > 'DFLT' <'dflt' > ) ]
Lookup: 4 0 1 "ligaStandard" { "ligaStandard subtable"  } ['liga' ('shaw' <'dflt' > 'latn' <'dflt' > 'grek' <'dflt' > 'cyrl' <'dflt' > 'DFLT' <'dflt' > ) ]
Lookup: 4 0 0 "dligStandardPriority" { "dligStandardPriority subtable"  } ['dlig' ('shaw' <'dflt' > 'latn' <'dflt' > 'grek' <'dflt' > 'cyrl' <'dflt' > 'DFLT' <'dflt' > ) ]
Lookup: 4 0 0 "dligStandard" { "dligStandard subtable"  } ['dlig' ('shaw' <'dflt' > 'latn' <'dflt' > 'grek' <'dflt' > 'cyrl' <'dflt' > 'DFLT' <'dflt' > ) ]

StartChar: .notdef
Encoding: 0 -1 0
GlifName: _notdef
Width: 1016
VWidth: 0
Flags: W
HStem: 54 72 411 67<544.5 555 514 558> 727 16
VStem: 466 87 512 70
LayerCount: 2
Fore
SplineSet
162 98 m 257
 167 92 195 53 325 -56 c 257
 338 -69 369 -91 374 -94 c 257
 393 -110 500 -187 510 -203 c 257
 513 -206 514 -216 517 -219 c 256
 520 -222 527 -227 530 -227 c 256
 531 -227 530 -227 531 -227 c 256
 544 -227 574 -204 586 -184 c 256
 608 -147 637 -112 659 -82 c 256
 681 -52 708 -10 738 19 c 256
 759 40 782 64 800 86 c 256
 830 123 879 178 898 194 c 257
 927 216 960 241 978 251 c 257
 988 256 997 270 997 289 c 256
 997 320 959 340 925 370 c 257
 911 381 845 455 827 467 c 257
 825 469 813 477 803 491 c 257
 798 496 794 504 789 509 c 257
 757 546 717 583 707 589 c 256
 699 594 645 655 629 685 c 256
 613 715 583 739 549 742 c 257
 544 743 538 743 534 743 c 256
 509 743 491 736 475 718 c 257
 472 713 455 689 434 667 c 256
 400 631 391 615 390 614 c 256
 384 608 320 550 310 534 c 257
 300 520 275 494 246 470 c 257
 205 429 l 258
 191 415 169 392 158 384 c 257
 119 351 45 272 45 258 c 256
 45 240 109 166 117 155 c 257
 128 141 156 108 162 98 c 257
158 202 m 257
 152 212 133 232 122 254 c 257
 156 296 176 300 210 342 c 256
 242 380 304 427 363 499 c 256
 368 505 419 557 435 570 c 257
 443 578 450 582 453 587 c 256
 456 592 527 671 538 674 c 257
 541 676 549 668 555 662 c 257
 641 566 667 536 675 530 c 257
 678 528 700 499 726 472 c 256
 750 446 784 414 803 395 c 256
 822 376 869 327 875 322 c 257
 881 316 893 294 896 291 c 257
 883 278 869 265 859 254 c 257
 848 243 830 231 822 218 c 256
 814 205 801 197 798 192 c 257
 788 179 765 152 755 141 c 257
 741 114 709 100 694 74 c 256
 677 45 682 65 658 22 c 256
 643 -6 610 -37 610 -42 c 256
 610 -45 593 -64 574 -86 c 256
 544 -120 546 -138 530 -138 c 257
 490 -111 406 -48 358 -6 c 257
 284 55 211 121 158 202 c 257
510 82 m 256
 510 59 521 56 547 54 c 257
 566 54 582 65 582 87 c 256
 582 109 562 129 542 129 c 256
 511 129 510 83 510 82 c 256
466 249 m 256
 466 240 471 232 485 214 c 257
 502 195 509 187 521 187 c 256
 531 187 571 197 571 215 c 256
 571 229 554 237 554 251 c 256
 554 293 651 363 651 409 c 256
 651 427 642 445 626 454 c 257
 616 460 606 464 603 466 c 257
 585 472 580 478 530 478 c 256
 498 478 488 472 459 454 c 257
 431 436 419 424 419 406 c 256
 419 400 420 394 422 387 c 256
 426 374 429 370 439 370 c 256
 457 370 475 377 490 386 c 257
 501 392 515 395 518 398 c 256
 524 404 539 411 550 411 c 256
 566 411 568 394 568 394 c 257
 568 389 564 384 555 373 c 257
 545 360 524 339 506 323 c 257
 484 301 474 285 469 267 c 256
 467 259 466 254 466 249 c 256
EndSplineSet
PickledDataWithLists: "(dp0
Vcom.fontlab.hintData
p1
(dp2
Vhhints
p3
(lp4
(dp5
Vposition
p6
I54
sVwidth
p7
I72
sa(dp8
g6
I411
sg7
I67
sa(dp9
g6
I727
sg7
I16
sasVvhints
p10
(lp11
(dp12
g6
I466
sg7
I87
sa(dp13
g6
I512
sg7
I70
sass."
EndChar

StartChar: A
Encoding: 1 65 1
GlifName: A_
Width: 518
VWidth: 0
Flags: W
HStem: -6 17 211 70 707 16
VStem: 439 58<6 47>
AnchorPoint: "bottom" 256 33 basechar 0
AnchorPoint: "top" 291 750 basechar 0
LayerCount: 2
Fore
SplineSet
145 294 m 257
 145 297 151 312 159 330 c 257
 189 405 191 416 199 435 c 257
 209 461 211 469 222 490 c 256
 232 509 248 541 278 613 c 257
 284 626 292 643 294 643 c 256
 296 643 320 617 327 565 c 257
 327 560 334 523 345 453 c 257
 364 352 364 336 369 291 c 257
 347 288 319 282 268 282 c 256
 212 282 184 286 178 288 c 257
 167 291 156 291 145 294 c 257
25 78 m 256
 25 60 45 34 62 34 c 256
 107 34 75 123 129 230 c 257
 158 213 183 222 212 213 c 256
 218 211 227 211 238 211 c 258
 274 211 l 258
 309 211 343 216 377 226 c 257
 385 194 397 132 410 94 c 257
 420 62 439 39 439 13 c 256
 439 -1 452 -6 462 -6 c 256
 480 -6 497 19 497 38 c 256
 497 56 487 88 482 106 c 257
 477 120 456 165 442 243 c 256
 405 442 404 557 394 582 c 257
 384 619 380 633 377 646 c 256
 372 666 336 710 316 718 c 256
 308 721 303 723 287 723 c 256
 271 723 260 722 257 720 c 257
 255 720 243 691 233 667 c 257
 187 563 155 472 154 470 c 256
 125 412 119 380 106 354 c 257
 69 287 41 204 31 128 c 257
 26 107 25 89 25 78 c 256
EndSplineSet
PickledDataWithLists: "(dp0
Vcom.fontlab.hintData
p1
(dp2
Vhhints
p3
(lp4
(dp5
Vposition
p6
I-6
sVwidth
p7
I17
sa(dp8
g6
I211
sg7
I70
sa(dp9
g6
I707
sg7
I16
sasVvhints
p10
(lp11
(dp12
g6
I439
sg7
I58
sass."
Substitution2: "Single Substitution lookup 17 subtable" ordfeminine
EndChar

StartChar: AE
Encoding: 2 198 2
GlifName: A_E_
Width: 939
VWidth: 0
Flags: W
HStem: -10 72<571 602.5> 21 74 277 67<265 303.5 258.5 312.5> 285 70 307 62 317 54 603 64<514 584> 610 61 619 77<336.5 365>
VStem: 426 68
AnchorPoint: "top" 451 727 basechar 0
AnchorPoint: "bottom" 482 26 basechar 0
LayerCount: 2
Fore
SplineSet
72 3 m 256
 93 3 97 21 102 50 c 257
 119 172 124 123 158 258 c 256
 160 266 166 280 168 285 c 257
 209 279 244 277 286 277 c 256
 339 277 368 285 429 285 c 257
 431 271 428 248 430 226 c 256
 436 146 443 117 446 91 c 256
 455 21 490 -10 560 -10 c 256
 645 -10 654 11 790 21 c 257
 832 26 859 33 859 70 c 256
 859 92 851 94 821 94 c 256
 764 94 717 62 592 62 c 256
 550 62 513 69 510 104 c 257
 502 155 499 197 491 251 c 256
 489 267 490 293 490 293 c 257
 490 293 517 296 525 298 c 257
 559 303 576 305 616 307 c 256
 745 312 750 330 750 350 c 256
 750 352 748 357 746 365 c 256
 744 370 733 370 714 370 c 256
 699 370 677 370 651 370 c 258
 547 370 l 258
 539 370 504 363 493 363 c 257
 493 365 492 368 492 373 c 256
 492 386 494 408 494 430 c 256
 494 438 493 446 493 454 c 256
 493 486 483 520 483 547 c 257
 474 600 l 257
 514 603 l 257
 544 605 619 610 715 610 c 256
 830 612 853 614 853 650 c 256
 853 664 824 670 715 670 c 256
 638 670 610 669 584 667 c 257
 553 667 412 670 394 688 c 256
 389 693 376 696 354 696 c 256
 336 696 322 693 314 690 c 257
 285 682 277 655 259 637 c 256
 219 594 210 570 184 522 c 257
 176 504 166 489 160 475 c 256
 147 446 137 432 134 405 c 257
 123 362 108 353 94 299 c 256
 76 233 70 192 56 149 c 256
 46 119 35 89 35 59 c 256
 35 25 42 3 72 3 c 256
186 347 m 257
 186 398 238 453 248 493 c 257
 256 514 312 605 326 616 c 257
 331 618 334 619 339 619 c 256
 344 619 376 616 382 616 c 256
 392 616 418 554 421 536 c 256
 427 499 426 361 427 354 c 257
 420 354 413 354 406 354 c 256
 405 354 355 352 347 349 c 256
 341 346 322 344 285 344 c 256
 232 344 194 345 186 347 c 257
EndSplineSet
PickledDataWithLists: "(dp0
Vcom.fontlab.hintData
p1
(dp2
Vhhints
p3
(lp4
(dp5
Vposition
p6
I-10
sVwidth
p7
I72
sa(dp8
g6
I21
sg7
I74
sa(dp9
g6
I277
sg7
I67
sa(dp10
g6
I285
sg7
I70
sa(dp11
g6
I307
sg7
I62
sa(dp12
g6
I317
sg7
I54
sa(dp13
g6
I603
sg7
I64
sa(dp14
g6
I610
sg7
I61
sa(dp15
g6
I619
sg7
I77
sasVvhints
p16
(lp17
(dp18
g6
I426
sg7
I68
sass."
EndChar

StartChar: Aogonek
Encoding: 9 260 9
GlifName: A_ogonek
Width: 670
VWidth: 0
Flags: W
HStem: -235 60<569.5 593 569 593.5> 209 66<229 237 229 255.5> 227 63 722 16
VStem: 443 73<-97.5 -79 -97.5 -70.5>
AnchorPoint: "top" 352 764 basechar 0
AnchorPoint: "bottom" 342 -213 basechar 0
LayerCount: 2
Fore
SplineSet
48 -22 m 256
 50 -25 57 -25 62 -27 c 256
 66 -29 70 -31 75 -31 c 257
 100 -26 120 -5 122 20 c 257
 128 54 141 139 146 160 c 256
 184 308 212 430 271 545 c 257
 277 555 284 563 290 572 c 257
 300 590 344 658 354 658 c 256
 362 658 384 584 390 564 c 256
 420 455 456 373 472 314 c 257
 474 304 478 294 481 284 c 257
 413 277 345 273 276 273 c 256
 262 273 249 275 237 275 c 258
 229 275 l 257
 175 271 174 231 174 230 c 256
 174 218 180 206 194 206 c 256
 202 206 212 209 221 209 c 256
 290 209 359 212 428 212 c 256
 448 212 475 213 501 215 c 257
 516 163 532 113 550 62 c 257
 527 52 499 28 482 10 c 256
 460 -13 443 -50 443 -91 c 256
 443 -137 458 -167 476 -193 c 257
 487 -207 506 -218 522 -228 c 257
 536 -235 562 -235 577 -235 c 256
 610 -235 651 -213 651 -185 c 256
 651 -169 635 -161 626 -161 c 256
 611 -161 604 -175 582 -175 c 256
 556 -175 531 -143 521 -122 c 256
 516 -113 516 -103 516 -92 c 256
 516 -66 530 -40 548 -22 c 256
 572 2 630 5 630 42 c 256
 630 48 628 55 624 64 c 257
 622 70 615 75 613 81 c 256
 606 100 583 172 569 222 c 257
 615 232 615 241 615 251 c 256
 615 258 614 290 588 290 c 256
 582 290 556 289 549 287 c 257
 538 313 457 587 435 642 c 257
 417 684 412 738 361 738 c 256
 307 738 288 694 265 660 c 256
 178 532 96 301 70 143 c 257
 63 106 57 67 50 28 c 257
 48 22 47 16 45 10 c 256
 43 5 40 2 40 -2 c 256
 40 -8 43 -17 48 -22 c 256
EndSplineSet
PickledDataWithLists: "(dp0
Vcom.fontlab.hintData
p1
(dp2
Vhhints
p3
(lp4
(dp5
Vposition
p6
I-235
sVwidth
p7
I60
sa(dp8
g6
I209
sg7
I66
sa(dp9
g6
I227
sg7
I63
sa(dp10
g6
I722
sg7
I16
sasVvhints
p11
(lp12
(dp13
g6
I443
sg7
I73
sass."
EndChar

StartChar: Aring
Encoding: 10 197 10
GlifName: A_ring
Width: 518
VWidth: 0
Flags: W
HStem: 0 17 208 64 787 69<210.5 240.5>
VStem: 34 69 101 72<698 755> 291 67<697 707 697 718.5>
AnchorPoint: "top" 237 890 basechar 0
AnchorPoint: "bottom" 243 34 basechar 0
LayerCount: 2
Fore
SplineSet
147 272 m 257
 158 307 166 371 174 414 c 257
 177 427 177 437 179 445 c 257
 208 523 224 566 242 566 c 256
 252 566 254 554 259 544 c 256
 269 522 281 488 294 445 c 257
 299 431 301 417 306 406 c 256
 311 395 311 368 314 360 c 256
 321 343 309 345 330 283 c 257
 298 283 l 257
 203 277 253 275 203 275 c 256
 182 275 157 274 147 272 c 257
173 707 m 256
 173 740 191 787 230 787 c 256
 251 787 291 728 291 709 c 256
 291 685 267 666 245 666 c 256
 223 666 173 689 173 707 c 256
34 37 m 256
 34 11 37 0 58 0 c 256
 87 0 102 10 102 48 c 256
 102 96 133 166 138 208 c 257
 143 210 171 210 192 210 c 256
 294 210 317 224 331 238 c 257
 336 211 350 167 363 130 c 256
 377 90 382 60 387 46 c 256
 392 33 398 3 408 3 c 256
 424 3 459 38 459 54 c 256
 459 75 440 121 434 134 c 256
 406 190 379 398 379 400 c 257
 377 419 370 437 360 475 c 257
 357 493 336 561 326 570 c 256
 324 572 311 606 306 614 c 257
 311 617 318 619 328 635 c 256
 344 661 358 688 358 706 c 256
 358 708 335 856 219 856 c 256
 113 856 101 758 101 752 c 256
 101 723 104 690 112 672 c 256
 117 662 139 644 155 626 c 256
 166 615 186 613 194 608 c 257
 181 597 168 581 163 570 c 256
 145 524 126 493 115 434 c 257
 107 399 88 304 88 294 c 256
 88 275 73 216 70 203 c 257
 54 113 43 66 38 61 c 256
 33 56 34 48 34 37 c 256
EndSplineSet
PickledDataWithLists: "(dp0
Vcom.fontlab.hintData
p1
(dp2
Vhhints
p3
(lp4
(dp5
Vposition
p6
I0
sVwidth
p7
I17
sa(dp8
g6
I208
sg7
I64
sa(dp9
g6
I787
sg7
I69
sasVvhints
p10
(lp11
(dp12
g6
I34
sg7
I69
sa(dp13
g6
I101
sg7
I72
sa(dp14
g6
I291
sg7
I67
sass."
EndChar

StartChar: B
Encoding: 12 66 12
GlifName: B_
Width: 488
VWidth: 0
Flags: W
HStem: -8 64<144 231> 306 72<131 147 130 173 130 181> 654 88<90 138 90 145.5>
VStem: 58 67<494 498.5> 346 61 390 66<151.5 178.5>
AnchorPoint: "top" 234 758 basechar 0
AnchorPoint: "bottom" 256 33 basechar 0
LayerCount: 2
Fore
SplineSet
147 61 m 257
 147 96 131 168 131 306 c 257
 173 306 l 258
 189 306 205 304 232 296 c 257
 285 275 296 271 331 242 c 256
 350 226 390 192 390 165 c 256
 390 138 326 99 304 86 c 257
 278 73 260 56 202 56 c 256
 183 56 152 58 147 61 c 257
130 378 m 257
 130 421 125 474 125 514 c 256
 125 575 128 628 129 654 c 257
 138 654 l 258
 153 654 166 652 186 651 c 256
 218 649 249 638 278 611 c 256
 309 582 346 537 346 499 c 256
 346 477 330 456 296 430 c 256
 262 404 216 390 202 384 c 256
 194 381 164 378 130 378 c 257
67 42 m 256
 67 -2 128 -8 160 -8 c 256
 219 -8 260 2 282 10 c 256
 304 18 325 31 339 37 c 256
 403 65 456 114 456 168 c 256
 456 232 405 278 355 309 c 257
 341 319 314 338 285 349 c 257
 298 357 320 371 341 390 c 256
 378 424 406 445 406 500 c 256
 406 550 387 579 349 630 c 256
 331 653 319 670 310 677 c 256
 251 724 133 730 131 731 c 256
 118 734 113 742 102 742 c 256
 78 742 51 728 51 691 c 256
 51 662 59 667 59 560 c 256
 59 550 58 504 58 493 c 256
 58 349 59 204 81 61 c 257
 71 55 67 47 67 42 c 256
EndSplineSet
PickledDataWithLists: "(dp0
Vcom.fontlab.hintData
p1
(dp2
Vhhints
p3
(lp4
(dp5
Vposition
p6
I-8
sVwidth
p7
I64
sa(dp8
g6
I306
sg7
I72
sa(dp9
g6
I654
sg7
I88
sasVvhints
p10
(lp11
(dp12
g6
I58
sg7
I67
sa(dp13
g6
I346
sg7
I61
sa(dp14
g6
I390
sg7
I66
sass."
EndChar

StartChar: C
Encoding: 13 67 13
GlifName: C_
Width: 548
VWidth: 0
Flags: W
HStem: -6 78 633 74<276 314>
VStem: 53 70 419 69<560 564.5>
AnchorPoint: "bottom" 294 33 basechar 0
AnchorPoint: "top" 314 743 basechar 0
LayerCount: 2
Fore
SplineSet
136 54 m 256
 187 8 211 -6 280 -6 c 256
 323 -6 355 -2 373 8 c 256
 424 35 456 54 493 94 c 256
 509 112 512 118 512 126 c 256
 512 134 504 146 491 146 c 256
 478 146 465 145 455 137 c 257
 442 128 424 109 374 86 c 256
 352 76 325 71 294 71 c 256
 231 71 207 90 181 118 c 256
 124 178 122 247 122 324 c 256
 122 374 131 400 143 450 c 256
 155 503 158 491 184 543 c 257
 206 593 247 633 305 633 c 256
 323 633 351 628 359 623 c 257
 367 620 377 616 390 602 c 257
 409 580 419 567 419 562 c 256
 419 558 374 528 374 520 c 256
 374 515 382 514 400 514 c 256
 488 514 488 546 488 571 c 256
 488 587 486 600 483 608 c 256
 480 616 469 626 453 642 c 256
 414 681 374 707 317 707 c 256
 224 707 177 657 130 581 c 257
 84 506 53 415 53 326 c 256
 53 229 58 123 136 54 c 256
EndSplineSet
PickledDataWithLists: "(dp0
Vcom.fontlab.hintData
p1
(dp2
Vhhints
p3
(lp4
(dp5
Vposition
p6
I-6
sVwidth
p7
I78
sa(dp8
g6
I633
sg7
I74
sasVvhints
p9
(lp10
(dp11
g6
I53
sg7
I70
sa(dp12
g6
I419
sg7
I69
sass."
EndChar

StartChar: Ccedilla
Encoding: 16 199 16
GlifName: C_cedilla
Width: 548
VWidth: 0
Flags: W
HStem: -259 64<257 314 247.5 320.5> -6 70 654 75
VStem: 33 71<308 337> 371 69<-134 -126> 410 58
AnchorPoint: "top" 291 784 basechar 0
AnchorPoint: "bottom" 282 -229 basechar 0
LayerCount: 2
Fore
SplineSet
45 252 m 256
 55 208 126 88 148 65 c 257
 188 27 244 -6 286 -6 c 256
 296 -6 310 -5 312 -5 c 257
 312 -7 311 -10 311 -12 c 256
 311 -22 313 -31 315 -34 c 257
 320 -48 327 -60 340 -72 c 256
 355 -87 371 -119 371 -133 c 256
 371 -135 360 -195 268 -195 c 256
 227 -195 226 -183 210 -183 c 256
 198 -183 185 -200 185 -214 c 256
 185 -234 234 -259 280 -259 c 256
 361 -259 440 -199 440 -145 c 256
 440 -93 432 -92 408 -50 c 256
 398 -33 384 -23 379 7 c 257
 386 9 406 29 414 33 c 256
 438 47 446 51 470 71 c 257
 492 88 540 124 540 138 c 256
 540 151 534 153 514 153 c 256
 487 153 467 141 447 122 c 257
 435 112 425 105 410 97 c 256
 402 92 396 92 386 90 c 257
 356 79 336 63 310 63 c 256
 283 63 225 92 215 102 c 256
 197 120 184 121 150 182 c 256
 123 233 104 281 104 335 c 256
 104 377 135 509 162 559 c 256
 176 585 201 618 234 642 c 257
 244 648 259 654 285 654 c 256
 325 654 410 637 410 605 c 256
 410 594 420 582 432 582 c 256
 458 582 467 606 467 624 c 256
 467 639 462 655 452 669 c 257
 430 705 335 730 273 730 c 256
 253 730 236 728 222 722 c 256
 176 700 135 648 94 586 c 257
 64 535 33 368 33 306 c 256
 33 273 40 272 45 252 c 256
EndSplineSet
PickledDataWithLists: "(dp0
Vcom.fontlab.hintData
p1
(dp2
Vhhints
p3
(lp4
(dp5
Vposition
p6
I-259
sVwidth
p7
I64
sa(dp8
g6
I-6
sg7
I70
sa(dp9
g6
I654
sg7
I75
sasVvhints
p10
(lp11
(dp12
g6
I33
sg7
I71
sa(dp13
g6
I371
sg7
I69
sa(dp14
g6
I410
sg7
I58
sass."
EndChar

StartChar: D
Encoding: 18 68 18
GlifName: D_
Width: 555
VWidth: 0
Flags: W
HStem: -21 17 620 75<157 177.5 153.5 193> 710 16
VStem: 58 67<294 338 338 341> 446 66<416.5 463>
AnchorPoint: "top" 261 740 basechar 0
AnchorPoint: "bottom" 264 73 basechar 0
LayerCount: 2
Fore
SplineSet
94 94 m 256
 102 81 108 72 114 72 c 256
 137 72 152 93 154 115 c 257
 154 128 141 133 131 162 c 257
 129 165 125 223 125 280 c 256
 125 281 125 320 125 338 c 256
 125 404 122 433 122 466 c 256
 122 512 131 614 131 616 c 257
 142 619 152 620 162 620 c 256
 224 620 309 611 365 581 c 257
 405 563 413 552 435 512 c 257
 442 495 446 476 446 450 c 256
 446 383 427 333 406 299 c 256
 372 246 364 232 326 192 c 257
 286 146 264 128 198 80 c 256
 155 50 164 53 134 26 c 256
 128 20 125 9 125 3 c 256
 125 -15 138 -21 154 -21 c 256
 170 -21 197 -7 235 19 c 256
 254 32 298 72 360 131 c 256
 381 152 415 188 445 238 c 256
 480 295 512 349 512 448 c 256
 512 502 496 565 467 595 c 256
 420 645 381 666 314 677 c 257
 288 680 275 685 269 685 c 257
 232 691 197 695 158 695 c 256
 149 695 141 695 131 694 c 257
 123 708 102 726 94 726 c 256
 91 726 87 723 77 718 c 256
 67 712 50 691 50 678 c 256
 50 676 50 676 51 674 c 256
 59 648 55 573 58 482 c 256
 59 456 59 440 59 417 c 256
 59 399 60 377 58 341 c 257
 58 247 59 189 64 165 c 257
 72 131 76 121 94 94 c 256
EndSplineSet
PickledDataWithLists: "(dp0
Vcom.fontlab.hintData
p1
(dp2
Vhhints
p3
(lp4
(dp5
Vposition
p6
I-21
sVwidth
p7
I17
sa(dp8
g6
I620
sg7
I75
sa(dp9
g6
I710
sg7
I16
sasVvhints
p10
(lp11
(dp12
g6
I58
sg7
I67
sa(dp13
g6
I446
sg7
I66
sass."
EndChar

StartChar: Dcroat
Encoding: 20 272 20
GlifName: D_croat
Width: 617
VWidth: 0
Flags: W
HStem: 10 78<238 262 238 278> 337 72 348 68 370 47 637 74<172 231>
VStem: 114 68 502 70
AnchorPoint: "top" 317 754 basechar 0
AnchorPoint: "bottom" 298 42 basechar 0
LayerCount: 2
Fore
SplineSet
214 237 m 256
 211 260 200 331 198 348 c 257
 224 350 249 350 274 352 c 256
 333 357 363 360 374 363 c 256
 379 364 390 368 398 370 c 257
 413 376 422 380 422 390 c 256
 422 396 421 403 416 409 c 256
 412 415 382 418 325 418 c 256
 301 418 280 416 254 416 c 256
 232 416 208 415 190 414 c 257
 187 432 183 469 183 528 c 256
 183 564 182 589 182 598 c 256
 182 606 183 625 185 630 c 257
 195 636 219 637 231 637 c 257
 248 632 267 628 290 618 c 256
 341 596 416 545 454 506 c 256
 487 472 502 437 502 366 c 256
 502 262 434 172 346 122 c 257
 304 95 286 88 238 88 c 257
 227 138 220 187 214 237 c 256
82 337 m 256
 96 337 114 341 133 342 c 257
 135 324 138 297 142 264 c 256
 146 235 152 202 157 164 c 257
 179 18 180 10 235 10 c 256
 321 10 443 91 494 159 c 256
 534 211 571 305 571 398 c 256
 571 440 550 506 520 539 c 256
 458 606 381 661 275 699 c 256
 244 710 213 711 186 711 c 256
 158 711 141 710 135 708 c 256
 113 702 82 674 82 650 c 256
 82 636 85 627 97 614 c 257
 102 610 110 604 114 602 c 257
 115 600 115 492 125 409 c 257
 96 407 71 407 53 395 c 257
 40 385 32 377 32 367 c 256
 32 341 48 337 82 337 c 256
EndSplineSet
PickledDataWithLists: "(dp0
Vcom.fontlab.hintData
p1
(dp2
Vhhints
p3
(lp4
(dp5
Vposition
p6
I10
sVwidth
p7
I78
sa(dp8
g6
I337
sg7
I72
sa(dp9
g6
I348
sg7
I68
sa(dp10
g6
I370
sg7
I47
sa(dp11
g6
I637
sg7
I74
sasVvhints
p12
(lp13
(dp14
g6
I114
sg7
I68
sa(dp15
g6
I502
sg7
I70
sass."
EndChar

StartChar: E
Encoding: 21 69 21
GlifName: E_
Width: 537
VWidth: 0
Flags: W
HStem: -2 66 34 64 326 63<243 278 238.5 296> 350 54 634 71<62 66 66 66> 637 74 711 16
VStem: 66 75 77 65<174.5 189>
AnchorPoint: "bottom" 288 23 basechar 0
AnchorPoint: "top" 256 746 basechar 0
LayerCount: 2
Fore
SplineSet
81 90 m 256
 91 39 134 -2 176 -2 c 256
 247 -2 329 11 399 28 c 257
 410 31 426 32 439 34 c 257
 461 39 503 60 503 88 c 256
 503 98 498 98 488 98 c 256
 425 98 358 89 298 70 c 256
 288 67 264 63 230 63 c 258
 215 63 l 258
 185 63 171 64 160 82 c 256
 143 109 142 149 142 200 c 256
 142 245 143 295 143 330 c 257
 177 327 222 326 264 326 c 256
 328 326 387 346 425 350 c 257
 447 355 455 364 455 374 c 256
 455 388 443 404 435 404 c 257
 298 389 299 389 257 389 c 256
 220 389 189 392 143 396 c 257
 143 423 142 454 142 483 c 258
 142 568 l 258
 142 593 139 614 137 637 c 257
 186 639 208 640 238 642 c 256
 423 654 471 657 471 706 c 256
 471 717 468 719 460 721 c 256
 441 726 425 727 414 727 c 256
 406 727 400 723 393 721 c 256
 365 713 288 711 179 711 c 256
 103 711 88 710 66 705 c 257
 66 705 l 257
 60 702 56 697 46 692 c 257
 35 688 25 678 25 670 c 256
 25 633 53 634 62 634 c 258
 66 634 l 257
 73 575 79 416 79 354 c 256
 79 283 77 214 77 164 c 256
 77 131 78 105 81 90 c 256
EndSplineSet
PickledDataWithLists: "(dp0
Vcom.fontlab.hintData
p1
(dp2
Vhhints
p3
(lp4
(dp5
Vposition
p6
I-2
sVwidth
p7
I66
sa(dp8
g6
I34
sg7
I64
sa(dp9
g6
I326
sg7
I63
sa(dp10
g6
I350
sg7
I54
sa(dp11
g6
I634
sg7
I71
sa(dp12
g6
I637
sg7
I74
sa(dp13
g6
I711
sg7
I16
sasVvhints
p14
(lp15
(dp16
g6
I66
sg7
I75
sa(dp17
g6
I77
sg7
I65
sass."
EndChar

StartChar: Eogonek
Encoding: 29 280 29
GlifName: E_ogonek
Width: 606
VWidth: 0
Flags: W
HStem: -242 70 311 74 416 8 629 80<237.5 268.5 200 339>
VStem: 100 76<528 537.5> 471 67<-129 -54.5>
AnchorPoint: "top" 306 756 basechar 0
AnchorPoint: "bottom" 314 33 basechar 0
LayerCount: 2
Fore
SplineSet
97 53 m 256
 97 -13 140 -26 174 -26 c 257
 257 -20 438 35 495 41 c 257
 495 27 483 15 482 0 c 256
 480 -26 472 -51 472 -79 c 257
 471 -87 471 -95 471 -102 c 256
 471 -156 488 -203 519 -225 c 256
 536 -236 560 -242 585 -242 c 256
 618 -242 690 -224 690 -195 c 256
 690 -185 685 -170 679 -164 c 257
 674 -160 668 -160 662 -160 c 256
 646 -160 630 -173 594 -173 c 256
 576 -173 561 -169 553 -157 c 257
 540 -141 538 -97 538 -75 c 256
 538 -34 548 3 558 38 c 257
 560 51 570 62 570 76 c 256
 570 88 563 102 554 110 c 257
 543 119 527 117 513 118 c 257
 509 118 l 258
 442 118 278 61 176 51 c 257
 174 64 174 100 174 125 c 256
 174 179 171 230 171 282 c 258
 171 318 l 257
 231 323 341 343 343 343 c 257
 361 346 381 349 399 354 c 257
 420 357 480 376 480 398 c 256
 480 407 465 416 455 416 c 257
 445 418 422 424 408 424 c 256
 372 424 339 416 306 414 c 257
 292 412 278 412 264 410 c 257
 233 408 203 403 173 398 c 257
 173 431 l 258
 173 472 176 507 176 549 c 256
 176 573 174 599 174 621 c 256
 174 626 174 630 174 635 c 257
 193 632 223 629 252 629 c 256
 426 629 509 651 509 679 c 256
 509 705 473 714 454 714 c 256
 440 714 425 711 410 711 c 258
 387 711 l 258
 340 711 292 709 245 709 c 256
 155 709 159 718 141 718 c 258
 131 718 l 258
 109 718 98 707 98 642 c 256
 98 603 100 558 100 517 c 256
 100 503 100 396 98 390 c 257
 82 388 66 387 50 385 c 257
 33 382 14 368 14 344 c 256
 14 326 24 311 65 311 c 256
 75 311 84 312 94 313 c 257
 96 313 96 313 98 314 c 257
 99 277 102 240 102 196 c 256
 102 140 97 102 97 53 c 256
EndSplineSet
PickledDataWithLists: "(dp0
Vcom.fontlab.hintData
p1
(dp2
Vhhints
p3
(lp4
(dp5
Vposition
p6
I-242
sVwidth
p7
I70
sa(dp8
g6
I311
sg7
I74
sa(dp9
g6
I416
sg7
I8
sa(dp10
g6
I629
sg7
I80
sasVvhints
p11
(lp12
(dp13
g6
I100
sg7
I76
sa(dp14
g6
I471
sg7
I67
sass."
EndChar

StartChar: Eth
Encoding: 30 208 30
GlifName: E_th
Width: 617
VWidth: 0
Flags: W
HStem: 10 78<230 254 230 270> 337 72 348 68 370 47 637 74<164 223>
VStem: 106 68 494 70
AnchorPoint: "top" 291 750 basechar 0
AnchorPoint: "bottom" 286 54 basechar 0
LayerCount: 2
Fore
SplineSet
206 237 m 256
 203 260 192 331 190 348 c 257
 216 350 241 350 266 352 c 256
 325 357 355 360 366 363 c 256
 371 364 382 368 390 370 c 257
 405 376 414 380 414 390 c 256
 414 396 413 403 408 409 c 256
 404 415 374 418 317 418 c 256
 293 418 272 416 246 416 c 256
 224 416 200 415 182 414 c 257
 179 432 175 469 175 528 c 256
 175 564 174 589 174 598 c 256
 174 606 175 625 177 630 c 257
 187 636 211 637 223 637 c 257
 240 632 259 628 282 618 c 256
 333 596 408 545 446 506 c 256
 479 472 494 437 494 366 c 256
 494 262 426 172 338 122 c 257
 296 95 278 88 230 88 c 257
 219 138 212 187 206 237 c 256
74 337 m 256
 88 337 106 341 125 342 c 257
 127 324 130 297 134 264 c 256
 138 235 144 202 149 164 c 257
 171 18 172 10 227 10 c 256
 313 10 435 91 486 159 c 256
 526 211 563 305 563 398 c 256
 563 440 542 506 512 539 c 256
 450 606 373 661 267 699 c 256
 236 710 205 711 178 711 c 256
 150 711 133 710 127 708 c 256
 105 702 74 674 74 650 c 256
 74 636 77 627 89 614 c 257
 94 610 102 604 106 602 c 257
 107 600 107 492 117 409 c 257
 88 407 63 407 45 395 c 257
 32 385 24 377 24 367 c 256
 24 341 40 337 74 337 c 256
EndSplineSet
PickledDataWithLists: "(dp0
Vcom.fontlab.hintData
p1
(dp2
Vhhints
p3
(lp4
(dp5
Vposition
p6
I10
sVwidth
p7
I78
sa(dp8
g6
I337
sg7
I72
sa(dp9
g6
I348
sg7
I68
sa(dp10
g6
I370
sg7
I47
sa(dp11
g6
I637
sg7
I74
sasVvhints
p12
(lp13
(dp14
g6
I106
sg7
I68
sa(dp15
g6
I494
sg7
I70
sass."
EndChar

StartChar: F
Encoding: 31 70 31
GlifName: F_
Width: 534
VWidth: 0
Flags: W
HStem: -10 17 318 75 333 53 637 69<402 444.5> 732 16
VStem: 77 69<364 402 402 415>
AnchorPoint: "top" 277 750 basechar 0
AnchorPoint: "bottom" 128 25 basechar 0
LayerCount: 2
Fore
SplineSet
102 13 m 257
 108 -3 115 -10 123 -10 c 256
 139 -10 159 8 159 31 c 256
 159 37 158 42 158 51 c 256
 158 110 146 138 146 176 c 258
 146 301 l 258
 146 311 146 320 146 330 c 256
 146 355 146 378 146 402 c 256
 146 428 144 453 142 477 c 256
 137 522 138 604 133 623 c 257
 311 636 401 637 403 637 c 256
 427 637 440 630 461 630 c 256
 477 630 493 651 493 659 c 256
 493 667 486 678 475 694 c 257
 467 702 455 706 434 706 c 256
 416 706 400 706 386 704 c 257
 354 704 127 691 125 691 c 257
 122 728 107 748 89 748 c 256
 75 748 54 732 54 718 c 256
 54 716 55 713 55 711 c 257
 60 700 59 681 62 654 c 256
 77 496 77 495 77 399 c 256
 77 329 76 268 76 222 c 256
 76 183 77 153 80 138 c 257
 88 74 89 56 102 13 c 257
270 318 m 256
 297 318 331 320 357 320 c 256
 381 320 398 325 424 333 c 256
 450 341 464 344 466 349 c 256
 468 354 469 358 469 363 c 256
 469 374 462 384 448 386 c 256
 424 389 290 394 189 394 c 256
 178 394 170 381 170 370 c 256
 170 328 204 318 270 318 c 256
EndSplineSet
PickledDataWithLists: "(dp0
Vcom.fontlab.hintData
p1
(dp2
Vhhints
p3
(lp4
(dp5
Vposition
p6
I-10
sVwidth
p7
I17
sa(dp8
g6
I318
sg7
I75
sa(dp9
g6
I333
sg7
I53
sa(dp10
g6
I637
sg7
I69
sa(dp11
g6
I732
sg7
I16
sasVvhints
p12
(lp13
(dp14
g6
I77
sg7
I69
sass."
EndChar

StartChar: G
Encoding: 32 71 32
GlifName: G_
Width: 560
VWidth: 0
Flags: W
HStem: -171 62<355 368> 13 80<200 243> 645 70<317.5 351 313 352>
VStem: 46 64<208.5 284 202.5 288.5> 384 61<562.5 597.5>
AnchorPoint: "bottom" 354 -145 basechar 0
AnchorPoint: "top" 306 748 basechar 0
LayerCount: 2
Fore
SplineSet
51 155 m 256
 62 85 131 13 208 13 c 256
 278 13 382 84 430 138 c 257
 427 112 424 60 424 50 c 257
 419 -19 416 -77 414 -80 c 257
 409 -88 387 -109 368 -109 c 256
 342 -109 317 -61 286 -61 c 256
 272 -61 267 -69 267 -90 c 256
 267 -106 272 -122 280 -130 c 257
 309 -157 337 -171 363 -171 c 256
 373 -171 385 -170 395 -165 c 257
 446 -149 477 -116 485 -54 c 257
 487 -35 490 83 498 125 c 257
 501 144 513 240 518 258 c 256
 523 276 525 290 525 301 c 256
 525 335 515 352 493 352 c 256
 479 352 467 332 464 318 c 256
 451 258 417 211 371 171 c 256
 326 131 287 93 213 93 c 256
 187 93 170 99 157 109 c 256
 133 128 110 181 110 224 c 256
 110 344 136 387 147 429 c 257
 160 469 185 504 203 538 c 256
 219 568 296 645 339 645 c 256
 365 645 384 611 384 584 c 256
 384 541 344 525 344 506 c 256
 344 501 348 499 358 499 c 256
 401 499 445 541 445 584 c 256
 445 618 442 640 434 653 c 257
 412 696 376 715 326 715 c 256
 300 715 280 707 266 693 c 256
 250 677 233 665 195 627 c 256
 147 581 97 488 83 446 c 257
 62 393 46 355 46 222 c 256
 46 195 48 173 51 155 c 256
EndSplineSet
PickledDataWithLists: "(dp0
Vcom.fontlab.hintData
p1
(dp2
Vhhints
p3
(lp4
(dp5
Vposition
p6
I-171
sVwidth
p7
I62
sa(dp8
g6
I13
sg7
I80
sa(dp9
g6
I645
sg7
I70
sasVvhints
p10
(lp11
(dp12
g6
I46
sg7
I64
sa(dp13
g6
I384
sg7
I61
sass."
EndChar

StartChar: Gcommaaccent
Encoding: 34 290 34
GlifName: G_commaaccent
Width: 582
VWidth: 0
Flags: W
HStem: -18 76<186 198 196 198> 666 70<281 333.5>
VStem: 40 70<219.5 231> 290 71 470 65
AnchorPoint: "top" 302 775 basechar 0
AnchorPoint: "bottom" 245 -303 basechar 0
LayerCount: 2
Fore
SplineSet
212 -311 m 256
 212 -336 225 -336 234 -336 c 256
 269 -336 362 -227 362 -131 c 256
 362 -91 341 -38 314 -38 c 256
 288 -38 279 -65 279 -76 c 256
 279 -87 290 -119 290 -139 c 256
 290 -188 212 -277 212 -311 c 256
58 93 m 257
 79 42 116 -18 186 -18 c 256
 190 -18 194 -18 198 -18 c 257
 280 -12 324 38 365 88 c 256
 405 136 434 192 470 242 c 257
 470 225 470 202 470 178 c 256
 470 25 490 16 504 10 c 257
 506 8 510 8 512 8 c 256
 523 8 536 17 542 26 c 257
 547 31 544 39 544 45 c 256
 544 107 534 167 534 229 c 256
 534 247 537 262 537 280 c 256
 537 291 536 291 536 305 c 256
 536 314 536 323 536 332 c 256
 536 402 500 406 499 406 c 258
 498 406 l 257
 482 404 476 383 466 370 c 256
 443 340 426 303 402 269 c 256
 265 71 220 58 192 58 c 256
 174 58 156 71 144 85 c 256
 114 117 110 202 110 237 c 256
 110 248 111 261 112 275 c 257
 112 367 139 450 168 517 c 257
 195 575 237 666 312 666 c 256
 355 666 395 636 416 610 c 257
 429 596 440 573 458 573 c 256
 465 573 485 581 485 602 c 256
 485 617 475 634 467 648 c 256
 459 664 444 677 430 688 c 256
 400 713 364 736 314 736 c 256
 248 736 199 699 166 661 c 256
 150 643 139 619 126 598 c 257
 86 526 64 433 46 338 c 257
 40 300 40 252 40 210 c 256
 40 171 46 125 58 93 c 257
EndSplineSet
PickledDataWithLists: "(dp0
Vcom.fontlab.hintData
p1
(dp2
Vhhints
p3
(lp4
(dp5
Vposition
p6
I-18
sVwidth
p7
I76
sa(dp8
g6
I666
sg7
I70
sasVvhints
p9
(lp10
(dp11
g6
I40
sg7
I70
sa(dp12
g6
I290
sg7
I71
sa(dp13
g6
I470
sg7
I65
sass."
EndChar

StartChar: Germandbls
Encoding: 36 7838 36
GlifName: G_ermandbls
Width: 672
VWidth: 0
Flags: W
HStem: -18 17 -9 73<402 441.5> 365 75 670 79<365 367.5>
VStem: 48 66<303 323> 286 61<34 102> 572 68<190.5 214.5>
LayerCount: 2
Fore
SplineSet
67 -10 m 257
 70 -15 77 -16 88 -18 c 257
 114 -18 128 -13 128 11 c 256
 128 29 123 108 123 118 c 257
 121 153 114 292 114 314 c 256
 114 352 124 442 130 466 c 256
 149 543 193 584 225 613 c 257
 255 638 322 670 364 670 c 256
 371 670 376 669 382 667 c 257
 379 659 379 662 376 638 c 257
 374 625 344 518 333 496 c 256
 323 475 312 445 312 411 c 256
 312 369 382 366 408 365 c 257
 482 365 490 349 530 309 c 256
 562 277 572 233 572 196 c 256
 572 185 563 152 558 136 c 257
 540 91 496 64 429 64 c 256
 375 64 347 82 347 98 c 256
 347 106 341 109 333 109 c 256
 312 109 286 88 286 66 c 256
 286 2 376 -9 423 -9 c 256
 460 -9 507 0 526 8 c 256
 560 22 600 62 616 94 c 257
 626 112 640 150 640 200 c 256
 640 290 616 320 580 363 c 256
 538 413 469 434 393 440 c 257
 411 501 439 587 450 641 c 256
 453 656 462 672 462 690 c 256
 462 740 430 749 384 749 c 256
 346 749 303 742 259 715 c 256
 233 699 204 690 178 666 c 257
 101 589 86 562 66 480 c 256
 50 418 48 406 48 240 c 256
 48 217 54 9 67 -10 c 257
EndSplineSet
PickledDataWithLists: "(dp0
Vcom.fontlab.hintData
p1
(dp2
Vhhints
p3
(lp4
(dp5
Vposition
p6
I-18
sVwidth
p7
I17
sa(dp8
g6
I-9
sg7
I73
sa(dp9
g6
I365
sg7
I75
sa(dp10
g6
I670
sg7
I79
sasVvhints
p11
(lp12
(dp13
g6
I48
sg7
I66
sa(dp14
g6
I286
sg7
I61
sa(dp15
g6
I572
sg7
I68
sass."
EndChar

StartChar: H
Encoding: 37 72 37
GlifName: H_
Width: 592
VWidth: 0
Flags: W
HStem: -18 17 272 67<254 328> 722 16
VStem: 61 66<415.5 438 401 477 401 654> 61 59 445 75 451 66 462 65<249.5 293>
AnchorPoint: "bottom" 312 25 basechar 0
AnchorPoint: "top" 288 737 basechar 0
LayerCount: 2
Fore
SplineSet
99 -3 m 257
 105 -9 123 -18 136 -18 c 256
 152 -18 155 0 155 26 c 256
 155 55 154 56 146 64 c 256
 140 70 135 78 133 96 c 257
 130 141 130 242 130 280 c 257
 168 277 207 272 301 272 c 256
 355 272 407 278 460 286 c 257
 461 277 462 266 462 250 c 256
 462 249 460 189 460 179 c 256
 460 127 463 57 475 27 c 257
 483 9 494 -11 518 -27 c 257
 524 -30 528 -34 534 -34 c 256
 543 -34 563 -26 563 -10 c 256
 563 -2 557 12 546 22 c 256
 535 32 528 115 528 160 c 258
 528 200 l 258
 528 222 526 243 526 264 c 256
 526 278 527 286 527 292 c 256
 527 294 527 297 526 299 c 257
 550 310 557 317 557 336 c 256
 557 355 535 360 522 362 c 257
 520 370 518 388 518 411 c 256
 518 412 520 465 520 506 c 256
 520 576 516 634 510 683 c 257
 508 708 503 738 472 738 c 256
 448 738 445 721 445 712 c 256
 445 711 451 658 451 632 c 256
 451 622 451 609 451 586 c 258
 451 432 l 258
 451 406 453 382 455 352 c 257
 394 346 370 339 306 339 c 256
 152 339 127 350 126 352 c 257
 126 371 127 391 127 411 c 256
 127 465 126 520 126 558 c 256
 126 585 128 622 128 622 c 257
 128 646 125 663 120 675 c 256
 112 694 112 694 93 694 c 256
 61 694 61 676 61 654 c 258
 61 477 l 258
 61 354 60 285 62 264 c 257
 64 221 63 160 66 123 c 256
 69 77 80 23 99 -3 c 257
EndSplineSet
PickledDataWithLists: "(dp0
Vcom.fontlab.hintData
p1
(dp2
Vhhints
p3
(lp4
(dp5
Vposition
p6
I-18
sVwidth
p7
I17
sa(dp8
g6
I272
sg7
I67
sa(dp9
g6
I722
sg7
I16
sasVvhints
p10
(lp11
(dp12
g6
I61
sg7
I66
sa(dp13
g6
I61
sg7
I59
sa(dp14
g6
I445
sg7
I75
sa(dp15
g6
I451
sg7
I66
sa(dp16
g6
I462
sg7
I65
sass."
EndChar

StartChar: Hbar
Encoding: 38 294 38
GlifName: H_bar
Width: 617
VWidth: 0
Flags: W
HStem: -19 17 436 71<150 150> 462 74<498 575.5> 462 67 710 16
VStem: 73 79 83 69<116 269> 410 73 473 73
AnchorPoint: "top" 288 737 basechar 0
AnchorPoint: "bottom" 312 25 basechar 0
LayerCount: 2
Fore
SplineSet
105 10 m 256
 113 -4 124 -19 139 -19 c 256
 153 -19 164 6 164 28 c 256
 164 47 152 73 152 159 c 256
 152 182 154 207 154 232 c 258
 154 246 l 257
 157 246 160 246 162 247 c 257
 236 261 289 258 373 282 c 256
 383 285 392 290 403 293 c 256
 417 298 436 299 450 304 c 257
 456 247 460 187 466 130 c 256
 468 113 467 97 473 82 c 256
 481 63 495 37 517 37 c 256
 545 37 546 64 546 77 c 256
 546 94 542 112 540 124 c 256
 516 281 502 462 502 465 c 257
 516 465 533 464 546 463 c 257
 552 463 560 462 566 462 c 256
 585 462 599 484 599 503 c 256
 599 534 572 536 522 536 c 258
 498 536 l 257
 495 560 495 579 493 607 c 257
 486 648 473 720 426 720 c 256
 412 720 410 694 410 676 c 256
 410 671 410 667 410 664 c 256
 410 651 417 625 427 531 c 257
 282 524 211 507 150 507 c 257
 151 535 153 566 153 594 c 256
 153 604 153 612 152 622 c 256
 150 650 155 682 140 705 c 257
 126 724 101 726 79 726 c 257
 74 721 73 714 73 707 c 256
 73 696 76 684 76 674 c 256
 76 636 82 600 82 563 c 258
 82 533 l 258
 82 524 84 515 85 506 c 257
 56 506 l 258
 51 506 46 506 41 506 c 256
 16 506 16 487 16 485 c 256
 16 477 26 444 84 435 c 257
 84 372 l 258
 84 330 83 290 83 248 c 256
 83 212 84 175 86 139 c 256
 89 97 84 48 105 10 c 256
148 319 m 257
 147 322 147 326 147 330 c 256
 147 367 149 400 150 436 c 257
 180 437 206 441 242 445 c 256
 283 450 333 454 433 462 c 257
 433 460 443 373 443 372 c 257
 428 370 411 365 397 362 c 256
 355 351 318 341 272 334 c 256
 233 328 199 326 164 322 c 256
 159 321 154 320 148 319 c 257
EndSplineSet
PickledDataWithLists: "(dp0
Vcom.fontlab.hintData
p1
(dp2
Vhhints
p3
(lp4
(dp5
Vposition
p6
I-19
sVwidth
p7
I17
sa(dp8
g6
I436
sg7
I71
sa(dp9
g6
I462
sg7
I74
sa(dp10
g6
I462
sg7
I67
sa(dp11
g6
I710
sg7
I16
sasVvhints
p12
(lp13
(dp14
g6
I73
sg7
I79
sa(dp15
g6
I83
sg7
I69
sa(dp16
g6
I410
sg7
I73
sa(dp17
g6
I473
sg7
I73
sass."
EndChar

StartChar: I
Encoding: 39 73 39
GlifName: I_
Width: 457
VWidth: 0
Flags: W
HStem: 1 80<380 386.5> 3 66 14 86 622 46 637 65<322 337.5 308 352> 695 16
VStem: 201 67<294.5 309 244.5 353>
AnchorPoint: "bottom" 240 34 basechar 0
AnchorPoint: "top" 229 737 basechar 0
LayerCount: 2
Fore
SplineSet
52 622 m 257
 59 619 112 618 122 618 c 256
 132 618 168 621 202 627 c 257
 203 615 204 590 204 533 c 256
 204 478 201 380 201 326 c 256
 201 263 204 204 204 158 c 256
 204 128 204 101 222 92 c 257
 236 92 265 123 270 125 c 257
 272 127 273 137 273 141 c 256
 273 169 268 230 268 259 c 256
 268 359 270 446 270 542 c 256
 270 588 268 615 266 636 c 257
 273 637 282 638 291 638 c 256
 304 638 317 637 327 637 c 256
 377 637 383 665 383 679 c 256
 383 698 358 702 317 702 c 256
 299 702 277 701 256 700 c 257
 254 701 l 257
 248 708 233 711 224 711 c 256
 205 711 200 700 198 693 c 257
 168 685 92 675 50 668 c 256
 44 667 41 662 41 656 c 256
 41 631 48 624 52 622 c 257
124 14 m 256
 168 8 243 3 305 3 c 256
 333 3 361 3 380 1 c 257
 393 1 425 38 425 50 c 256
 425 71 414 81 400 81 c 256
 350 81 316 70 262 70 c 256
 238 70 143 77 125 91 c 257
 120 97 111 100 101 100 c 256
 79 100 66 82 66 54 c 256
 66 25 84 20 124 14 c 256
EndSplineSet
PickledDataWithLists: "(dp0
Vcom.fontlab.hintData
p1
(dp2
Vhhints
p3
(lp4
(dp5
Vposition
p6
I1
sVwidth
p7
I80
sa(dp8
g6
I3
sg7
I66
sa(dp9
g6
I14
sg7
I86
sa(dp10
g6
I622
sg7
I46
sa(dp11
g6
I637
sg7
I65
sa(dp12
g6
I695
sg7
I16
sasVvhints
p13
(lp14
(dp15
g6
I201
sg7
I67
sass."
EndChar

StartChar: Iogonek
Encoding: 46 302 46
GlifName: I_ogonek
Width: 500
VWidth: 0
Flags: W
HStem: -217 66<405 414 405 417> -4 68<302 306.5 263.5 334> 9 79 642 46 656 66 718 16
VStem: 215 62 223 62 302 67<-125 -93>
AnchorPoint: "top" 245 761 basechar 0
AnchorPoint: "bottom" 256 -174 basechar 0
LayerCount: 2
Fore
SplineSet
51 671 m 256
 51 641 53 637 139 637 c 256
 149 637 210 645 220 648 c 257
 222 642 223 597 223 543 c 256
 223 482 215 381 215 329 c 256
 215 319 215 310 215 301 c 256
 215 299 223 213 223 154 c 256
 223 148 223 144 223 138 c 256
 223 113 224 95 237 84 c 257
 240 82 242 81 244 81 c 256
 261 81 274 110 284 116 c 256
 287 118 289 126 289 136 c 256
 289 170 278 236 278 259 c 256
 278 278 279 296 279 314 c 256
 279 410 286 474 286 554 c 256
 286 591 286 645 284 656 c 257
 308 658 376 660 383 662 c 256
 392 665 398 671 403 682 c 256
 407 690 410 696 410 702 c 256
 410 714 397 722 335 722 c 256
 317 722 297 722 275 721 c 257
 267 731 257 734 246 734 c 256
 229 734 218 726 215 714 c 257
 185 704 93 692 63 688 c 257
 56 686 51 678 51 671 c 256
141 9 m 257
 204 0 270 -4 334 -4 c 257
 319 -28 302 -75 302 -111 c 256
 302 -182 370 -217 402 -217 c 256
 432 -217 477 -183 477 -160 c 256
 477 -148 466 -143 455 -143 c 256
 440 -143 419 -151 409 -151 c 256
 401 -151 369 -148 369 -102 c 256
 369 -70 384 -28 411 -2 c 256
 429 15 458 28 458 42 c 256
 458 65 445 74 428 74 c 256
 372 74 337 64 276 64 c 256
 251 64 156 69 146 79 c 256
 140 85 129 88 117 88 c 256
 90 88 77 72 77 42 c 256
 77 23 100 13 141 9 c 257
EndSplineSet
PickledDataWithLists: "(dp0
Vcom.fontlab.hintData
p1
(dp2
Vhhints
p3
(lp4
(dp5
Vposition
p6
I-217
sVwidth
p7
I66
sa(dp8
g6
I-4
sg7
I68
sa(dp9
g6
I9
sg7
I79
sa(dp10
g6
I642
sg7
I46
sa(dp11
g6
I656
sg7
I66
sa(dp12
g6
I718
sg7
I16
sasVvhints
p13
(lp14
(dp15
g6
I215
sg7
I62
sa(dp16
g6
I223
sg7
I62
sa(dp17
g6
I302
sg7
I67
sass."
EndChar

StartChar: J
Encoding: 47 74 47
GlifName: J_
Width: 548
VWidth: 0
Flags: W
HStem: 5 62<231 290 220 307> 709 16
VStem: 426 66
AnchorPoint: "top" 291 719 basechar 0
AnchorPoint: "bottom" 266 33 basechar 0
LayerCount: 2
Fore
SplineSet
42 170 m 256
 42 104 91 67 141 34 c 257
 173 12 195 5 267 5 c 256
 347 5 446 43 477 123 c 256
 491 158 491 198 491 382 c 256
 491 484 494 540 494 546 c 257
 506 675 522 673 522 699 c 256
 522 713 501 725 475 725 c 256
 464 725 431 715 421 710 c 257
 411 707 377 701 318 690 c 256
 234 673 152 683 130 670 c 256
 122 665 102 649 102 630 c 256
 102 612 115 600 133 600 c 256
 143 600 149 600 157 602 c 257
 176 604 203 608 238 611 c 256
 259 613 294 616 302 618 c 257
 360 626 389 624 435 638 c 257
 433 624 431 593 429 563 c 257
 426 528 426 480 426 448 c 256
 426 426 426 411 426 411 c 257
 426 278 426 195 421 165 c 256
 418 149 406 129 382 107 c 256
 352 78 313 67 267 67 c 256
 173 67 120 123 86 205 c 256
 81 216 80 221 75 221 c 256
 74 221 42 220 42 170 c 256
EndSplineSet
PickledDataWithLists: "(dp0
Vcom.fontlab.hintData
p1
(dp2
Vhhints
p3
(lp4
(dp5
Vposition
p6
I5
sVwidth
p7
I62
sa(dp8
g6
I709
sg7
I16
sasVvhints
p9
(lp10
(dp11
g6
I426
sg7
I66
sass."
EndChar

StartChar: K
Encoding: 48 75 48
GlifName: K_
Width: 545
VWidth: 0
Flags: W
HStem: 8 82 714 16
VStem: 51 66 56 72 65 52
AnchorPoint: "bottom" 272 33 basechar 0
AnchorPoint: "top" 264 742 basechar 0
LayerCount: 2
Fore
SplineSet
90 43 m 256
 98 25 114 16 130 16 c 256
 154 16 158 24 158 45 c 256
 158 93 128 137 128 256 c 257
 160 229 176 212 206 182 c 256
 257 131 313 87 374 48 c 256
 409 26 443 8 486 8 c 256
 516 8 531 18 531 42 c 256
 531 74 450 76 360 154 c 257
 219 270 176 314 173 318 c 257
 199 350 202 366 298 462 c 256
 364 528 392 566 405 584 c 257
 415 600 464 662 464 685 c 256
 464 701 438 704 427 704 c 256
 411 704 406 699 400 691 c 257
 389 675 379 658 347 618 c 256
 312 572 277 545 227 482 c 257
 219 471 208 457 166 414 c 257
 152 398 141 382 122 363 c 257
 113 453 113 453 113 498 c 256
 113 532 115 562 117 629 c 257
 117 691 l 258
 117 717 114 730 106 730 c 256
 87 730 68 722 65 696 c 256
 61 663 51 570 51 530 c 256
 51 484 51 454 51 431 c 256
 51 385 52 362 56 275 c 256
 59 198 64 101 90 43 c 256
EndSplineSet
PickledDataWithLists: "(dp0
Vcom.fontlab.hintData
p1
(dp2
Vhhints
p3
(lp4
(dp5
Vposition
p6
I8
sVwidth
p7
I82
sa(dp8
g6
I714
sg7
I16
sasVvhints
p9
(lp10
(dp11
g6
I51
sg7
I66
sa(dp12
g6
I56
sg7
I72
sa(dp13
g6
I65
sg7
I52
sass."
EndChar

StartChar: L
Encoding: 50 76 50
GlifName: L_
Width: 497
VWidth: 0
Flags: W
HStem: -16 17 40 58<386.5 404 338 428.5>
VStem: 61 69<670 679> 64 77<67 172.5 67 227>
AnchorPoint: "bottom" 256 41 basechar 0
AnchorPoint: "top" 243 729 basechar 0
LayerCount: 2
Fore
SplineSet
70 38 m 256
 78 4 98 -16 114 -16 c 256
 187 -16 346 40 427 40 c 256
 430 40 433 38 438 38 c 256
 449 38 467 53 467 75 c 256
 467 91 435 98 373 98 c 256
 303 98 249 75 141 67 c 257
 141 167 126 302 126 344 c 256
 126 405 128 470 128 536 c 256
 128 651 130 658 130 682 c 256
 130 704 120 715 94 715 c 256
 88 715 61 696 61 662 c 256
 61 660 64 552 64 528 c 258
 64 227 l 258
 64 205 64 183 64 162 c 256
 64 109 64 62 70 38 c 256
EndSplineSet
PickledDataWithLists: "(dp0
Vcom.fontlab.hintData
p1
(dp2
Vhhints
p3
(lp4
(dp5
Vposition
p6
I-16
sVwidth
p7
I17
sa(dp8
g6
I40
sg7
I58
sasVvhints
p9
(lp10
(dp11
g6
I61
sg7
I69
sa(dp12
g6
I64
sg7
I77
sass."
EndChar

StartChar: Lslash
Encoding: 54 321 54
GlifName: L_slash
Width: 537
VWidth: 0
Flags: W
HStem: 0 62<210 225 225 238 238 238> 2 69
VStem: 131 65<174 185 185 208.5 151.5 235>
AnchorPoint: "top" 266 725 basechar 0
AnchorPoint: "bottom" 312 25 basechar 0
LayerCount: 2
Fore
SplineSet
45 174 m 256
 52 174 58 177 61 183 c 256
 62 185 61 185 131 235 c 257
 131 185 l 258
 131 163 130 144 130 126 c 256
 130 101 131 77 135 43 c 256
 140 3 172 0 210 0 c 258
 238 0 l 257
 315 2 345 3 435 3 c 256
 448 3 459 2 470 2 c 258
 482 2 l 258
 500 2 510 4 510 29 c 256
 510 43 508 67 502 70 c 256
 500 71 497 70 494 70 c 256
 492 70 488 71 482 70 c 256
 460 65 404 62 314 62 c 256
 272 62 246 62 225 62 c 256
 215 62 206 61 199 62 c 257
 199 120 196 109 196 194 c 256
 196 223 197 243 199 257 c 257
 199 280 l 257
 206 285 215 290 222 294 c 256
 262 316 307 348 337 366 c 256
 361 380 418 421 418 452 c 256
 418 462 408 466 389 466 c 256
 361 466 342 449 326 439 c 256
 248 389 231 378 198 356 c 257
 197 402 196 414 196 471 c 256
 196 521 195 549 195 568 c 256
 195 570 197 653 202 671 c 257
 202 672 202 673 202 674 c 256
 202 680 193 722 154 722 c 256
 129 722 127 703 127 667 c 256
 127 507 130 441 131 311 c 257
 110 296 92 283 75 272 c 257
 60 263 12 233 12 214 c 256
 12 198 20 174 45 174 c 256
EndSplineSet
PickledDataWithLists: "(dp0
Vcom.fontlab.hintData
p1
(dp2
Vhhints
p3
(lp4
(dp5
Vposition
p6
I0
sVwidth
p7
I62
sa(dp8
g6
I2
sg7
I69
sasVvhints
p9
(lp10
(dp11
g6
I131
sg7
I65
sass."
EndChar

StartChar: M
Encoding: 55 77 55
GlifName: M_
Width: 705
VWidth: 0
Flags: W
HStem: -8 17 221 75<325 342 323 342.5> 709 16
VStem: 45 83 62 61<302 515> 560 70 573 58 586 58
AnchorPoint: "top" 349 727 basechar 0
AnchorPoint: "bottom" 376 33 basechar 0
LayerCount: 2
Fore
SplineSet
86 27 m 257
 92 9 96 -8 115 -8 c 256
 134 -8 160 18 160 37 c 256
 160 47 156 53 146 59 c 257
 136 67 136 89 133 123 c 256
 125 222 123 341 123 448 c 258
 123 515 l 257
 128 504 131 494 136 483 c 256
 144 462 166 411 174 398 c 256
 200 355 210 325 234 293 c 256
 256 263 258 270 282 243 c 257
 296 229 314 221 336 221 c 256
 349 221 360 224 370 230 c 257
 407 251 453 283 477 310 c 256
 509 347 527 363 538 381 c 257
 552 402 567 434 573 445 c 257
 573 362 l 258
 573 208 586 172 586 101 c 256
 588 7 600 -42 637 -42 c 256
 651 -42 678 -27 678 -14 c 256
 678 -3 653 41 651 62 c 257
 650 66 630 372 630 442 c 256
 630 466 630 488 630 517 c 258
 630 582 l 258
 630 594 630 607 630 617 c 256
 630 661 627 691 586 691 c 256
 559 691 562 650 560 608 c 257
 557 560 523 470 491 422 c 256
 471 392 389 304 350 298 c 257
 348 298 343 296 341 296 c 256
 305 296 250 403 237 429 c 256
 215 475 181 528 163 586 c 256
 157 605 139 647 128 674 c 257
 101 725 98 725 80 725 c 256
 54 725 45 699 45 653 c 256
 45 610 58 575 61 490 c 257
 61 484 62 416 62 408 c 256
 62 375 62 340 62 302 c 256
 62 166 67 74 86 27 c 257
EndSplineSet
PickledDataWithLists: "(dp0
Vcom.fontlab.hintData
p1
(dp2
Vhhints
p3
(lp4
(dp5
Vposition
p6
I-8
sVwidth
p7
I17
sa(dp8
g6
I221
sg7
I75
sa(dp9
g6
I709
sg7
I16
sasVvhints
p10
(lp11
(dp12
g6
I45
sg7
I83
sa(dp13
g6
I62
sg7
I61
sa(dp14
g6
I560
sg7
I70
sa(dp15
g6
I573
sg7
I58
sa(dp16
g6
I586
sg7
I58
sass."
EndChar

StartChar: N
Encoding: 56 78 56
GlifName: N_
Width: 617
VWidth: 0
Flags: W
HStem: -10 85<476.5 491 476.5 514>
VStem: 51 66<428 463.5 379 596.5> 54 80 466 70<640.5 651 624 653.5> 491 64 501 62<97 128>
AnchorPoint: "top" 317 730 basechar 0
AnchorPoint: "bottom" 320 33 basechar 0
LayerCount: 2
Fore
SplineSet
82 18 m 257
 87 2 98 -5 114 -5 c 256
 136 -5 158 16 158 38 c 256
 158 74 121 72 118 272 c 257
 118 382 117 320 117 438 c 256
 117 489 118 503 120 525 c 257
 134 490 186 382 194 374 c 257
 234 318 288 216 291 210 c 256
 337 117 440 -10 509 -10 c 256
 519 -10 542 -10 550 11 c 257
 558 37 563 61 563 106 c 256
 563 172 553 174 553 220 c 256
 553 240 556 253 556 274 c 256
 556 278 548 411 546 430 c 257
 546 436 546 442 546 452 c 256
 546 454 536 603 536 645 c 256
 536 657 571 672 571 702 c 256
 571 718 565 718 539 718 c 256
 517 718 501 712 491 702 c 257
 475 683 466 664 466 643 c 256
 466 638 467 635 469 629 c 256
 480 591 491 299 491 296 c 256
 491 277 490 253 490 225 c 256
 490 155 501 138 501 118 c 256
 501 76 496 75 486 75 c 256
 467 75 362 212 344 254 c 256
 320 313 283 358 251 416 c 256
 209 491 205 527 181 573 c 257
 149 639 134 672 134 674 c 257
 123 704 106 720 85 720 c 256
 77 720 70 719 64 714 c 257
 58 708 51 700 51 493 c 256
 51 363 53 284 56 258 c 257
 58 250 70 106 72 98 c 257
 75 76 77 48 82 18 c 257
EndSplineSet
PickledDataWithLists: "(dp0
Vcom.fontlab.hintData
p1
(dp2
Vhhints
p3
(lp4
(dp5
Vposition
p6
I-10
sVwidth
p7
I85
sasVvhints
p8
(lp9
(dp10
g6
I51
sg7
I66
sa(dp11
g6
I54
sg7
I80
sa(dp12
g6
I466
sg7
I70
sa(dp13
g6
I491
sg7
I64
sa(dp14
g6
I501
sg7
I62
sass."
EndChar

StartChar: O
Encoding: 61 79 61
GlifName: O_
Width: 611
VWidth: 0
Flags: W
HStem: -10 70 632 82<153 155.5 138 158.5> 658 66
VStem: 45 67<317 360 360 365 317 373> 501 61<324 377.5>
AnchorPoint: "bottom" 280 33 basechar 0
AnchorPoint: "top" 310 745 basechar 0
LayerCount: 2
Fore
SplineSet
141 579 m 257
 141 590 149 632 157 632 c 256
 160 632 171 626 174 624 c 257
 166 616 141 579 141 579 c 257
158 141 m 257
 112 225 112 287 112 317 c 256
 112 329 112 343 112 360 c 256
 112 370 121 448 125 458 c 257
 133 458 141 463 149 477 c 257
 172 527 247 618 296 643 c 257
 314 651 338 658 368 658 c 256
 462 658 477 555 493 478 c 256
 499 449 501 419 501 336 c 256
 501 272 477 214 451 171 c 256
 433 142 411 119 365 85 c 257
 352 77 317 61 293 61 c 256
 232 61 196 83 158 141 c 257
94 115 m 257
 132 41 192 -10 280 -10 c 256
 283 -10 448 -4 546 224 c 256
 556 248 562 293 562 355 c 256
 562 456 549 531 525 579 c 256
 499 632 499 646 462 686 c 256
 436 713 405 723 362 723 c 256
 301 723 263 704 221 674 c 257
 213 685 165 714 146 714 c 256
 130 714 115 704 102 685 c 256
 73 643 80 597 67 541 c 257
 59 501 45 428 45 318 c 256
 45 257 59 232 64 206 c 256
 72 164 70 158 94 115 c 257
EndSplineSet
PickledDataWithLists: "(dp0
Vcom.fontlab.hintData
p1
(dp2
Vhhints
p3
(lp4
(dp5
Vposition
p6
I-10
sVwidth
p7
I70
sa(dp8
g6
I632
sg7
I82
sa(dp9
g6
I658
sg7
I66
sasVvhints
p10
(lp11
(dp12
g6
I45
sg7
I67
sa(dp13
g6
I501
sg7
I61
sass."
Substitution2: "Single Substitution lookup 18 subtable" ordmasculine
EndChar

StartChar: OE
Encoding: 62 338 62
GlifName: O_E_
Width: 869
VWidth: 0
Flags: W
HStem: -3 84<263 275> 22 75<471 550.5> 56 74<785 809> 336 72 630 66<686 771> 660 65<273.5 308.5>
VStem: 54 68<322.5 396.5> 414 91<438.5 531> 427 78<359.5 457.5>
AnchorPoint: "top" 448 759 basechar 0
AnchorPoint: "bottom" 488 47 basechar 0
LayerCount: 2
Fore
SplineSet
126 101 m 256
 142 51 202 -3 270 -3 c 256
 280 -3 330 13 344 22 c 256
 360 31 374 34 411 70 c 256
 418 76 431 90 441 101 c 257
 446 59 452 22 490 22 c 256
 491 22 704 45 742 54 c 257
 743 54 783 56 787 56 c 256
 803 56 809 69 825 95 c 256
 831 104 834 110 832 114 c 257
 830 124 816 130 802 130 c 256
 796 130 792 129 787 127 c 256
 785 126 560 97 541 97 c 256
 527 97 518 112 512 142 c 257
 505 188 504 334 504 336 c 257
 546 336 612 339 648 353 c 256
 670 362 702 365 715 367 c 257
 722 369 744 385 744 403 c 256
 744 410 737 430 714 430 c 256
 697 430 674 427 668 421 c 256
 661 414 598 414 569 414 c 256
 558 414 525 409 506 408 c 257
 505 420 505 431 505 446 c 256
 505 469 506 486 506 504 c 256
 506 513 506 523 505 534 c 257
 505 556 518 630 518 634 c 257
 518 634 586 632 629 632 c 256
 650 632 674 630 698 630 c 256
 744 630 796 636 796 671 c 256
 796 681 784 696 758 696 c 256
 742 696 584 697 569 697 c 256
 553 697 526 702 522 704 c 256
 515 709 512 710 505 710 c 256
 488 710 476 705 468 703 c 257
 454 697 445 682 442 660 c 257
 439 636 l 257
 437 639 437 642 436 644 c 256
 432 658 418 678 387 704 c 256
 369 718 339 725 294 725 c 256
 253 725 224 718 204 704 c 256
 168 680 152 660 146 651 c 256
 104 593 79 554 67 484 c 256
 61 446 54 406 54 387 c 256
 54 349 58 326 58 320 c 257
 60 302 62 283 69 257 c 257
 73 232 88 190 94 170 c 256
 101 148 116 133 126 101 c 256
148 235 m 257
 139 259 122 301 122 344 c 256
 122 387 130 455 134 480 c 257
 147 546 207 660 285 660 c 256
 332 660 353 645 375 619 c 257
 393 595 414 546 414 516 c 257
 423 461 427 430 427 389 c 256
 427 330 426 225 397 171 c 256
 391 160 378 143 355 121 c 257
 324 88 306 81 276 81 c 256
 250 81 222 92 209 108 c 257
 186 134 183 154 166 183 c 257
 154 207 154 217 148 235 c 257
EndSplineSet
PickledDataWithLists: "(dp0
Vcom.fontlab.hintData
p1
(dp2
Vhhints
p3
(lp4
(dp5
Vposition
p6
I-3
sVwidth
p7
I84
sa(dp8
g6
I22
sg7
I75
sa(dp9
g6
I56
sg7
I74
sa(dp10
g6
I336
sg7
I72
sa(dp11
g6
I630
sg7
I66
sa(dp12
g6
I660
sg7
I65
sasVvhints
p13
(lp14
(dp15
g6
I54
sg7
I68
sa(dp16
g6
I414
sg7
I91
sa(dp17
g6
I427
sg7
I78
sass."
EndChar

StartChar: Oslash
Encoding: 68 216 68
GlifName: O_slash
Width: 755
VWidth: 0
Flags: W
HStem: -10 17 0 70<370 379 370 416> 620 69<680 681.5 652 704.5> 661 78
VStem: 14 102 111 62<323 352.5> 579 62
AnchorPoint: "top" 382 769 basechar 0
AnchorPoint: "bottom" 387 31 basechar 0
LayerCount: 2
Fore
SplineSet
213 193 m 257
 243 239 294 282 328 324 c 257
 328 331 470 465 490 478 c 257
 509 492 522 503 527 509 c 256
 532 515 538 520 541 523 c 257
 543 521 547 512 553 503 c 256
 572 475 579 370 579 331 c 256
 579 311 578 296 573 289 c 257
 567 279 563 263 561 243 c 257
 553 189 467 68 402 68 c 256
 396 68 388 70 370 70 c 257
 351 72 333 80 316 90 c 256
 291 105 225 166 213 193 c 257
184 266 m 257
 179 279 173 298 173 348 c 256
 173 400 176 436 184 456 c 257
 191 478 197 501 199 523 c 256
 202 569 222 600 242 630 c 257
 249 643 269 661 325 661 c 256
 342 661 359 660 377 652 c 257
 424 634 468 621 492 594 c 256
 495 591 501 584 503 582 c 257
 500 577 480 561 446 532 c 256
 425 514 401 491 375 465 c 257
 353 438 299 381 213 295 c 256
 198 280 190 269 184 266 c 257
14 41 m 256
 14 27 51 -10 66 -10 c 256
 84 -10 129 13 129 49 c 256
 129 56 127 61 123 61 c 256
 118 61 115 68 115 70 c 256
 115 78 154 122 162 129 c 257
 170 122 183 114 201 96 c 256
 236 62 324 0 375 0 c 256
 457 0 492 28 544 86 c 257
 578 128 623 208 628 262 c 256
 630 286 642 292 642 378 c 256
 642 437 640 472 635 482 c 257
 629 501 609 554 598 570 c 257
 616 590 666 620 694 620 c 256
 715 620 740 636 740 658 c 256
 740 667 732 683 726 686 c 256
 723 688 691 689 672 689 c 256
 632 689 615 668 591 650 c 256
 579 641 567 634 554 625 c 257
 552 630 538 642 534 646 c 256
 492 684 448 706 395 716 c 257
 341 725 336 738 281 738 c 256
 240 738 208 720 184 687 c 256
 142 630 129 599 129 567 c 257
 125 481 121 541 117 441 c 257
 117 404 111 371 111 334 c 256
 111 261 127 198 127 196 c 257
 121 191 120 184 110 172 c 257
 80 142 70 121 46 86 c 257
 36 76 14 58 14 41 c 256
EndSplineSet
PickledDataWithLists: "(dp0
Vcom.fontlab.hintData
p1
(dp2
Vhhints
p3
(lp4
(dp5
Vposition
p6
I-10
sVwidth
p7
I17
sa(dp8
g6
I0
sg7
I70
sa(dp9
g6
I620
sg7
I69
sa(dp10
g6
I661
sg7
I78
sasVvhints
p11
(lp12
(dp13
g6
I14
sg7
I102
sa(dp14
g6
I111
sg7
I62
sa(dp15
g6
I579
sg7
I62
sass."
EndChar

StartChar: P
Encoding: 70 80 70
GlifName: P_
Width: 497
VWidth: 0
Flags: W
HStem: -2 17 232 67 632 70<141 141> 714 16
VStem: 18 32<557 626> 72 67<419 547.5> 75 75 78 62 104 75 394 66
AnchorPoint: "top" 235 742 basechar 0
AnchorPoint: "bottom" 143 33 basechar 0
LayerCount: 2
Fore
SplineSet
146 299 m 257
 144 333 139 365 139 473 c 256
 139 497 141 583 141 632 c 257
 202 632 236 614 278 584 c 256
 320 554 346 537 371 504 c 256
 378 494 394 463 394 450 c 256
 394 426 354 391 335 375 c 256
 317 361 286 344 265 334 c 256
 222 312 185 305 146 299 c 257
98 82 m 257
 100 71 101 45 104 32 c 256
 109 14 122 -2 136 -2 c 256
 167 -2 179 29 179 56 c 256
 179 80 163 87 155 125 c 256
 151 146 152 174 150 198 c 256
 149 206 149 224 149 232 c 257
 176 236 227 245 251 255 c 256
 297 273 387 327 419 369 c 257
 437 391 459 414 459 462 c 256
 459 488 444 514 419 547 c 256
 387 588 367 602 307 640 c 256
 259 670 203 697 141 702 c 257
 141 705 140 723 138 725 c 256
 135 728 122 730 109 730 c 256
 93 730 88 724 85 718 c 256
 83 715 85 707 83 699 c 257
 35 685 18 649 18 603 c 256
 18 569 29 538 37 538 c 256
 45 538 50 549 50 565 c 256
 50 591 49 605 51 610 c 256
 53 615 72 626 78 629 c 257
 78 628 72 575 72 520 c 256
 72 493 72 188 98 82 c 257
EndSplineSet
PickledDataWithLists: "(dp0
Vcom.fontlab.hintData
p1
(dp2
Vhhints
p3
(lp4
(dp5
Vposition
p6
I-2
sVwidth
p7
I17
sa(dp8
g6
I232
sg7
I67
sa(dp9
g6
I632
sg7
I70
sa(dp10
g6
I714
sg7
I16
sasVvhints
p11
(lp12
(dp13
g6
I18
sg7
I32
sa(dp14
g6
I72
sg7
I67
sa(dp15
g6
I75
sg7
I75
sa(dp16
g6
I78
sg7
I62
sa(dp17
g6
I104
sg7
I75
sa(dp18
g6
I394
sg7
I66
sass."
EndChar

StartChar: Q
Encoding: 71 81 71
GlifName: Q_
Width: 626
VWidth: 0
Flags: W
HStem: 2 71 646 75
VStem: 50 66 502 71<523.5 537.5 535 546>
AnchorPoint: "top" 330 758 basechar 0
AnchorPoint: "bottom" 306 38 basechar 0
LayerCount: 2
Fore
SplineSet
147 229 m 256
 118 291 115 410 115 420 c 256
 115 433 116 444 118 455 c 256
 144 625 239 635 334 645 c 256
 348 647 360 646 370 646 c 256
 384 646 395 646 403 645 c 256
 434 640 467 622 485 602 c 257
 500 581 502 562 502 546 c 256
 502 544 502 540 502 535 c 256
 502 512 501 453 487 358 c 257
 478 283 468 239 438 196 c 257
 408 226 376 298 353 298 c 256
 327 298 299 270 299 260 c 256
 299 252 336 208 341 202 c 257
 352 184 353 183 363 167 c 257
 371 156 384 143 387 135 c 257
 366 106 331 74 309 74 c 256
 270 74 257 90 232 105 c 256
 219 113 207 124 194 138 c 257
 169 168 165 193 147 229 c 256
114 134 m 256
 135 102 147 71 179 50 c 256
 211 29 259 2 301 2 c 256
 351 2 408 52 434 79 c 257
 453 52 467 34 485 18 c 256
 496 8 503 -1 514 -9 c 256
 528 -19 531 -35 552 -38 c 257
 557 -38 560 -39 565 -39 c 256
 603 -39 609 -9 609 -6 c 256
 609 5 596 22 570 41 c 257
 544 59 526 73 518 84 c 257
 500 105 495 112 482 134 c 257
 490 145 490 154 498 165 c 257
 524 208 544 267 563 401 c 256
 571 455 573 480 573 550 c 256
 573 604 559 636 530 666 c 256
 498 701 475 710 419 718 c 256
 401 720 385 722 370 722 c 256
 340 722 317 717 298 713 c 256
 226 700 186 683 138 646 c 256
 111 625 96 607 88 588 c 256
 70 543 64 535 54 458 c 256
 49 423 50 397 50 386 c 256
 50 281 92 166 114 134 c 256
EndSplineSet
PickledDataWithLists: "(dp0
Vcom.fontlab.hintData
p1
(dp2
Vhhints
p3
(lp4
(dp5
Vposition
p6
I2
sVwidth
p7
I71
sa(dp8
g6
I646
sg7
I75
sasVvhints
p9
(lp10
(dp11
g6
I50
sg7
I66
sa(dp12
g6
I502
sg7
I71
sass."
EndChar

StartChar: R
Encoding: 72 82 72
GlifName: R_
Width: 566
VWidth: 0
Flags: W
HStem: -1 17 625 72 721 16
VStem: 56 74 57 66 67 94 411 70
AnchorPoint: "top" 251 732 basechar 0
AnchorPoint: "bottom" 280 33 basechar 0
LayerCount: 2
Fore
SplineSet
123 324 m 257
 122 351 122 377 122 402 c 256
 122 521 130 619 130 625 c 257
 141 623 157 622 171 622 c 256
 198 622 224 616 238 614 c 256
 321 600 411 532 411 478 c 256
 411 459 393 416 363 390 c 256
 307 342 220 322 174 322 c 256
 153 322 123 324 123 324 c 257
67 118 m 256
 70 67 76 44 90 22 c 256
 98 9 109 -1 115 -1 c 256
 123 -1 128 1 141 15 c 257
 154 28 162 39 162 47 c 256
 162 52 160 62 154 73 c 257
 134 116 130 211 128 257 c 257
 216 249 256 234 290 199 c 256
 311 177 340 150 358 126 c 256
 374 105 398 76 408 66 c 256
 428 44 471 -4 502 -4 c 256
 523 -4 536 17 536 36 c 256
 536 46 533 54 525 57 c 256
 517 60 499 76 470 106 c 256
 449 128 404 193 378 222 c 256
 362 240 326 273 296 286 c 257
 322 296 368 316 398 343 c 256
 433 375 482 425 482 481 c 256
 482 499 464 542 454 561 c 257
 420 613 374 643 315 663 c 256
 301 668 274 680 245 686 c 256
 216 692 159 695 133 697 c 257
 131 708 104 737 82 737 c 256
 60 737 35 708 35 689 c 256
 35 678 46 662 56 654 c 257
 57 615 57 587 57 561 c 256
 57 509 56 466 56 367 c 256
 56 351 56 335 56 318 c 256
 56 292 56 264 59 234 c 256
 65 173 65 150 67 118 c 256
EndSplineSet
PickledDataWithLists: "(dp0
Vcom.fontlab.hintData
p1
(dp2
Vhhints
p3
(lp4
(dp5
Vposition
p6
I-1
sVwidth
p7
I17
sa(dp8
g6
I625
sg7
I72
sa(dp9
g6
I721
sg7
I16
sasVvhints
p10
(lp11
(dp12
g6
I56
sg7
I74
sa(dp13
g6
I57
sg7
I66
sa(dp14
g6
I67
sg7
I94
sa(dp15
g6
I411
sg7
I70
sass."
EndChar

StartChar: S
Encoding: 75 83 75
GlifName: S_
Width: 487
VWidth: 0
Flags: W
HStem: -5 72<163 203> 638 78
VStem: 49 72<427 472.5 427 474.5> 374 77
AnchorPoint: "top" 267 751 basechar 0
AnchorPoint: "bottom" 248 34 basechar 0
LayerCount: 2
Fore
SplineSet
65 53 m 256
 65 21 126 -5 174 -5 c 256
 232 -5 369 42 412 85 c 256
 438 111 450 135 450 154 c 256
 450 164 447 184 423 206 c 256
 367 259 299 305 222 331 c 257
 195 339 155 354 137 373 c 256
 124 386 121 411 121 443 c 256
 121 502 139 530 166 568 c 256
 190 602 230 638 274 638 c 256
 346 638 341 614 372 614 c 256
 391 614 404 629 404 645 c 256
 404 661 395 675 374 686 c 256
 364 691 358 696 353 699 c 256
 339 709 315 717 270 717 c 256
 236 717 171 673 146 648 c 256
 130 632 122 618 114 608 c 257
 95 581 49 509 49 440 c 256
 49 387 59 373 81 336 c 256
 97 310 168 280 186 274 c 257
 234 260 267 256 361 163 c 256
 369 155 374 149 374 141 c 256
 374 135 372 133 367 130 c 256
 346 117 330 104 290 86 c 257
 269 78 220 67 190 67 c 256
 136 67 147 91 105 91 c 256
 83 91 65 76 65 53 c 256
EndSplineSet
PickledDataWithLists: "(dp0
Vcom.fontlab.hintData
p1
(dp2
Vhhints
p3
(lp4
(dp5
Vposition
p6
I-5
sVwidth
p7
I72
sa(dp8
g6
I638
sg7
I78
sasVvhints
p9
(lp10
(dp11
g6
I49
sg7
I72
sa(dp12
g6
I374
sg7
I77
sass."
EndChar

StartChar: Scedilla
Encoding: 78 350 78
GlifName: S_cedilla
Width: 487
VWidth: 0
Flags: W
HStem: 3 71<207 285> 652 74<240 250>
VStem: 65 70 345 70 427 66
AnchorPoint: "top" 267 751 basechar 0
AnchorPoint: "bottom" 303 -204 basechar 0
LayerCount: 2
Fore
SplineSet
89 42 m 257
 116 12 163 14 204 8 c 256
 226 5 252 3 274 3 c 256
 296 3 313 4 322 6 c 257
 325 -10 345 -50 345 -80 c 256
 345 -98 341 -114 334 -128 c 256
 327 -143 313 -157 303 -170 c 256
 293 -182 272 -191 272 -205 c 256
 272 -224 301 -224 310 -224 c 257
 346 -218 414 -156 414 -86 c 256
 414 -40 386 24 385 25 c 257
 391 30 408 39 418 48 c 256
 445 74 479 100 489 136 c 256
 492 149 494 161 494 175 c 256
 494 208 484 242 470 270 c 256
 454 300 423 321 395 342 c 256
 320 396 214 408 170 434 c 257
 156 444 141 449 137 466 c 256
 135 472 134 480 134 486 c 256
 134 520 153 555 171 584 c 256
 188 611 207 642 237 651 c 257
 239 651 239 652 241 652 c 256
 259 652 288 629 302 627 c 256
 308 626 313 626 319 626 c 256
 350 626 352 650 352 650 c 257
 352 664 333 678 322 686 c 256
 299 704 268 726 238 726 c 256
 232 726 228 725 222 723 c 256
 147 703 107 614 78 542 c 257
 70 520 65 497 65 474 c 256
 65 462 67 449 70 438 c 256
 77 416 94 397 114 383 c 256
 139 366 167 362 196 353 c 256
 298 319 427 274 427 175 c 256
 427 113 359 81 305 77 c 257
 288 75 271 74 254 74 c 256
 160 74 156 102 116 102 c 256
 115 102 78 101 78 71 c 256
 78 60 82 48 89 42 c 257
EndSplineSet
PickledDataWithLists: "(dp0
Vcom.fontlab.hintData
p1
(dp2
Vhhints
p3
(lp4
(dp5
Vposition
p6
I3
sVwidth
p7
I71
sa(dp8
g6
I652
sg7
I74
sasVvhints
p9
(lp10
(dp11
g6
I65
sg7
I70
sa(dp12
g6
I345
sg7
I70
sa(dp13
g6
I427
sg7
I66
sass."
Substitution2: "'locl' Localized Forms in Latin lookup 14 subtable" Scommaaccent
Substitution2: "'locl' Localized Forms in Latin lookup 13 subtable" Scommaaccent
EndChar

StartChar: T
Encoding: 80 84 80
GlifName: T_
Width: 592
VWidth: 0
Flags: W
HStem: -2 17 623 63<132.5 155.5 132.5 180> 650 73<438 510>
VStem: 254 64<427 568.5> 271 63
AnchorPoint: "top" 288 742 basechar 0
AnchorPoint: "bottom" 320 33 basechar 0
LayerCount: 2
Fore
SplineSet
271 94 m 256
 274 54 277 18 304 5 c 257
 312 0 315 -2 320 -2 c 256
 326 -2 323 0 336 8 c 257
 358 18 368 30 368 43 c 256
 368 53 361 67 350 77 c 257
 345 80 342 86 339 94 c 256
 336 102 337 163 334 200 c 256
 329 267 321 416 318 555 c 256
 318 582 317 634 317 634 c 257
 405 642 394 650 482 650 c 257
 512 652 535 656 546 662 c 256
 559 668 570 671 570 690 c 256
 570 723 513 723 507 723 c 256
 494 723 487 720 482 717 c 256
 477 714 459 711 416 706 c 257
 351 702 231 691 229 691 c 257
 192 686 165 686 146 686 c 256
 119 686 111 694 85 694 c 256
 40 694 39 692 29 675 c 257
 24 670 22 667 22 664 c 256
 22 624 61 623 160 623 c 256
 200 623 233 624 254 626 c 257
 256 616 256 604 256 590 c 256
 256 566 254 538 254 504 c 256
 254 350 263 254 266 216 c 256
 268 197 268 136 271 94 c 256
EndSplineSet
PickledDataWithLists: "(dp0
Vcom.fontlab.hintData
p1
(dp2
Vhhints
p3
(lp4
(dp5
Vposition
p6
I-2
sVwidth
p7
I17
sa(dp8
g6
I623
sg7
I63
sa(dp9
g6
I650
sg7
I73
sasVvhints
p10
(lp11
(dp12
g6
I254
sg7
I64
sa(dp13
g6
I271
sg7
I63
sass."
EndChar

StartChar: Thorn
Encoding: 83 222 83
GlifName: T_horn
Width: 484
VWidth: 0
Flags: W
HStem: 0 17 195 66<184 217 183.5 248> 495 66 722 16
VStem: 53 66<592.5 603 603 632 552 663.5> 370 62<380 398.5>
AnchorPoint: "top" 243 759 basechar 0
AnchorPoint: "bottom" 88 31 basechar 0
LayerCount: 2
Fore
SplineSet
119 267 m 257
 117 281 116 353 116 400 c 256
 116 438 116 469 118 484 c 257
 147 491 196 495 243 495 c 256
 369 495 370 412 370 385 c 256
 370 375 361 349 353 335 c 256
 343 318 298 283 272 274 c 256
 261 270 227 261 207 261 c 256
 160 261 134 262 119 267 c 257
95 0 m 256
 118 0 118 96 118 130 c 256
 118 156 118 198 118 198 c 257
 148 196 169 195 199 195 c 256
 297 195 432 272 432 382 c 256
 432 450 424 464 403 491 c 257
 368 544 299 562 239 562 c 256
 197 562 130 554 119 552 c 257
 119 603 l 258
 119 661 131 670 131 686 c 256
 131 698 111 728 106 731 c 256
 100 736 93 738 87 738 c 256
 73 738 65 734 60 726 c 257
 55 722 53 692 53 635 c 256
 53 550 54 549 54 529 c 256
 54 527 50 441 50 288 c 256
 50 146 50 0 95 0 c 256
EndSplineSet
PickledDataWithLists: "(dp0
Vcom.fontlab.hintData
p1
(dp2
Vhhints
p3
(lp4
(dp5
Vposition
p6
I0
sVwidth
p7
I17
sa(dp8
g6
I195
sg7
I66
sa(dp9
g6
I495
sg7
I66
sa(dp10
g6
I722
sg7
I16
sasVvhints
p11
(lp12
(dp13
g6
I53
sg7
I66
sa(dp14
g6
I370
sg7
I62
sass."
EndChar

StartChar: U
Encoding: 84 85 84
GlifName: U_
Width: 536
VWidth: 0
Flags: W
HStem: -6 65<261.5 291 261.5 298.5> 713 16
VStem: 48 66<454 490.5 420.5 519.5> 429 62<393 430 430 479.5 393 520.5>
AnchorPoint: "bottom" 270 33 basechar 0
AnchorPoint: "top" 269 758 basechar 0
LayerCount: 2
Fore
SplineSet
90 160 m 257
 108 115 129 82 158 54 c 256
 192 22 219 -6 267 -6 c 256
 330 -6 399 44 438 114 c 256
 470 172 491 217 491 393 c 256
 491 405 491 416 491 430 c 256
 491 529 490 559 482 638 c 257
 473 700 444 729 434 729 c 256
 423 729 412 724 405 715 c 257
 396 705 387 696 387 687 c 256
 387 681 392 678 394 674 c 257
 416 650 429 614 429 427 c 256
 429 242 420 206 386 151 c 256
 349 92 310 59 272 59 c 256
 251 59 226 79 194 113 c 256
 172 136 161 157 151 182 c 256
 123 256 114 380 114 461 c 256
 114 520 116 595 116 656 c 256
 116 718 109 729 89 729 c 256
 74 729 63 723 57 714 c 257
 53 705 50 679 50 634 c 256
 50 594 48 540 48 499 c 256
 48 409 56 238 90 160 c 257
EndSplineSet
PickledDataWithLists: "(dp0
Vcom.fontlab.hintData
p1
(dp2
Vhhints
p3
(lp4
(dp5
Vposition
p6
I-6
sVwidth
p7
I65
sa(dp8
g6
I713
sg7
I16
sasVvhints
p9
(lp10
(dp11
g6
I48
sg7
I66
sa(dp12
g6
I429
sg7
I62
sass."
EndChar

StartChar: Uogonek
Encoding: 91 370 91
GlifName: U_ogonek
Width: 536
VWidth: 0
Flags: W
HStem: -262 68<419.5 490.5 419.5 491.5> -26 16 -19 75<254 257.5>
VStem: 45 62<395 413.5> 298 64<-95 -79> 458 71 482 62<434 464 464 471>
AnchorPoint: "top" 285 751 basechar 0
AnchorPoint: "bottom" 306 -246 basechar 0
LayerCount: 2
Fore
SplineSet
98 78 m 256
 123 32 154 -2 210 -14 c 257
 223 -18 235 -19 248 -19 c 256
 267 -19 287 -15 310 -10 c 257
 302 -33 298 -64 298 -94 c 256
 298 -199 369 -262 460 -262 c 256
 523 -262 597 -223 597 -194 c 256
 597 -180 585 -177 571 -177 c 256
 541 -177 511 -194 470 -194 c 256
 369 -194 362 -108 362 -82 c 256
 362 -50 373 -20 386 14 c 257
 395 19 402 25 410 32 c 256
 472 86 494 136 518 203 c 256
 542 269 544 351 544 434 c 256
 544 444 544 454 544 464 c 256
 544 530 533 596 530 662 c 257
 528 689 529 729 526 742 c 257
 520 760 512 781 490 781 c 257
 465 779 458 761 458 737 c 256
 458 715 464 686 466 662 c 257
 470 581 l 258
 472 537 482 494 482 448 c 256
 482 286 462 203 411 133 c 256
 373 80 319 56 254 56 c 257
 238 58 216 58 201 66 c 256
 135 100 112 182 107 395 c 256
 107 404 107 412 107 422 c 256
 107 455 108 489 112 522 c 257
 120 579 144 638 144 651 c 256
 144 673 132 686 110 686 c 256
 83 686 63 609 58 571 c 256
 51 516 45 447 45 380 c 256
 45 356 45 332 47 309 c 256
 53 223 60 148 98 78 c 256
EndSplineSet
PickledDataWithLists: "(dp0
Vcom.fontlab.hintData
p1
(dp2
Vhhints
p3
(lp4
(dp5
Vposition
p6
I-262
sVwidth
p7
I68
sa(dp8
g6
I-26
sg7
I16
sa(dp9
g6
I-19
sg7
I75
sasVvhints
p10
(lp11
(dp12
g6
I45
sg7
I62
sa(dp13
g6
I298
sg7
I64
sa(dp14
g6
I458
sg7
I71
sa(dp15
g6
I482
sg7
I62
sass."
EndChar

StartChar: V
Encoding: 93 86 93
GlifName: V_
Width: 553
VWidth: 0
Flags: W
HStem: -22 17 722 16
VStem: 440 80
AnchorPoint: "bottom" 307 33 basechar 0
AnchorPoint: "top" 282 750 basechar 0
LayerCount: 2
Fore
SplineSet
166 219 m 257
 193 161 207 138 213 130 c 257
 239 91 264 1 283 -13 c 256
 291 -19 299 -22 309 -22 c 256
 339 -22 347 -1 355 24 c 256
 390 129 407 209 408 211 c 257
 429 269 432 307 443 344 c 256
 469 424 488 513 498 614 c 257
 511 682 520 663 520 685 c 256
 520 700 506 738 488 738 c 256
 475 738 450 723 445 701 c 256
 440 677 443 668 440 630 c 256
 434 567 426 505 411 443 c 257
 406 429 399 393 386 358 c 257
 378 339 376 325 374 317 c 256
 366 282 353 238 334 187 c 256
 326 166 328 151 323 141 c 257
 315 122 315 110 307 96 c 257
 301 104 285 136 282 142 c 257
 277 150 277 150 266 176 c 257
 258 192 253 203 248 211 c 257
 218 272 224 257 198 318 c 256
 176 371 179 365 166 424 c 256
 163 437 151 494 125 600 c 257
 119 629 101 715 59 715 c 256
 45 715 22 691 22 677 c 256
 22 666 26 653 34 640 c 257
 61 589 64 561 78 486 c 256
 105 354 165 221 166 219 c 257
EndSplineSet
PickledDataWithLists: "(dp0
Vcom.fontlab.hintData
p1
(dp2
Vhhints
p3
(lp4
(dp5
Vposition
p6
I-22
sVwidth
p7
I17
sa(dp8
g6
I722
sg7
I16
sasVvhints
p9
(lp10
(dp11
g6
I440
sg7
I80
sass."
EndChar

StartChar: W
Encoding: 94 87 94
GlifName: W_
Width: 702
VWidth: 0
Flags: W
HStem: -11 17 715 16
VStem: 579 46
AnchorPoint: "top" 342 743 basechar 0
AnchorPoint: "bottom" 368 33 basechar 0
LayerCount: 2
Fore
SplineSet
128 147 m 256
 142 85 154 61 184 13 c 256
 187 7 192 5 200 5 c 256
 206 5 209 5 214 10 c 256
 240 36 248 50 256 93 c 256
 261 119 265 139 270 155 c 256
 284 196 291 236 298 262 c 257
 320 334 316 364 341 432 c 257
 352 379 371 342 379 302 c 256
 387 259 415 220 426 194 c 256
 434 176 442 135 461 101 c 256
 480 66 505 32 539 6 c 257
 555 -5 565 -11 571 -11 c 256
 579 -11 594 36 600 46 c 256
 608 59 611 72 611 82 c 256
 611 102 606 110 606 138 c 256
 606 236 626 419 626 422 c 257
 628 464 641 623 661 662 c 257
 669 675 670 685 670 690 c 256
 670 695 664 707 654 723 c 256
 652 725 651 725 646 725 c 256
 638 725 625 723 614 717 c 256
 579 699 582 694 579 611 c 256
 577 550 580 515 574 451 c 256
 568 382 557 297 552 254 c 256
 544 174 550 152 544 109 c 257
 536 114 520 141 509 171 c 257
 503 185 483 219 475 240 c 257
 465 269 453 315 442 342 c 257
 421 384 381 542 357 552 c 257
 356 553 355 553 354 553 c 256
 334 553 321 543 310 526 c 256
 299 508 294 488 286 462 c 257
 274 432 262 375 256 358 c 257
 248 329 245 312 237 283 c 256
 232 265 228 254 222 240 c 256
 212 216 211 170 202 150 c 257
 197 158 192 178 187 197 c 257
 185 202 181 237 170 296 c 256
 144 430 138 467 130 550 c 256
 125 600 109 648 106 674 c 256
 103 697 89 731 61 731 c 256
 47 731 27 711 27 690 c 256
 27 664 42 650 50 621 c 256
 63 571 67 504 78 429 c 257
 79 427 101 280 128 147 c 256
EndSplineSet
PickledDataWithLists: "(dp0
Vcom.fontlab.hintData
p1
(dp2
Vhhints
p3
(lp4
(dp5
Vposition
p6
I-11
sVwidth
p7
I17
sa(dp8
g6
I715
sg7
I16
sasVvhints
p9
(lp10
(dp11
g6
I579
sg7
I46
sass."
EndChar

StartChar: X
Encoding: 96 88 96
GlifName: X_
Width: 590
VWidth: 0
Flags: W
HStem: 710 16
VStem: 96 70<3.5 6> 102 85<-41 -22>
AnchorPoint: "top" 314 746 basechar 0
AnchorPoint: "bottom" 344 33 basechar 0
LayerCount: 2
Fore
SplineSet
96 2 m 256
 96 -6 102 -28 102 -38 c 256
 102 -44 142 -62 150 -62 c 256
 161 -62 187 -37 187 -26 c 256
 187 -18 189 -16 179 -8 c 257
 171 -3 166 2 166 5 c 256
 166 8 167 14 173 24 c 257
 218 107 279 200 330 274 c 257
 364 235 454 101 464 85 c 256
 491 42 508 22 526 22 c 256
 554 22 563 51 563 74 c 256
 563 92 560 104 552 112 c 256
 531 134 536 118 485 174 c 256
 462 200 418 273 408 286 c 256
 405 291 404 291 402 293 c 256
 373 330 374 328 366 336 c 257
 369 342 382 367 390 381 c 256
 401 403 527 644 530 646 c 256
 541 653 554 664 554 690 c 256
 554 696 554 701 554 704 c 256
 554 714 546 726 533 726 c 256
 514 726 501 709 485 683 c 256
 467 654 451 632 443 621 c 257
 414 571 320 392 318 390 c 257
 250 467 116 725 58 725 c 256
 48 725 38 710 30 699 c 257
 24 693 21 688 21 682 c 256
 21 664 42 653 56 637 c 256
 88 602 113 575 150 514 c 256
 187 455 213 433 250 374 c 257
 260 356 269 344 277 333 c 257
 269 314 251 279 237 262 c 257
 184 185 168 159 133 85 c 257
 115 50 116 50 102 24 c 256
 97 16 96 10 96 2 c 256
EndSplineSet
PickledDataWithLists: "(dp0
Vcom.fontlab.hintData
p1
(dp2
Vhhints
p3
(lp4
(dp5
Vposition
p6
I710
sVwidth
p7
I16
sasVvhints
p8
(lp9
(dp10
g6
I96
sg7
I70
sa(dp11
g6
I102
sg7
I85
sass."
EndChar

StartChar: Y
Encoding: 97 89 97
GlifName: Y_
Width: 568
VWidth: 0
Flags: W
VStem: 269 67<57 122>
AnchorPoint: "top" 291 750 basechar 0
AnchorPoint: "bottom" 304 3 basechar 0
LayerCount: 2
Fore
SplineSet
118 501 m 256
 137 466 146 438 170 408 c 256
 194 376 202 357 229 325 c 257
 242 311 254 302 271 302 c 256
 276 302 280 302 286 304 c 257
 283 283 280 275 280 253 c 256
 280 251 269 81 269 70 c 256
 269 44 274 22 282 3 c 257
 288 -10 291 -19 296 -24 c 256
 301 -29 306 -30 314 -30 c 256
 331 -30 362 -7 362 11 c 256
 362 19 357 27 349 35 c 256
 341 43 336 64 336 94 c 256
 336 150 345 213 350 258 c 256
 357 314 357 314 371 354 c 256
 376 368 378 384 381 397 c 256
 387 419 395 438 403 459 c 257
 442 544 453 603 488 664 c 256
 499 683 512 699 522 710 c 257
 533 721 539 732 539 742 c 256
 539 752 530 758 512 760 c 257
 496 760 478 750 459 731 c 256
 432 704 427 683 408 640 c 257
 390 602 368 536 347 486 c 256
 328 440 313 406 299 360 c 257
 297 368 285 384 272 397 c 257
 259 408 247 422 237 440 c 256
 205 499 204 499 178 547 c 257
 164 576 139 615 131 634 c 256
 123 655 107 682 101 690 c 257
 93 703 90 707 88 712 c 256
 86 718 82 722 66 722 c 256
 42 722 30 712 30 691 c 256
 30 653 58 625 88 566 c 256
 107 529 113 509 118 501 c 256
EndSplineSet
PickledDataWithLists: "(dp0
Vcom.fontlab.hintData
p1
(dp2
Vvhints
p3
(lp4
(dp5
Vposition
p6
I269
sVwidth
p7
I67
sass."
EndChar

StartChar: Z
Encoding: 102 90 102
GlifName: Z_
Width: 628
VWidth: 0
Flags: W
HStem: 0 66<193.5 233> 637 67<197 272.5> 710 16
AnchorPoint: "top" 309 748 basechar 0
AnchorPoint: "bottom" 336 33 basechar 0
LayerCount: 2
Fore
SplineSet
49 47 m 256
 49 29 72 8 90 5 c 256
 100 3 125 2 166 0 c 257
 300 0 429 6 557 14 c 257
 576 16 611 29 611 53 c 256
 611 67 598 76 558 81 c 256
 544 83 526 88 513 88 c 256
 419 88 369 66 204 66 c 256
 183 66 161 71 148 77 c 257
 196 159 337 354 339 356 c 256
 403 444 455 511 511 601 c 257
 527 631 535 643 549 667 c 256
 555 677 556 687 556 699 c 256
 556 705 552 715 546 717 c 256
 539 719 516 726 470 726 c 256
 463 726 454 725 446 725 c 257
 376 722 384 704 234 704 c 256
 160 704 140 705 116 711 c 257
 102 713 96 719 74 719 c 256
 60 719 53 718 48 717 c 257
 42 714 30 696 30 690 c 256
 30 637 166 637 210 637 c 256
 335 637 380 656 466 661 c 257
 435 583 347 485 278 383 c 256
 244 333 218 292 188 249 c 257
 127 150 49 89 49 47 c 256
EndSplineSet
PickledDataWithLists: "(dp0
Vcom.fontlab.hintData
p1
(dp2
Vhhints
p3
(lp4
(dp5
Vposition
p6
I0
sVwidth
p7
I66
sa(dp8
g6
I637
sg7
I67
sa(dp9
g6
I710
sg7
I16
sass."
EndChar

StartChar: a
Encoding: 106 97 106
GlifName: a
Width: 426
VWidth: 0
Flags: W
HStem: -10 69<165 186.5> 184 67<208 232.5> 370 72<212.5 232 212.5 239>
VStem: 45 75<69 83 69 99.5> 304 70<36.5 105.5> 323 64<239 265>
AnchorPoint: "bottom" 216 33 basechar 0
AnchorPoint: "top" 218 484 basechar 0
LayerCount: 2
Fore
SplineSet
120 78 m 256
 120 88 135 118 149 136 c 257
 167 157 197 184 219 184 c 256
 246 184 285 165 293 146 c 257
 301 130 304 112 304 99 c 257
 272 74 230 59 189 59 c 256
 141 59 120 60 120 78 c 256
45 77 m 256
 45 59 68 8 82 0 c 256
 93 -6 130 -10 160 -10 c 256
 213 -10 272 1 310 22 c 257
 313 8 320 -5 333 -5 c 256
 346 -5 365 5 368 10 c 256
 371 15 374 31 374 42 c 256
 374 93 387 172 387 238 c 256
 387 293 384 356 342 398 c 257
 324 414 317 416 285 430 c 257
 258 440 245 442 219 442 c 256
 206 442 193 440 179 438 c 257
 110 430 74 406 40 355 c 257
 35 347 34 337 34 323 c 256
 34 301 42 294 50 294 c 256
 82 294 80 315 101 333 c 256
 130 359 161 370 219 370 c 256
 259 370 303 350 314 323 c 257
 322 309 323 284 323 246 c 256
 323 232 322 225 322 211 c 257
 304 232 271 251 237 251 c 256
 160 251 126 214 96 182 c 256
 69 153 45 122 45 77 c 256
EndSplineSet
PickledDataWithLists: "(dp0
Vcom.fontlab.hintData
p1
(dp2
Vhhints
p3
(lp4
(dp5
Vposition
p6
I-10
sVwidth
p7
I69
sa(dp8
g6
I184
sg7
I67
sa(dp9
g6
I370
sg7
I72
sasVvhints
p10
(lp11
(dp12
g6
I45
sg7
I75
sa(dp13
g6
I304
sg7
I70
sa(dp14
g6
I323
sg7
I64
sass."
Substitution2: "Single Substitution lookup 17 subtable" ordfeminine
Substitution2: "oneStoreyA subtable" uniE037
EndChar

StartChar: acute
Encoding: 110 180 110
GlifName: acute
Width: 299
VWidth: 0
Flags: W
HStem: 523 195<57 250>
VStem: 29 243<537 698>
LayerCount: 2
Fore
SplineSet
29 544 m 256
 29 530 52 523 62 523 c 256
 68 523 73 524 78 526 c 257
 116 543 272 654 272 688 c 256
 272 708 260 718 240 718 c 256
 227 718 212 713 198 702 c 257
 177 688 148 663 118 638 c 256
 29 567 29 561 29 544 c 256
EndSplineSet
PickledDataWithLists: "(dp0
Vcom.fontlab.hintData
p1
(dp2
Vhhints
p3
(lp4
(dp5
Vposition
p6
I523
sVwidth
p7
I195
sasVvhints
p8
(lp9
(dp10
g6
I29
sg7
I243
sass."
EndChar

StartChar: acutecomb
Encoding: 111 769 111
GlifName: acutecomb
Width: 0
VWidth: 0
HStem: 717 195<-316 -123>
VStem: -344 243<731 892>
AnchorPoint: "top_1" -240 704 mark 0
AnchorPoint: "top_1" -243 902 basemark 0
AnchorPoint: "top" -240 704 mark 0
LayerCount: 2
Fore
SplineSet
-344 738 m 256
 -344 724 -321 717 -311 717 c 256
 -305 717 -299 718 -294 720 c 256
 -256 737 -101 848 -101 882 c 256
 -101 902 -113 912 -133 912 c 256
 -146 912 -160 907 -174 896 c 257
 -195 882 -225 856 -255 831 c 256
 -344 760 -344 755 -344 738 c 256
EndSplineSet
PickledDataWithLists: "(dp0
Vcom.fontlab.hintData
p1
(dp2
Vhhints
p3
(lp4
(dp5
Vposition
p6
I717
sVwidth
p7
I195
sasVvhints
p8
(lp9
(dp10
g6
I-344
sg7
I243
sass."
EndChar

StartChar: ae
Encoding: 113 230 113
GlifName: ae
Width: 664
VWidth: 0
Flags: W
HStem: -10 65 -3 74<427 482.5> 160 68<394 412 394 424> 161 78 366 62 374 70<183.5 198 151.5 204.5>
VStem: 36 63<91.5 113 87.5 162.5> 547 72<290 303.5>
AnchorPoint: "top" 330 486 basechar 0
AnchorPoint: "bottom" 322 22 basechar 0
LayerCount: 2
Fore
SplineSet
128 58 m 256
 116 64 99 77 99 98 c 256
 99 128 107 129 128 142 c 256
 154 158 221 161 270 161 c 257
 270 129 270 112 254 82 c 257
 243 66 185 54 163 54 c 256
 144 54 130 57 128 58 c 256
353 234 m 257
 355 288 356 304 392 334 c 256
 421 358 429 366 466 366 c 256
 488 366 506 361 520 350 c 256
 535 337 547 307 547 300 c 256
 547 280 519 263 506 253 c 256
 497 247 475 236 459 234 c 257
 441 230 421 228 403 228 c 256
 385 228 369 232 353 234 c 257
50 34 m 257
 64 4 134 -10 177 -10 c 256
 238 -10 261 -2 279 11 c 257
 292 19 313 42 320 54 c 257
 351 20 404 -3 450 -3 c 256
 515 -3 569 24 618 66 c 256
 624 71 626 77 626 91 c 256
 626 109 613 122 598 122 c 256
 577 122 521 71 475 71 c 256
 357 71 355 126 353 161 c 257
 363 160 372 160 381 160 c 256
 467 160 534 172 592 238 c 256
 606 253 619 274 619 296 c 256
 619 315 598 429 472 429 c 256
 406 429 361 401 322 370 c 257
 316 394 267 435 242 438 c 256
 226 440 207 444 189 444 c 256
 114 444 69 400 69 374 c 256
 69 348 73 342 99 342 c 256
 119 342 131 343 142 357 c 257
 152 368 171 374 196 374 c 256
 213 374 224 372 230 371 c 257
 249 365 268 331 270 309 c 256
 273 276 274 260 274 238 c 257
 268 238 263 237 259 237 c 256
 174 237 36 218 36 107 c 256
 36 76 36 68 50 34 c 257
EndSplineSet
PickledDataWithLists: "(dp0
Vcom.fontlab.hintData
p1
(dp2
Vhhints
p3
(lp4
(dp5
Vposition
p6
I-10
sVwidth
p7
I65
sa(dp8
g6
I-3
sg7
I74
sa(dp9
g6
I160
sg7
I68
sa(dp10
g6
I161
sg7
I78
sa(dp11
g6
I366
sg7
I62
sa(dp12
g6
I374
sg7
I70
sasVvhints
p13
(lp14
(dp15
g6
I36
sg7
I63
sa(dp16
g6
I547
sg7
I72
sass."
EndChar

StartChar: ampersand
Encoding: 116 38 116
GlifName: ampersand
Width: 502
VWidth: 0
Flags: W
HStem: 29 74 658 69
VStem: 34 64<200 213 182 236> 99 66<567 579 567 617> 275 66<535 569.5 532 571> 381 85
LayerCount: 2
Fore
SplineSet
98 198 m 256
 98 228 128 258 166 285 c 257
 196 247 242 194 266 173 c 257
 261 163 253 155 240 139 c 257
 226 120 209 102 187 102 c 256
 156 102 98 166 98 198 c 256
189 411 m 257
 166 469 165 566 165 568 c 256
 165 590 170 658 200 658 c 256
 226 658 239 650 253 626 c 257
 263 610 275 584 275 558 c 256
 275 512 235 457 189 411 c 257
66 118 m 257
 92 88 125 51 154 37 c 257
 165 31 178 29 189 29 c 256
 238 29 291 81 317 120 c 257
 323 114 339 99 347 91 c 256
 366 72 382 58 408 45 c 257
 445 23 464 11 493 11 c 256
 506 11 512 52 512 62 c 256
 512 72 502 79 488 85 c 257
 466 93 448 96 416 122 c 256
 386 146 374 161 360 179 c 257
 386 233 409 273 422 310 c 257
 427 320 441 349 446 354 c 256
 452 360 466 384 466 395 c 256
 466 409 429 421 410 421 c 256
 396 421 383 412 381 406 c 257
 380 404 344 293 307 230 c 257
 294 240 284 258 274 266 c 256
 264 274 264 274 219 333 c 257
 233 352 281 405 307 448 c 256
 325 477 341 509 341 555 c 256
 341 584 332 619 322 638 c 257
 293 697 270 726 200 726 c 256
 115 726 99 652 99 582 c 256
 99 520 106 408 133 354 c 257
 63 288 34 259 34 213 c 256
 34 187 34 158 66 118 c 257
EndSplineSet
PickledDataWithLists: "(dp0
Vcom.fontlab.hintData
p1
(dp2
Vhhints
p3
(lp4
(dp5
Vposition
p6
I29
sVwidth
p7
I74
sa(dp8
g6
I658
sg7
I69
sasVvhints
p9
(lp10
(dp11
g6
I34
sg7
I64
sa(dp12
g6
I99
sg7
I66
sa(dp13
g6
I275
sg7
I66
sa(dp14
g6
I381
sg7
I85
sass."
EndChar

StartChar: aogonek
Encoding: 117 261 117
GlifName: aogonek
Width: 422
VWidth: 0
Flags: W
HStem: -251 66 -58 63<144.5 168.5 139.5 201> -28 16 -18 17 168 67<245.5 256> 369 70
VStem: 36 66<63.5 76.5> 266 62<-122.5 -94.5>
AnchorPoint: "top" 216 468 basechar 0
AnchorPoint: "bottom" 216 -175 basechar 0
LayerCount: 2
Fore
SplineSet
102 74 m 256
 102 124 183 168 243 168 c 256
 269 168 290 160 312 149 c 257
 313 149 313 148 314 148 c 257
 316 132 320 95 321 87 c 257
 304 83 290 63 272 53 c 256
 254 43 237 32 218 24 c 256
 202 17 179 5 158 5 c 256
 121 5 102 46 102 74 c 256
50 22 m 256
 79 -35 113 -58 176 -58 c 256
 226 -58 248 -41 286 -8 c 257
 271 -48 266 -74 266 -115 c 256
 266 -132 272 -155 277 -170 c 256
 295 -224 352 -251 406 -251 c 256
 436 -251 464 -239 464 -210 c 256
 464 -195 456 -180 442 -178 c 257
 439 -178 l 258
 429 -178 420 -184 411 -186 c 257
 362 -186 328 -146 328 -99 c 256
 328 -69 341 -45 347 -19 c 257
 350 -12 l 257
 357 -15 363 -18 369 -18 c 256
 374 -18 396 -16 396 16 c 256
 396 33 391 52 389 66 c 257
 379 116 381 142 374 198 c 257
 368 263 356 339 330 385 c 257
 312 420 277 438 231 438 c 256
 213 438 195 436 175 430 c 257
 146 424 126 402 110 382 c 256
 100 369 84 351 84 332 c 256
 84 310 105 300 116 300 c 256
 145 300 151 345 177 358 c 256
 193 366 211 369 230 369 c 256
 271 369 284 342 290 308 c 256
 294 283 299 253 303 224 c 257
 288 232 269 235 250 235 c 256
 241 235 231 236 222 234 c 257
 174 228 140 213 110 189 c 256
 80 164 48 139 38 94 c 256
 36 87 36 80 36 73 c 256
 36 54 43 37 50 22 c 256
EndSplineSet
PickledDataWithLists: "(dp0
Vcom.fontlab.hintData
p1
(dp2
Vhhints
p3
(lp4
(dp5
Vposition
p6
I-251
sVwidth
p7
I66
sa(dp8
g6
I-58
sg7
I63
sa(dp9
g6
I-28
sg7
I16
sa(dp10
g6
I-18
sg7
I17
sa(dp11
g6
I168
sg7
I67
sa(dp12
g6
I369
sg7
I70
sasVvhints
p13
(lp14
(dp15
g6
I36
sg7
I66
sa(dp16
g6
I266
sg7
I62
sass."
Substitution2: "oneStoreyA subtable" uniE041
EndChar

StartChar: aring
Encoding: 118 229 118
GlifName: aring
Width: 426
VWidth: 0
Flags: W
HStem: -27 72<133 153.5> 138 64<193.5 197 147 216> 382 90<181 225.5> 598 60<194.5 197.5 172 209.5>
VStem: 44 74<63.5 99> 87 63<523 537.5 523 547> 267 67<536.5 552 533.5 556.5> 289 65
AnchorPoint: "top" 211 692 basechar 0
AnchorPoint: "bottom" 203 17 basechar 0
LayerCount: 2
Fore
SplineSet
146 45 m 256
 120 45 118 73 118 85 c 256
 118 113 133 123 143 126 c 257
 149 129 159 131 165 132 c 257
 176 137 188 138 199 138 c 256
 233 138 278 112 291 98 c 256
 293 96 295 94 298 85 c 257
 253 67 195 45 146 45 c 256
156 501 m 257
 154 506 150 518 150 528 c 256
 150 547 161 561 175 583 c 257
 181 594 192 598 197 598 c 256
 222 598 267 571 267 542 c 256
 267 531 259 517 246 506 c 256
 226 487 224 491 204 475 c 256
 200 472 196 472 191 472 c 256
 171 472 158 479 156 501 c 257
50 34 m 256
 54 21 56 8 62 2 c 256
 68 -4 78 -9 91 -16 c 257
 109 -23 123 -27 136 -27 c 256
 171 -27 285 -1 312 30 c 257
 313 27 319 11 329 11 c 256
 352 11 363 19 365 22 c 256
 370 28 370 49 370 60 c 256
 370 67 366 82 363 92 c 256
 361 101 356 146 354 225 c 256
 352 305 338 361 329 374 c 257
 309 400 313 396 291 420 c 257
 280 434 269 439 258 445 c 257
 274 455 286 465 293 474 c 256
 300 483 309 496 319 506 c 256
 329 516 334 527 334 540 c 256
 334 564 315 599 298 616 c 256
 279 635 212 658 183 658 c 256
 161 658 130 636 111 614 c 257
 90 587 87 564 87 530 c 256
 87 477 104 455 118 441 c 256
 122 436 130 427 136 425 c 257
 125 416 111 408 104 402 c 256
 96 395 83 389 70 373 c 256
 57 357 51 345 51 335 c 256
 51 309 57 297 70 297 c 256
 80 297 94 306 116 328 c 257
 143 358 178 376 217 382 c 257
 234 382 241 381 253 366 c 257
 264 348 276 326 278 310 c 256
 280 291 284 272 286 234 c 257
 286 227 289 222 289 218 c 256
 289 195 289 189 291 177 c 257
 283 182 269 188 262 190 c 256
 255 193 233 197 197 202 c 257
 194 203 189 202 184 202 c 256
 174 202 163 202 154 202 c 256
 140 202 123 196 104 184 c 256
 44 146 44 72 44 70 c 256
 44 57 46 44 50 34 c 256
EndSplineSet
PickledDataWithLists: "(dp0
Vcom.fontlab.hintData
p1
(dp2
Vhhints
p3
(lp4
(dp5
Vposition
p6
I-27
sVwidth
p7
I72
sa(dp8
g6
I138
sg7
I64
sa(dp9
g6
I382
sg7
I90
sa(dp10
g6
I598
sg7
I60
sasVvhints
p11
(lp12
(dp13
g6
I44
sg7
I74
sa(dp14
g6
I87
sg7
I63
sa(dp15
g6
I267
sg7
I67
sa(dp16
g6
I289
sg7
I65
sass."
Substitution2: "oneStoreyA subtable" uniE03E
EndChar

StartChar: asciicircum
Encoding: 119 94 119
GlifName: asciicircum
Width: 376
VWidth: 0
Flags: W
HStem: 726 16
VStem: 14 85 179 67<714 714 714 718>
LayerCount: 2
Fore
SplineSet
14 419 m 256
 14 392 29 381 56 381 c 256
 69 381 90 385 93 390 c 256
 96 395 97 408 99 416 c 257
 115 491 128 511 190 600 c 257
 198 610 201 617 206 622 c 257
 224 584 227 569 248 518 c 257
 262 480 269 464 277 445 c 257
 279 442 288 432 301 411 c 257
 309 401 313 393 318 390 c 256
 323 387 331 387 342 387 c 256
 363 387 370 397 370 413 c 256
 370 432 363 440 350 459 c 257
 342 469 333 481 323 499 c 257
 315 511 292 582 288 597 c 256
 278 636 246 714 246 714 c 257
 240 728 238 742 222 742 c 256
 208 742 179 727 179 709 c 256
 179 704 171 693 158 674 c 257
 124 628 136 645 104 597 c 256
 72 551 81 552 54 509 c 256
 38 483 14 438 14 419 c 256
EndSplineSet
PickledDataWithLists: "(dp0
Vcom.fontlab.hintData
p1
(dp2
Vhhints
p3
(lp4
(dp5
Vposition
p6
I726
sVwidth
p7
I16
sasVvhints
p8
(lp9
(dp10
g6
I14
sg7
I85
sa(dp11
g6
I179
sg7
I67
sass."
EndChar

StartChar: asciitilde
Encoding: 120 126 120
GlifName: asciitilde
Width: 392
VWidth: 0
Flags: W
HStem: 131 69<269.5 286> 253 75<138 147.5 126 156>
LayerCount: 2
Fore
SplineSet
54 181 m 256
 90 181 127 253 149 253 c 256
 163 253 225 131 274 131 c 256
 298 131 314 138 333 162 c 256
 354 188 368 210 368 221 c 256
 368 246 352 256 342 256 c 256
 312 256 301 200 283 200 c 256
 256 200 210 283 184 309 c 256
 170 323 154 328 141 328 c 256
 111 328 26 247 26 222 c 256
 26 187 43 181 54 181 c 256
EndSplineSet
PickledDataWithLists: "(dp0
Vcom.fontlab.hintData
p1
(dp2
Vhhints
p3
(lp4
(dp5
Vposition
p6
I131
sVwidth
p7
I69
sa(dp8
g6
I253
sg7
I75
sass."
EndChar

StartChar: asterisk
Encoding: 121 42 121
GlifName: asterisk
Width: 368
VWidth: 0
Flags: W
HStem: 430 17 512 70 640 58 733 16
VStem: 35 77 171 72<642 688 642 688> 178 74 197 77
LayerCount: 2
Fore
SplineSet
35 469 m 256
 35 443 45 430 64 430 c 256
 91 430 99 448 112 478 c 257
 120 500 152 532 166 546 c 257
 169 544 176 541 178 539 c 257
 178 496 l 258
 178 456 183 430 197 384 c 256
 205 357 216 352 238 352 c 256
 259 352 274 359 274 370 c 256
 274 396 260 372 254 466 c 257
 252 487 251 506 251 528 c 257
 310 521 316 512 342 512 c 256
 352 512 362 515 362 525 c 256
 362 551 353 563 302 582 c 256
 294 585 274 595 248 600 c 257
 248 606 246 606 246 611 c 257
 312 649 357 635 357 656 c 256
 357 662 354 670 346 678 c 257
 333 694 317 698 301 698 c 256
 288 698 261 685 243 677 c 257
 243 699 243 749 211 749 c 256
 192 749 179 739 173 696 c 257
 171 687 171 676 171 666 c 256
 171 656 171 647 171 642 c 257
 141 647 105 678 56 678 c 256
 37 678 16 663 16 645 c 256
 16 627 32 608 66 598 c 256
 77 595 96 589 104 586 c 257
 72 560 35 511 35 469 c 256
EndSplineSet
PickledDataWithLists: "(dp0
Vcom.fontlab.hintData
p1
(dp2
Vhhints
p3
(lp4
(dp5
Vposition
p6
I430
sVwidth
p7
I17
sa(dp8
g6
I512
sg7
I70
sa(dp9
g6
I640
sg7
I58
sa(dp10
g6
I733
sg7
I16
sasVvhints
p11
(lp12
(dp13
g6
I35
sg7
I77
sa(dp14
g6
I171
sg7
I72
sa(dp15
g6
I178
sg7
I74
sa(dp16
g6
I197
sg7
I77
sass."
EndChar

StartChar: at
Encoding: 122 64 122
GlifName: at
Width: 744
VWidth: 0
Flags: W
HStem: -128 75<302 353 293 374> 88 70<514 538 514 548> 160 74<310 322> 446 70 642 61
VStem: 27 66<170 267.5 170 292.5> 229 69<250 268.5> 674 58
LayerCount: 2
Fore
SplineSet
123 -53 m 256
 169 -104 265 -128 339 -128 c 256
 409 -128 477 -77 530 -35 c 256
 586 11 600 32 600 38 c 256
 600 43 598 45 590 45 c 256
 574 45 537 40 462 -16 c 257
 432 -40 380 -53 326 -53 c 256
 260 -53 205 -40 165 0 c 256
 98 67 93 102 93 238 c 256
 93 297 103 381 141 480 c 256
 179 578 233 642 342 642 c 256
 382 642 468 619 494 608 c 256
 523 595 538 592 581 560 c 256
 616 533 648 474 662 429 c 257
 667 415 674 387 674 344 c 256
 674 267 634 211 581 171 c 256
 573 165 546 158 530 158 c 256
 498 158 477 170 461 192 c 257
 459 194 456 204 456 222 c 256
 456 249 485 269 485 290 c 256
 485 314 476 334 454 334 c 256
 440 334 424 325 406 299 c 256
 390 275 382 269 374 261 c 256
 369 256 328 234 318 234 c 256
 302 234 298 241 298 259 c 256
 298 318 325 345 336 371 c 257
 357 414 392 446 410 446 c 256
 424 446 432 418 467 418 c 256
 493 418 494 433 494 459 c 256
 494 509 452 517 410 517 c 256
 368 517 333 494 291 430 c 256
 230 334 229 307 229 230 c 256
 229 196 253 160 298 160 c 256
 346 160 354 168 392 194 c 257
 406 109 493 88 520 88 c 256
 576 88 605 111 648 149 c 256
 712 207 731 251 731 334 c 256
 731 444 687 555 597 622 c 257
 531 676 411 702 328 702 c 256
 261 702 224 684 176 650 c 256
 141 626 88 532 77 490 c 257
 59 431 27 351 27 234 c 256
 27 53 87 -13 123 -53 c 256
EndSplineSet
PickledDataWithLists: "(dp0
Vcom.fontlab.hintData
p1
(dp2
Vhhints
p3
(lp4
(dp5
Vposition
p6
I-128
sVwidth
p7
I75
sa(dp8
g6
I88
sg7
I70
sa(dp9
g6
I160
sg7
I74
sa(dp10
g6
I446
sg7
I70
sa(dp11
g6
I642
sg7
I61
sasVvhints
p12
(lp13
(dp14
g6
I27
sg7
I66
sa(dp15
g6
I229
sg7
I69
sa(dp16
g6
I674
sg7
I58
sass."
EndChar

StartChar: b
Encoding: 124 98 124
GlifName: b
Width: 480
VWidth: 0
Flags: W
HStem: -18 70 354 77 710 16
VStem: 30 74<670 704.5> 40 69<467 547 547 584.5 467 592.5> 382 66<249 284.5>
AnchorPoint: "top" 248 468 basechar 0
AnchorPoint: "bottom" 240 33 basechar 0
LayerCount: 2
Fore
SplineSet
150 58 m 257
 147 68 142 91 142 104 c 256
 142 176 154 226 206 280 c 256
 214 288 222 300 238 314 c 256
 260 335 293 354 330 354 c 256
 340 354 347 353 352 350 c 256
 378 332 382 318 382 251 c 256
 382 177 327 107 261 77 c 256
 237 66 218 53 192 53 c 256
 170 53 156 55 150 58 c 257
66 126 m 256
 76 43 81 -2 86 -8 c 256
 91 -14 115 -18 160 -18 c 256
 226 -18 243 -16 296 14 c 256
 374 60 405 105 442 189 c 257
 447 203 448 229 448 269 c 256
 448 304 448 332 442 346 c 256
 424 386 377 430 331 430 c 256
 318 430 301 427 282 421 c 256
 237 407 214 384 171 339 c 256
 131 297 130 294 114 272 c 257
 110 306 109 397 109 467 c 256
 109 502 109 532 109 547 c 256
 109 622 104 666 104 674 c 256
 104 696 92 726 66 726 c 256
 51 726 30 711 30 698 c 256
 30 695 30 692 32 690 c 257
 38 677 40 631 40 554 c 256
 40 229 53 227 66 126 c 256
EndSplineSet
PickledDataWithLists: "(dp0
Vcom.fontlab.hintData
p1
(dp2
Vhhints
p3
(lp4
(dp5
Vposition
p6
I-18
sVwidth
p7
I70
sa(dp8
g6
I354
sg7
I77
sa(dp9
g6
I710
sg7
I16
sasVvhints
p10
(lp11
(dp12
g6
I30
sg7
I74
sa(dp13
g6
I40
sg7
I69
sa(dp14
g6
I382
sg7
I66
sass."
EndChar

StartChar: backslash
Encoding: 125 92 125
GlifName: backslash
Width: 492
VWidth: 0
Flags: W
LayerCount: 2
Fore
SplineSet
122 482 m 257
 149 423 177 366 198 339 c 257
 214 317 275 235 288 213 c 256
 310 176 338 122 397 74 c 256
 419 56 421 46 429 38 c 256
 437 30 439 29 461 29 c 256
 469 29 483 41 483 54 c 256
 483 67 459 95 414 138 c 256
 374 176 354 219 328 259 c 256
 302 299 275 339 248 382 c 257
 198 468 194 480 154 578 c 256
 140 612 125 638 115 659 c 257
 105 673 71 722 54 722 c 256
 39 722 19 697 19 682 c 256
 19 676 21 672 26 667 c 257
 36 656 54 623 80 573 c 256
 106 523 117 492 122 482 c 257
EndSplineSet
EndChar

StartChar: bar
Encoding: 126 124 126
GlifName: bar
Width: 176
VWidth: 0
Flags: W
HStem: -230 17
VStem: 43 66<332.5 386.5 283 405.5> 50 85 50 59
LayerCount: 2
Fore
SplineSet
50 168 m 256
 53 62 62 -114 85 -197 c 256
 92 -222 109 -230 122 -230 c 256
 137 -230 163 -204 163 -189 c 256
 163 -183 158 -170 150 -144 c 257
 140 -117 138 -83 134 -46 c 256
 109 193 109 222 109 344 c 256
 109 429 110 477 112 488 c 257
 116 526 134 578 134 598 c 256
 134 638 105 696 90 696 c 256
 79 696 56 691 54 682 c 257
 48 660 43 438 43 373 c 256
 43 292 46 248 50 168 c 256
EndSplineSet
PickledDataWithLists: "(dp0
Vcom.fontlab.hintData
p1
(dp2
Vhhints
p3
(lp4
(dp5
Vposition
p6
I-230
sVwidth
p7
I17
sasVvhints
p8
(lp9
(dp10
g6
I43
sg7
I66
sa(dp11
g6
I50
sg7
I85
sa(dp12
g6
I50
sg7
I59
sass."
EndChar

StartChar: braceleft
Encoding: 127 123 127
GlifName: braceleft
Width: 366
VWidth: 0
Flags: W
HStem: -206 67<243 267.5 238.5 277> 630 79<265.5 275>
VStem: 98 66 152 62<-59 -26> 174 64<119 150>
LayerCount: 2
Fore
SplineSet
16 266 m 256
 16 252 24 239 50 227 c 257
 60 222 89 212 118 198 c 256
 168 173 174 159 174 141 c 256
 174 97 152 12 152 -64 c 256
 152 -114 164 -153 186 -175 c 256
 199 -188 226 -206 260 -206 c 256
 294 -206 346 -168 346 -146 c 256
 346 -140 340 -138 330 -130 c 257
 322 -125 313 -123 302 -123 c 256
 280 -123 277 -139 258 -139 c 256
 219 -139 214 -72 214 -46 c 256
 214 36 238 83 238 138 c 256
 238 228 207 233 154 266 c 257
 187 282 221 313 221 348 c 256
 221 374 163 439 163 483 c 256
 163 514 200 571 221 597 c 257
 227 603 261 630 270 630 c 256
 280 630 296 608 325 608 c 256
 343 608 346 617 346 637 c 256
 346 667 297 709 266 709 c 256
 214 709 158 631 131 590 c 256
 117 568 98 524 98 486 c 256
 98 462 109 423 117 408 c 257
 127 387 148 364 150 346 c 257
 144 336 130 325 110 320 c 256
 89 315 16 293 16 266 c 256
EndSplineSet
PickledDataWithLists: "(dp0
Vcom.fontlab.hintData
p1
(dp2
Vhhints
p3
(lp4
(dp5
Vposition
p6
I-206
sVwidth
p7
I67
sa(dp8
g6
I630
sg7
I79
sasVvhints
p9
(lp10
(dp11
g6
I98
sg7
I66
sa(dp12
g6
I152
sg7
I62
sa(dp13
g6
I174
sg7
I64
sass."
EndChar

StartChar: braceright
Encoding: 128 125 128
GlifName: braceright
Width: 380
VWidth: 0
Flags: W
HStem: -234 72<109.5 137> 633 65<83 103.5>
VStem: 173 62<323.5 336.5> 197 66<40.5 81 39 91> 206 62 226 64<-108 -69.5>
LayerCount: 2
Fore
SplineSet
45 -197 m 256
 45 -234 109 -234 110 -234 c 256
 164 -234 290 -192 290 -86 c 256
 290 -20 263 14 263 64 c 256
 263 98 318 174 341 192 c 256
 356 204 374 232 374 248 c 256
 374 259 360 266 333 266 c 256
 323 266 315 264 304 264 c 256
 280 264 259 274 243 293 c 257
 237 301 235 314 235 333 c 256
 235 395 267 424 267 518 c 256
 267 552 253 623 222 646 c 256
 188 671 145 698 88 698 c 256
 78 698 64 693 48 686 c 256
 20 673 18 668 18 650 c 256
 18 630 29 614 50 614 c 256
 68 614 61 633 98 633 c 256
 109 633 133 624 146 618 c 257
 188 597 206 577 206 518 c 256
 206 442 173 371 173 302 c 256
 173 276 187 253 214 226 c 256
 232 208 253 209 265 205 c 257
 241 174 197 118 197 64 c 256
 197 17 226 -45 226 -94 c 256
 226 -122 156 -162 120 -162 c 256
 86 -162 87 -154 75 -154 c 256
 55 -154 45 -180 45 -197 c 256
EndSplineSet
PickledDataWithLists: "(dp0
Vcom.fontlab.hintData
p1
(dp2
Vhhints
p3
(lp4
(dp5
Vposition
p6
I-234
sVwidth
p7
I72
sa(dp8
g6
I633
sg7
I65
sasVvhints
p9
(lp10
(dp11
g6
I173
sg7
I62
sa(dp12
g6
I197
sg7
I66
sa(dp13
g6
I206
sg7
I62
sa(dp14
g6
I226
sg7
I64
sass."
EndChar

StartChar: bracketleft
Encoding: 129 91 129
GlifName: bracketleft
Width: 364
VWidth: 0
Flags: W
HStem: -259 82 677 62<196 227 227 268> 730 16
VStem: 60 68<654 663 654 665> 72 57 80 63<-88.5 -20.5 -88.5 -7.5>
LayerCount: 2
Fore
SplineSet
62 -218 m 256
 62 -233 90 -259 104 -259 c 256
 112 -259 128 -254 154 -252 c 256
 191 -249 233 -247 275 -242 c 256
 299 -239 314 -233 322 -230 c 256
 330 -227 333 -218 333 -210 c 256
 333 -205 331 -198 328 -190 c 257
 326 -184 323 -183 317 -181 c 257
 306 -178 258 -178 237 -178 c 256
 202 -178 164 -182 140 -184 c 257
 142 -154 143 -110 143 -67 c 256
 143 26 139 272 134 322 c 256
 130 360 129 407 129 454 c 256
 129 512 130 571 130 613 c 256
 130 630 128 648 128 660 c 256
 128 666 128 672 130 674 c 257
 131 677 145 677 168 677 c 258
 227 677 l 258
 309 677 334 682 334 706 c 256
 334 736 313 739 224 739 c 256
 168 739 133 739 115 744 c 257
 109 746 103 746 98 746 c 256
 92 746 87 745 83 741 c 256
 75 733 60 688 60 642 c 256
 60 628 61 616 61 603 c 256
 61 552 69 352 72 307 c 256
 77 246 80 38 80 -53 c 256
 80 -131 75 -186 64 -213 c 257
 62 -215 62 -216 62 -218 c 256
EndSplineSet
PickledDataWithLists: "(dp0
Vcom.fontlab.hintData
p1
(dp2
Vhhints
p3
(lp4
(dp5
Vposition
p6
I-259
sVwidth
p7
I82
sa(dp8
g6
I677
sg7
I62
sa(dp9
g6
I730
sg7
I16
sasVvhints
p10
(lp11
(dp12
g6
I60
sg7
I68
sa(dp13
g6
I72
sg7
I57
sa(dp14
g6
I80
sg7
I63
sass."
EndChar

StartChar: bracketright
Encoding: 130 93 130
GlifName: bracketright
Width: 401
VWidth: 0
Flags: W
HStem: -260 66<138 208.5 110 256 110 294.5> 646 70 654 68<229 311 268 311> 654 62
VStem: 260 65 267 78 268 63<632 654 602 667>
LayerCount: 2
Fore
SplineSet
26 -212 m 256
 26 -223 33 -228 46 -239 c 257
 60 -252 93 -260 138 -260 c 258
 256 -260 l 258
 333 -260 346 -251 346 -207 c 256
 346 -193 341 -185 338 -174 c 257
 332 -147 330 -120 330 -34 c 256
 330 51 325 210 325 269 c 256
 325 423 331 630 331 634 c 256
 331 700 329 722 293 722 c 256
 291 722 217 715 216 715 c 256
 202 715 119 715 101 717 c 257
 77 719 64 731 51 731 c 256
 35 731 32 724 32 685 c 256
 32 684 39 646 121 646 c 256
 153 646 189 652 229 654 c 257
 268 654 l 257
 268 602 l 257
 266 544 262 499 262 446 c 256
 262 361 260 193 260 116 c 257
 265 -26 266 -19 266 -134 c 256
 266 -172 267 -180 267 -193 c 257
 262 -195 222 -194 195 -194 c 256
 25 -194 64 -185 46 -185 c 256
 36 -185 26 -196 26 -212 c 256
EndSplineSet
PickledDataWithLists: "(dp0
Vcom.fontlab.hintData
p1
(dp2
Vhhints
p3
(lp4
(dp5
Vposition
p6
I-260
sVwidth
p7
I66
sa(dp8
g6
I646
sg7
I70
sa(dp9
g6
I654
sg7
I68
sa(dp10
g6
I654
sg7
I62
sasVvhints
p11
(lp12
(dp13
g6
I260
sg7
I65
sa(dp14
g6
I267
sg7
I78
sa(dp15
g6
I268
sg7
I63
sass."
EndChar

StartChar: brevecomb
Encoding: 131 774 131
GlifName: brevecomb
Width: 0
VWidth: 0
HStem: 742 65<-245.5 -196>
VStem: -356 66
AnchorPoint: "top_1" -216 704 mark 0
AnchorPoint: "top_1" -219 926 basemark 0
AnchorPoint: "top" -216 704 mark 0
LayerCount: 2
Fore
SplineSet
-321 781 m 256
 -297 754 -272 742 -219 742 c 256
 -173 742 -138 751 -112 771 c 256
 -81 794 -50 832 -50 861 c 256
 -50 883 -62 907 -78 907 c 256
 -96 907 -98 897 -115 867 c 256
 -136 830 -173 807 -218 807 c 256
 -303 807 -286 902 -326 902 c 256
 -339 902 -356 892 -356 874 c 256
 -356 829 -343 806 -321 781 c 256
EndSplineSet
PickledDataWithLists: "(dp0
Vcom.fontlab.hintData
p1
(dp2
Vhhints
p3
(lp4
(dp5
Vposition
p6
I742
sVwidth
p7
I65
sasVvhints
p8
(lp9
(dp10
g6
I-356
sg7
I66
sass."
EndChar

StartChar: bullet
Encoding: 132 8226 132
GlifName: bullet
Width: 332
VWidth: 0
Flags: W
HStem: 62 294
VStem: 24 293<186 233.5 185 244.5>
LayerCount: 2
Fore
SplineSet
24 226 m 256
 24 146 47 62 141 62 c 256
 167 62 192 69 216 83 c 257
 283 120 317 162 317 208 c 256
 317 259 286 298 248 328 c 256
 227 344 189 357 131 357 c 256
 102 357 77 347 69 336 c 257
 47 308 24 263 24 226 c 256
EndSplineSet
PickledDataWithLists: "(dp0
Vcom.fontlab.hintData
p1
(dp2
Vhhints
p3
(lp4
(dp5
Vposition
p6
I62
sVwidth
p7
I294
sasVvhints
p8
(lp9
(dp10
g6
I24
sg7
I293
sass."
EndChar

StartChar: c
Encoding: 133 99 133
GlifName: c
Width: 403
VWidth: 0
Flags: W
HStem: -13 75<184 234.5> 366 70
VStem: 40 72<168 189.5> 258 66
AnchorPoint: "bottom" 216 33 basechar 0
AnchorPoint: "top" 203 495 basechar 0
LayerCount: 2
Fore
SplineSet
80 64 m 256
 109 19 146 -13 205 -13 c 256
 264 -13 304 16 333 34 c 257
 347 42 363 54 374 67 c 257
 388 81 392 93 392 101 c 256
 392 112 382 118 371 118 c 256
 333 118 285 62 211 62 c 256
 157 62 112 143 112 192 c 256
 112 221 116 259 126 302 c 257
 136 340 169 366 198 366 c 256
 221 366 258 349 258 322 c 256
 258 316 248 309 248 301 c 256
 248 293 253 288 261 288 c 256
 262 288 323 295 323 341 c 256
 323 367 309 376 280 405 c 256
 267 418 235 437 205 437 c 256
 167 437 124 427 102 403 c 256
 76 376 50 318 42 216 c 257
 42 208 40 192 40 187 c 256
 40 149 54 104 80 64 c 256
EndSplineSet
PickledDataWithLists: "(dp0
Vcom.fontlab.hintData
p1
(dp2
Vhhints
p3
(lp4
(dp5
Vposition
p6
I-13
sVwidth
p7
I75
sa(dp8
g6
I366
sg7
I70
sasVvhints
p9
(lp10
(dp11
g6
I40
sg7
I72
sa(dp12
g6
I258
sg7
I66
sass."
EndChar

StartChar: caron
Encoding: 135 711 135
GlifName: caron
Width: 414
VWidth: 0
Flags: W
HStem: 523 195<91 219.5>
LayerCount: 2
Fore
SplineSet
146 565 m 256
 165 539 176 523 205 523 c 256
 234 523 238 532 250 547 c 256
 292 598 288 592 314 626 c 256
 325 640 346 657 346 686 c 256
 346 704 340 720 320 720 c 256
 301 720 291 704 265 670 c 256
 239 637 225 621 206 598 c 257
 200 608 181 623 143 682 c 257
 130 701 118 718 102 718 c 256
 80 718 69 705 69 683 c 256
 69 666 116 605 146 565 c 256
EndSplineSet
PickledDataWithLists: "(dp0
Vcom.fontlab.hintData
p1
(dp2
Vhhints
p3
(lp4
(dp5
Vposition
p6
I523
sVwidth
p7
I195
sass."
EndChar

StartChar: caroncomb
Encoding: 136 780 136
GlifName: caroncomb
Width: 0
VWidth: 0
HStem: 739 195
AnchorPoint: "top_1" -249 704 mark 0
AnchorPoint: "top_1" -251 950 basemark 0
AnchorPoint: "top" -249 704 mark 0
LayerCount: 2
Fore
SplineSet
-310 771 m 256
 -291 745 -280 729 -251 729 c 256
 -222 729 -218 738 -206 753 c 256
 -164 804 -168 798 -142 832 c 256
 -131 846 -110 863 -110 892 c 256
 -110 910 -116 926 -136 926 c 256
 -155 926 -165 910 -191 876 c 256
 -217 843 -231 827 -250 804 c 257
 -256 814 -275 829 -313 888 c 256
 -326 907 -338 924 -354 924 c 256
 -376 924 -387 911 -387 889 c 256
 -387 872 -340 811 -310 771 c 256
EndSplineSet
PickledDataWithLists: "(dp0
Vcom.fontlab.hintData
p1
(dp2
Vhhints
p3
(lp4
(dp5
Vposition
p6
I739
sVwidth
p7
I195
sass."
EndChar

StartChar: ccedilla
Encoding: 138 231 138
GlifName: ccedilla
Width: 441
VWidth: 0
Flags: W
HStem: -233 17 -10 70<176 197.5> 381 70
VStem: 34 70 270 72<-101.5 -79 -101.5 -79>
AnchorPoint: "top" 226 489 basechar 0
AnchorPoint: "bottom" 226 -194 basechar 0
LayerCount: 2
Fore
SplineSet
42 118 m 256
 58 70 78 30 124 4 c 257
 142 -8 166 -10 186 -10 c 256
 209 -10 228 -7 246 -5 c 257
 253 -24 270 -72 270 -86 c 256
 270 -118 234 -153 203 -159 c 257
 141 -169 135 -179 135 -183 c 256
 135 -204 148 -233 173 -233 c 256
 190 -233 227 -223 246 -217 c 256
 282 -205 312 -168 326 -146 c 256
 330 -139 342 -113 342 -90 c 256
 342 -68 340 -57 326 -15 c 256
 322 -2 319 5 317 14 c 257
 337 26 351 38 374 48 c 257
 392 57 422 87 422 107 c 256
 422 117 399 126 385 126 c 256
 377 126 372 124 366 119 c 256
 326 85 251 60 197 60 c 256
 151 60 138 77 119 116 c 256
 109 136 105 162 105 195 c 256
 105 237 131 288 153 322 c 256
 167 344 208 381 236 381 c 256
 254 381 270 359 276 343 c 257
 281 333 286 329 295 329 c 256
 317 329 330 355 330 379 c 256
 330 389 326 402 317 414 c 256
 299 438 277 450 234 450 c 256
 196 450 159 436 135 406 c 256
 119 386 102 365 88 350 c 257
 49 304 34 249 34 188 c 256
 34 152 38 129 42 118 c 256
EndSplineSet
PickledDataWithLists: "(dp0
Vcom.fontlab.hintData
p1
(dp2
Vhhints
p3
(lp4
(dp5
Vposition
p6
I-233
sVwidth
p7
I17
sa(dp8
g6
I-10
sg7
I70
sa(dp9
g6
I381
sg7
I70
sasVvhints
p10
(lp11
(dp12
g6
I34
sg7
I70
sa(dp13
g6
I270
sg7
I72
sass."
EndChar

StartChar: cedilla
Encoding: 140 184 140
GlifName: cedilla
Width: 312
VWidth: 0
Flags: W
HStem: -261 67<83 115 72 149.5>
VStem: 141 70 203 72<-131 -121>
LayerCount: 2
Fore
SplineSet
6 -214 m 256
 6 -235 59 -261 107 -261 c 256
 192 -261 275 -197 275 -141 c 256
 275 -87 268 -85 242 -42 c 256
 231 -24 217 -7 211 19 c 257
 208 34 196 42 182 42 c 256
 164 42 140 28 140 0 c 256
 140 -34 163 -57 170 -64 c 256
 186 -80 203 -114 203 -128 c 256
 203 -134 197 -146 186 -160 c 257
 167 -182 136 -194 94 -194 c 256
 50 -194 48 -181 34 -181 c 256
 21 -181 6 -200 6 -214 c 256
EndSplineSet
PickledDataWithLists: "(dp0
Vcom.fontlab.hintData
p1
(dp2
Vhhints
p3
(lp4
(dp5
Vposition
p6
I-261
sVwidth
p7
I67
sasVvhints
p8
(lp9
(dp10
g6
I141
sg7
I70
sa(dp11
g6
I203
sg7
I72
sass."
EndChar

StartChar: cedillacomb
Encoding: 141 807 141
GlifName: cedillacomb
Width: 0
VWidth: 0
HStem: -261 67<-371 -339 -382 -304.5>
VStem: -314 70 -251 72<-131 -121>
AnchorPoint: "bottom_1" -278 0 mark 0
AnchorPoint: "bottom_1" -326 -300 basemark 0
AnchorPoint: "bottom" -278 0 mark 0
LayerCount: 2
Fore
SplineSet
-448 -214 m 256
 -448 -235 -395 -261 -347 -261 c 256
 -262 -261 -179 -197 -179 -141 c 256
 -179 -87 -187 -85 -213 -42 c 256
 -224 -24 -237 -7 -243 19 c 256
 -246 34 -259 42 -273 42 c 256
 -291 42 -314 28 -314 0 c 256
 -314 -34 -292 -57 -285 -64 c 256
 -269 -80 -251 -114 -251 -128 c 256
 -251 -134 -258 -146 -269 -160 c 257
 -288 -182 -318 -194 -360 -194 c 256
 -404 -194 -407 -181 -421 -181 c 256
 -434 -181 -448 -200 -448 -214 c 256
EndSplineSet
PickledDataWithLists: "(dp0
Vcom.fontlab.hintData
p1
(dp2
Vhhints
p3
(lp4
(dp5
Vposition
p6
I-261
sVwidth
p7
I67
sasVvhints
p8
(lp9
(dp10
g6
I-314
sg7
I70
sa(dp11
g6
I-251
sg7
I72
sass."
EndChar

StartChar: cent
Encoding: 142 162 142
GlifName: cent
Width: 422
VWidth: 0
Flags: W
HStem: 13 75 418 64<178.5 201.5>
VStem: 37 72<247.5 293 247.5 296.5> 242 67<-1 13>
LayerCount: 2
Fore
SplineSet
128 170 m 256
 115 196 109 226 109 269 c 256
 109 317 120 344 130 376 c 257
 143 406 165 418 192 418 c 256
 211 418 229 417 243 411 c 257
 243 411 242 317 242 258 c 256
 242 192 242 126 240 88 c 257
 193 96 150 128 128 170 c 256
109 78 m 256
 131 56 150 43 171 35 c 257
 208 24 224 18 242 13 c 257
 242 -15 249 -139 291 -139 c 256
 304 -139 310 -129 310 -107 c 257
 310 -107 309 -61 309 -32 c 258
 309 19 l 257
 333 30 353 43 371 62 c 256
 395 88 408 103 408 109 c 256
 408 117 400 126 376 126 c 256
 334 126 336 106 307 94 c 257
 307 134 l 258
 307 161 307 232 310 342 c 257
 310 358 312 375 312 386 c 257
 318 380 328 374 338 374 c 256
 359 374 362 384 362 400 c 256
 362 416 355 419 341 437 c 257
 333 445 323 458 315 461 c 257
 315 505 323 617 323 619 c 256
 323 634 322 640 290 640 c 256
 277 640 271 639 266 634 c 256
 261 629 258 615 253 589 c 257
 245 538 245 528 245 477 c 257
 235 480 217 482 203 482 c 256
 149 482 99 469 70 419 c 256
 52 389 37 331 37 262 c 256
 37 186 55 132 109 78 c 256
EndSplineSet
PickledDataWithLists: "(dp0
Vcom.fontlab.hintData
p1
(dp2
Vhhints
p3
(lp4
(dp5
Vposition
p6
I13
sVwidth
p7
I75
sa(dp8
g6
I418
sg7
I64
sasVvhints
p9
(lp10
(dp11
g6
I37
sg7
I72
sa(dp12
g6
I242
sg7
I67
sass."
EndChar

StartChar: circumflex
Encoding: 143 710 143
GlifName: circumflex
Width: 404
VWidth: 0
Flags: W
HStem: 653 70<185 210.5>
LayerCount: 2
Fore
SplineSet
29 566 m 256
 29 552 48 538 54 538 c 256
 56 538 57 538 59 538 c 256
 76 538 171 653 199 653 c 256
 222 653 258 550 316 550 c 256
 335 550 357 559 357 581 c 256
 357 592 351 600 338 606 c 257
 326 612 298 642 280 666 c 256
 253 703 236 723 199 723 c 256
 165 723 132 690 114 675 c 257
 95 658 30 598 30 576 c 256
 30 574 29 570 29 566 c 256
EndSplineSet
PickledDataWithLists: "(dp0
Vcom.fontlab.hintData
p1
(dp2
Vhhints
p3
(lp4
(dp5
Vposition
p6
I653
sVwidth
p7
I70
sass."
EndChar

StartChar: circumflexcomb
Encoding: 144 770 144
GlifName: circumflexcomb
Width: 0
VWidth: 0
HStem: 730 17 845 70<-242 -216.5>
AnchorPoint: "top_1" -240 704 mark 0
AnchorPoint: "top_1" -243 950 basemark 0
AnchorPoint: "top" -240 704 mark 0
LayerCount: 2
Fore
SplineSet
-374 730 m 256
 -372 730 -370 730 -368 730 c 256
 -351 730 -256 845 -228 845 c 256
 -205 845 -169 742 -111 742 c 256
 -92 742 -70 751 -70 773 c 256
 -70 784 -77 792 -90 798 c 256
 -102 804 -129 834 -147 858 c 256
 -174 895 -191 915 -228 915 c 256
 -262 915 -296 882 -314 867 c 256
 -333 850 -397 790 -397 768 c 256
 -397 766 -398 762 -398 758 c 256
 -398 744 -380 730 -374 730 c 256
EndSplineSet
PickledDataWithLists: "(dp0
Vcom.fontlab.hintData
p1
(dp2
Vhhints
p3
(lp4
(dp5
Vposition
p6
I730
sVwidth
p7
I17
sa(dp8
g6
I845
sg7
I70
sass."
EndChar

StartChar: colon
Encoding: 145 58 145
GlifName: colon
Width: 155
VWidth: 0
Flags: W
HStem: -14 91<51.5 68> 341 102<58.5 112>
VStem: 34 102<380 384>
LayerCount: 2
Fore
SplineSet
34 379 m 256
 34 348 51 341 66 341 c 256
 99 341 136 362 136 398 c 256
 136 418 123 443 101 443 c 256
 90 443 66 440 58 440 c 256
 53 440 40 432 37 418 c 256
 34 404 34 389 34 379 c 256
34 3 m 256
 34 -5 43 -14 59 -14 c 256
 77 -14 91 -10 104 6 c 257
 114 16 122 16 122 26 c 256
 122 76 74 77 67 77 c 256
 36 77 22 52 22 40 c 256
 22 33 34 17 34 3 c 256
EndSplineSet
PickledDataWithLists: "(dp0
Vcom.fontlab.hintData
p1
(dp2
Vhhints
p3
(lp4
(dp5
Vposition
p6
I-14
sVwidth
p7
I91
sa(dp8
g6
I341
sg7
I102
sasVvhints
p9
(lp10
(dp11
g6
I34
sg7
I102
sass."
EndChar

StartChar: comma
Encoding: 146 44 146
GlifName: comma
Width: 145
VWidth: 0
Flags: W
VStem: 37 82 37 56<4.29497e+009 4.29497e+009>
LayerCount: 2
Fore
SplineSet
37 -155 m 256
 37 -200 43 -224 54 -224 c 256
 71 -224 90 -169 93 -155 c 256
 96 -142 99 -122 104 -96 c 256
 111 -55 118 -13 118 38 c 256
 118 68 115 86 93 86 c 256
 69 86 55 80 50 42 c 256
 42 -23 37 -90 37 -155 c 256
EndSplineSet
PickledDataWithLists: "(dp0
Vcom.fontlab.hintData
p1
(dp2
Vvhints
p3
(lp4
(dp5
Vposition
p6
I37
sVwidth
p7
I82
sa(dp8
g6
I37
sg7
I56
sass."
EndChar

StartChar: commaaccentcomb
Encoding: 147 806 147
GlifName: commaaccentcomb
Width: 0
VWidth: 0
HStem: -264 258<-263 -204.5>
VStem: -216 64<-118.5 -99.5>
AnchorPoint: "bottom_1" -214 93 mark 0
AnchorPoint: "bottom_1" -214 -300 basemark 0
AnchorPoint: "bottom" -214 93 mark 0
LayerCount: 2
Fore
SplineSet
-282 -243 m 256
 -282 -256 -270 -264 -256 -264 c 256
 -215 -264 -172 -201 -160 -166 c 256
 -157 -156 -152 -128 -152 -109 c 256
 -152 -77 -154 -59 -165 -40 c 257
 -175 -25 -195 -6 -214 -6 c 256
 -219 -6 -232 -6 -235 -8 c 256
 -257 -18 -261 -24 -261 -40 c 256
 -261 -50 -245 -52 -226 -74 c 256
 -221 -80 -216 -89 -216 -110 c 256
 -216 -144 -242 -178 -266 -200 c 256
 -279 -211 -282 -229 -282 -243 c 256
EndSplineSet
PickledDataWithLists: "(dp0
Vcom.fontlab.hintData
p1
(dp2
Vhhints
p3
(lp4
(dp5
Vposition
p6
I-264
sVwidth
p7
I258
sasVvhints
p8
(lp9
(dp10
g6
I-216
sg7
I64
sass."
EndChar

StartChar: copyright
Encoding: 148 169 148
GlifName: copyright
Width: 784
VWidth: 0
Flags: W
HStem: -109 56<344.5 390> 99 70 419 64<397.5 414> 592 66<328.5 333.5>
VStem: 37 56<300 331 251 343.5> 200 64<237 294.5> 691 64<247 285 237.5 293.5>
LayerCount: 2
Fore
SplineSet
136 94 m 257
 107 152 93 214 93 288 c 256
 93 374 104 428 123 466 c 257
 128 474 147 491 179 525 c 256
 222 570 270 592 323 592 c 256
 344 592 367 590 389 584 c 256
 461 563 451 560 512 542 c 257
 557 528 638 448 656 405 c 256
 664 386 667 376 669 374 c 257
 677 356 691 323 691 264 c 256
 691 230 690 204 682 186 c 257
 677 170 664 152 640 126 c 256
 610 94 587 61 563 43 c 256
 478 -21 442 -53 362 -53 c 256
 327 -53 298 -46 272 -35 c 257
 189 8 168 19 136 94 c 257
86 38 m 257
 108 -10 157 -40 229 -75 c 256
 296 -107 301 -109 363 -109 c 256
 417 -109 425 -107 472 -85 c 257
 528 -51 536 -48 579 -10 c 256
 605 12 636 41 678 83 c 256
 737 142 755 203 755 272 c 256
 755 298 754 315 744 350 c 257
 734 377 727 397 722 405 c 256
 714 418 704 446 696 462 c 257
 688 473 680 487 670 498 c 256
 644 527 642 538 610 562 c 256
 584 581 582 586 528 608 c 256
 481 626 389 658 339 658 c 256
 318 658 290 653 256 645 c 257
 197 629 173 618 136 581 c 256
 112 557 78 510 67 480 c 256
 54 443 37 370 37 317 c 256
 37 283 39 243 42 198 c 256
 48 105 60 100 86 38 c 257
256 139 m 256
 288 107 300 99 334 99 c 256
 368 99 395 104 416 114 c 258
 461 136 l 258
 474 142 489 152 510 168 c 257
 523 176 530 186 530 194 c 256
 530 205 507 213 485 213 c 256
 477 213 466 206 456 198 c 256
 434 180 395 170 366 170 c 256
 348 170 329 171 315 181 c 256
 280 205 264 216 264 258 c 256
 264 388 385 419 410 419 c 256
 418 419 435 419 438 416 c 257
 452 408 462 400 494 400 c 256
 504 400 512 408 512 424 c 256
 512 447 474 483 395 483 c 256
 368 483 345 474 307 448 c 257
 286 435 277 425 272 419 c 257
 269 414 257 407 243 389 c 257
 216 357 200 328 200 261 c 256
 200 197 211 184 256 139 c 256
EndSplineSet
PickledDataWithLists: "(dp0
Vcom.fontlab.hintData
p1
(dp2
Vhhints
p3
(lp4
(dp5
Vposition
p6
I-109
sVwidth
p7
I56
sa(dp8
g6
I99
sg7
I70
sa(dp9
g6
I419
sg7
I64
sa(dp10
g6
I592
sg7
I66
sasVvhints
p11
(lp12
(dp13
g6
I37
sg7
I56
sa(dp14
g6
I200
sg7
I64
sa(dp15
g6
I691
sg7
I64
sass."
EndChar

StartChar: d
Encoding: 149 100 149
GlifName: d
Width: 468
VWidth: 0
Flags: W
HStem: 2 80<131.5 175.5 131.5 182.5> 346 70<172.5 225>
VStem: 34 69 296 90<421 654>
AnchorPoint: "top" 253 738 basechar 0
AnchorPoint: "bottom" 240 1 basechar 0
LayerCount: 2
Fore
SplineSet
102 178 m 256
 102 263 143 346 202 346 c 256
 248 346 288 299 304 283 c 257
 259 198 197 82 154 82 c 256
 109 82 102 116 102 178 c 256
34 146 m 256
 34 74 82 2 141 2 c 256
 224 2 257 67 334 197 c 257
 358 74 349 -29 405 -29 c 256
 416 -29 442 -25 442 5 c 256
 442 13 437 16 434 22 c 256
 424 48 419 108 414 142 c 256
 395 280 386 348 386 494 c 256
 386 566 382 609 382 627 c 256
 382 667 379 718 339 718 c 256
 312 718 296 673 296 635 c 256
 296 544 302 482 310 368 c 257
 284 397 253 416 211 416 c 256
 78 416 34 277 34 146 c 256
EndSplineSet
PickledDataWithLists: "(dp0
Vcom.fontlab.hintData
p1
(dp2
Vhhints
p3
(lp4
(dp5
Vposition
p6
I2
sVwidth
p7
I80
sa(dp8
g6
I346
sg7
I70
sasVvhints
p9
(lp10
(dp11
g6
I34
sg7
I69
sa(dp12
g6
I296
sg7
I90
sass."
EndChar

StartChar: dcroat
Encoding: 151 273 151
GlifName: dcroat
Width: 480
VWidth: 0
Flags: W
HStem: -6 73 307 74<214 225> 480 62<187 192 155 218.5> 491 58<342.5 414 342.5 427> 491 50 709 16
VStem: 40 69<136 179.5 134.5 186> 242 75<382.5 405 382.5 432 382.5 388 382.5 481>
AnchorPoint: "top" 234 748 basechar 0
AnchorPoint: "bottom" 256 33 basechar 0
LayerCount: 2
Fore
SplineSet
40 136 m 257
 45 85 58 12 106 -2 c 257
 114 -5 122 -6 130 -6 c 256
 216 -6 258 116 278 182 c 257
 283 160 290 136 296 114 c 257
 310 70 l 257
 316 54 338 0 355 -6 c 256
 361 -8 368 -10 375 -10 c 256
 380 -10 411 -9 411 17 c 256
 411 21 411 26 410 30 c 256
 407 41 398 50 392 61 c 257
 383 79 373 95 366 117 c 257
 356 141 353 160 328 270 c 257
 335 265 343 262 350 262 c 256
 364 262 376 278 376 290 c 256
 376 312 336 341 318 351 c 257
 317 364 317 376 317 389 c 256
 317 421 318 454 320 486 c 257
 343 488 366 489 390 491 c 257
 414 491 l 258
 440 491 449 511 449 521 c 256
 449 535 432 538 418 541 c 257
 396 547 372 549 346 549 c 256
 339 549 331 549 324 548 c 257
 326 574 329 580 329 626 c 256
 329 636 329 646 329 656 c 256
 329 682 327 705 310 718 c 257
 305 723 301 725 297 725 c 256
 285 725 276 710 270 704 c 257
 245 671 248 623 244 570 c 256
 243 561 243 553 242 546 c 257
 225 546 209 544 192 542 c 257
 165 542 l 258
 145 542 112 530 110 507 c 257
 110 489 128 482 143 482 c 256
 144 482 160 480 214 480 c 256
 223 480 233 480 242 481 c 257
 242 432 l 258
 242 414 242 397 242 379 c 257
 236 380 228 381 222 381 c 256
 107 381 40 236 40 136 c 257
109 146 m 256
 109 213 139 260 178 293 c 256
 191 303 206 307 222 307 c 256
 228 307 235 307 242 306 c 257
 241 301 241 296 240 291 c 256
 234 244 219 204 205 163 c 257
 199 147 196 128 186 114 c 256
 178 101 159 66 138 66 c 256
 108 66 109 123 109 146 c 256
EndSplineSet
PickledDataWithLists: "(dp0
Vcom.fontlab.hintData
p1
(dp2
Vhhints
p3
(lp4
(dp5
Vposition
p6
I-6
sVwidth
p7
I73
sa(dp8
g6
I307
sg7
I74
sa(dp9
g6
I480
sg7
I62
sa(dp10
g6
I491
sg7
I58
sa(dp11
g6
I491
sg7
I50
sa(dp12
g6
I709
sg7
I16
sasVvhints
p13
(lp14
(dp15
g6
I40
sg7
I69
sa(dp16
g6
I242
sg7
I75
sass."
EndChar

StartChar: degree
Encoding: 152 176 152
GlifName: degree
Width: 268
VWidth: 0
Flags: W
HStem: 648 75<153 192>
VStem: 174 66<632.5 635.5>
LayerCount: 2
Fore
SplineSet
125 600 m 256
 125 606 125 611 123 619 c 257
 125 624 130 629 133 632 c 257
 143 640 152 648 154 648 c 256
 160 648 174 642 174 629 c 256
 174 620 145 587 136 587 c 256
 128 587 125 592 125 600 c 256
54 589 m 257
 58 543 86 501 136 501 c 256
 164 501 210 564 219 587 c 257
 232 617 240 623 240 642 c 256
 240 681 213 723 171 723 c 256
 161 723 147 720 125 715 c 257
 86 703 37 664 37 618 c 256
 37 605 49 591 54 589 c 257
EndSplineSet
PickledDataWithLists: "(dp0
Vcom.fontlab.hintData
p1
(dp2
Vhhints
p3
(lp4
(dp5
Vposition
p6
I648
sVwidth
p7
I75
sasVvhints
p8
(lp9
(dp10
g6
I174
sg7
I66
sass."
EndChar

StartChar: demiflat
Encoding: 153 57984 153
GlifName: demiflat
Width: 484
VWidth: 0
Flags: W
LayerCount: 2
Fore
SplineSet
79 188 m 256
 83 181 99 164 115 149 c 256
 130 134 151 116 162 109 c 256
 172 103 188 96 198 94 c 256
 208 92 225 87 235 82 c 256
 246 77 265 72 276 70 c 257
 288 69 313 63 332 58 c 256
 351 53 371 46 377 42 c 257
 384 39 394 37 403 39 c 256
 411 40 420 44 421 46 c 256
 423 49 425 54 425 57 c 256
 425 60 421 69 417 77 c 257
 412 84 407 97 406 106 c 256
 404 115 403 126 403 132 c 256
 403 137 402 152 402 162 c 257
 401 171 400 181 399 191 c 257
 396 205 391 219 388 234 c 256
 386 246 383 258 383 270 c 256
 383 290 392 310 393 330 c 256
 394 346 391 362 391 378 c 256
 391 396 391 414 392 432 c 256
 393 447 394 462 396 477 c 256
 398 493 402 508 404 524 c 256
 407 544 411 548 410 584 c 256
 409 630 408 633 397 648 c 256
 390 656 380 664 374 666 c 256
 369 667 362 667 360 666 c 256
 358 664 353 657 349 649 c 256
 343 638 342 622 342 555 c 256
 343 494 341 470 336 457 c 256
 333 447 332 428 330 414 c 256
 325 365 325 303 327 234 c 257
 327 216 331 194 333 184 c 256
 334 174 332 157 330 147 c 257
 320 148 297 155 281 163 c 256
 264 172 242 180 231 181 c 256
 221 182 206 186 199 190 c 256
 192 194 178 204 168 213 c 256
 158 221 145 238 139 249 c 256
 133 260 128 273 128 278 c 256
 128 283 130 290 131 292 c 256
 133 294 146 306 160 318 c 256
 175 330 194 344 203 350 c 256
 216 358 223 357 231 350 c 256
 237 345 247 339 253 336 c 256
 259 334 273 328 284 323 c 256
 301 315 322 283 342 293 c 256
 360 302 360 335 351 354 c 256
 339 379 294 393 279 397 c 256
 263 402 247 410 242 414 c 256
 237 419 228 424 221 427 c 256
 215 429 201 432 191 432 c 256
 177 432 167 427 147 414 c 256
 133 405 116 390 110 381 c 256
 104 372 96 357 92 347 c 256
 88 337 80 328 75 325 c 256
 66 321 64 316 61 297 c 257
 60 284 60 265 61 255 c 256
 62 244 65 228 67 218 c 256
 69 208 75 194 79 188 c 256
EndSplineSet
EndChar

StartChar: demisharp
Encoding: 154 57986 154
GlifName: demisharp
Width: 521
VWidth: 0
Flags: W
LayerCount: 2
Fore
SplineSet
215 303 m 256
 219 266 225 230 231 193 c 257
 236 170 246 131 246 124 c 257
 247 116 250 106 255 100 c 256
 259 95 266 83 270 75 c 256
 274 67 282 55 286 50 c 256
 291 45 299 41 303 41 c 256
 307 41 314 46 319 52 c 256
 326 60 328 69 328 87 c 256
 328 110 327 112 309 128 c 256
 294 143 290 149 288 167 c 256
 286 179 280 220 277 247 c 256
 275 266 275 285 273 304 c 256
 271 326 267 348 266 370 c 256
 264 396 266 423 265 450 c 256
 264 480 264 523 261 541 c 256
 258 558 253 563 253 574 c 256
 253 581 255 588 257 595 c 256
 258 598 261 602 260 606 c 257
 260 612 254 616 251 621 c 256
 248 625 245 628 242 632 c 257
 238 640 241 651 234 655 c 256
 227 660 215 659 208 655 c 256
 199 650 194 640 193 630 c 256
 191 618 201 606 202 593 c 257
 205 576 203 561 202 543 c 256
 199 505 201 490 205 479 c 257
 211 466 208 443 209 425 c 256
 211 384 211 344 215 303 c 256
113 138 m 257
 118 128 125 118 128 117 c 256
 131 115 139 117 145 120 c 256
 151 123 162 133 170 142 c 256
 178 150 191 162 201 168 c 256
 210 174 236 206 255 223 c 256
 274 239 304 263 314 269 c 256
 333 280 363 310 379 316 c 257
 393 320 407 324 413 324 c 256
 420 324 426 328 432 339 c 256
 436 347 445 357 451 360 c 256
 457 364 461 371 461 377 c 256
 461 382 455 392 448 400 c 256
 436 412 431 414 415 414 c 256
 404 414 388 410 376 404 c 256
 365 398 354 389 351 383 c 256
 348 377 341 370 334 366 c 256
 327 363 315 355 306 350 c 257
 306 350 291 338 283 332 c 256
 258 311 232 289 207 267 c 256
 185 248 164 228 143 208 c 256
 132 198 116 182 112 179 c 256
 108 175 105 169 105 165 c 256
 105 161 109 149 113 138 c 257
71 225 m 256
 75 223 84 228 90 233 c 256
 99 242 126 260 142 274 c 256
 188 312 226 360 274 396 c 256
 295 412 309 420 343 437 c 256
 375 453 403 470 405 474 c 256
 408 479 410 488 410 495 c 256
 410 504 407 511 400 515 c 256
 395 519 383 522 374 522 c 256
 365 522 352 518 346 514 c 256
 340 509 330 504 325 503 c 256
 320 501 314 497 311 494 c 256
 308 490 288 480 277 473 c 256
 255 459 235 442 214 427 c 257
 198 414 182 399 165 388 c 256
 150 378 132 361 125 351 c 256
 117 339 108 331 94 326 c 256
 83 322 74 317 70 311 c 256
 65 304 60 285 60 263 c 257
 59 233 67 228 71 225 c 256
EndSplineSet
EndChar

StartChar: dieresis
Encoding: 155 168 155
GlifName: dieresis
Width: 337
VWidth: 0
Flags: W
HStem: 616 112<31.5 105.5>
LayerCount: 2
Fore
SplineSet
16 667 m 257
 38 639 61 616 99 616 c 256
 112 616 114 628 114 634 c 256
 114 652 109 666 98 674 c 256
 77 690 68 714 58 720 c 257
 47 728 35 728 32 728 c 256
 31 728 8 724 8 694 c 256
 8 685 10 676 16 667 c 257
216 704 m 256
 216 667 286 618 296 618 c 256
 315 618 322 627 322 653 c 256
 322 672 311 675 298 691 c 257
 276 720 270 726 243 726 c 256
 227 726 216 720 216 704 c 256
EndSplineSet
PickledDataWithLists: "(dp0
Vcom.fontlab.hintData
p1
(dp2
Vhhints
p3
(lp4
(dp5
Vposition
p6
I616
sVwidth
p7
I112
sass."
EndChar

StartChar: dieresiscomb
Encoding: 156 776 156
GlifName: dieresiscomb
Width: 0
VWidth: 0
HStem: 758 112
AnchorPoint: "top_1" -210 704 mark 0
AnchorPoint: "top_1" -219 882 basemark 0
AnchorPoint: "top" -210 704 mark 0
LayerCount: 2
Fore
SplineSet
-368 790 m 257
 -346 762 -323 738 -285 738 c 256
 -272 738 -270 750 -270 756 c 256
 -270 774 -275 788 -286 796 c 256
 -307 812 -316 836 -326 842 c 256
 -337 850 -349 850 -352 850 c 256
 -353 850 -376 846 -376 816 c 256
 -376 807 -374 799 -368 790 c 257
-168 826 m 256
 -168 789 -98 740 -88 740 c 256
 -69 740 -62 749 -62 775 c 256
 -62 794 -73 798 -86 814 c 256
 -108 843 -114 849 -141 849 c 256
 -157 849 -168 842 -168 826 c 256
EndSplineSet
PickledDataWithLists: "(dp0
Vcom.fontlab.hintData
p1
(dp2
Vhhints
p3
(lp4
(dp5
Vposition
p6
I758
sVwidth
p7
I112
sass."
EndChar

StartChar: divide
Encoding: 157 247 157
GlifName: divide
Width: 548
VWidth: 0
Flags: W
HStem: -8 94<278 294.5> 162 90 162 83 203 85<457 465> 376 96<237 259.5>
VStem: 218 90 235 99<23 49.5>
LayerCount: 2
Fore
SplineSet
218 435 m 256
 218 425 221 376 251 376 c 256
 268 376 292 388 304 400 c 256
 307 403 309 411 307 422 c 257
 304 456 286 472 254 472 c 256
 220 472 218 456 218 435 c 256
128 162 m 258
 133 162 l 257
 419 173 406 203 456 203 c 256
 474 203 488 213 498 218 c 256
 504 221 518 243 518 277 c 256
 518 285 503 288 469 288 c 256
 445 288 426 280 418 278 c 257
 292 242 115 255 64 245 c 256
 48 242 38 233 38 222 c 256
 38 178 92 162 128 162 c 258
235 32 m 256
 235 14 264 -8 277 -8 c 256
 312 -8 309 15 328 34 c 256
 333 39 334 43 334 49 c 256
 334 50 334 86 283 86 c 256
 273 86 266 85 258 82 c 256
 244 77 235 45 235 32 c 256
EndSplineSet
PickledDataWithLists: "(dp0
Vcom.fontlab.hintData
p1
(dp2
Vhhints
p3
(lp4
(dp5
Vposition
p6
I-8
sVwidth
p7
I94
sa(dp8
g6
I162
sg7
I90
sa(dp9
g6
I162
sg7
I83
sa(dp10
g6
I203
sg7
I85
sa(dp11
g6
I376
sg7
I96
sasVvhints
p12
(lp13
(dp14
g6
I218
sg7
I90
sa(dp15
g6
I235
sg7
I99
sass."
EndChar

StartChar: dollar
Encoding: 158 36 158
GlifName: dollar
Width: 366
VWidth: 0
Flags: W
HStem: -22 17 157 66 725 16
VStem: 22 58<461 470 461 473.5> 189 56<618 685 618 685> 197 59<378 386> 203 42<661 726> 218 94<18 81>
LayerCount: 2
Fore
SplineSet
266 253 m 257
 261 294 l 257
 269 289 291 281 296 275 c 257
 291 270 277 259 266 253 c 257
104 422 m 257
 88 441 80 456 80 466 c 256
 80 474 92 488 118 509 c 256
 150 535 168 539 190 542 c 257
 190 493 l 258
 190 412 197 394 197 378 c 257
 181 378 115 411 104 422 c 257
32 178 m 257
 50 162 81 157 123 157 c 256
 166 157 188 159 210 170 c 257
 216 144 218 114 218 48 c 256
 218 22 248 -22 258 -22 c 256
 272 -22 312 10 312 26 c 256
 312 29 310 35 302 40 c 257
 281 58 280 82 277 109 c 257
 272 141 275 178 272 192 c 257
 318 213 360 251 360 275 c 256
 360 294 345 318 331 328 c 257
 318 336 280 354 256 365 c 257
 256 400 l 257
 253 445 256 491 251 541 c 257
 265 531 292 493 312 493 c 256
 320 493 327 499 330 512 c 257
 330 517 l 258
 330 519 331 518 331 520 c 256
 331 539 320 560 298 581 c 256
 272 605 259 606 248 614 c 257
 248 625 245 645 245 661 c 258
 245 685 l 258
 245 722 236 741 222 741 c 256
 220 741 217 740 211 738 c 256
 205 736 203 730 203 722 c 256
 203 712 200 706 195 704 c 256
 190 702 189 685 189 658 c 258
 189 618 l 257
 181 618 163 618 158 616 c 257
 117 608 40 536 26 502 c 257
 23 496 22 483 22 464 c 256
 22 422 44 377 82 358 c 257
 90 355 101 350 114 342 c 256
 127 334 141 333 154 325 c 257
 170 317 194 309 200 304 c 257
 202 286 201 256 206 232 c 257
 185 224 165 222 136 222 c 256
 67 222 65 256 43 256 c 256
 29 256 14 235 14 214 c 256
 14 201 21 189 32 178 c 257
EndSplineSet
PickledDataWithLists: "(dp0
Vcom.fontlab.hintData
p1
(dp2
Vhhints
p3
(lp4
(dp5
Vposition
p6
I-22
sVwidth
p7
I17
sa(dp8
g6
I157
sg7
I66
sa(dp9
g6
I725
sg7
I16
sasVvhints
p10
(lp11
(dp12
g6
I22
sg7
I58
sa(dp13
g6
I189
sg7
I56
sa(dp14
g6
I197
sg7
I59
sa(dp15
g6
I203
sg7
I42
sa(dp16
g6
I218
sg7
I94
sass."
EndChar

StartChar: dotaccentcomb
Encoding: 159 775 159
GlifName: dotaccentcomb
Width: 0
VWidth: 0
HStem: 758 112
VStem: -248 117
AnchorPoint: "top_1" -178 704 mark 0
AnchorPoint: "top_1" -178 882 basemark 0
AnchorPoint: "top" -178 704 mark 0
LayerCount: 2
Fore
SplineSet
-216 769 m 257
 -205 755 -190 738 -166 738 c 256
 -148 738 -121 749 -121 767 c 256
 -121 791 -126 802 -140 812 c 256
 -151 820 -165 830 -171 838 c 256
 -176 844 -189 850 -208 850 c 256
 -222 850 -238 836 -238 823 c 256
 -238 797 -229 783 -216 769 c 257
EndSplineSet
PickledDataWithLists: "(dp0
Vcom.fontlab.hintData
p1
(dp2
Vhhints
p3
(lp4
(dp5
Vposition
p6
I758
sVwidth
p7
I112
sasVvhints
p8
(lp9
(dp10
g6
I-248
sg7
I117
sass."
EndChar

StartChar: e
Encoding: 160 101 160
GlifName: e
Width: 407
VWidth: 0
Flags: W
HStem: -14 64<206 241 206 248> 374 74<188.5 207 173 215>
VStem: 33 76
AnchorPoint: "bottom" 223 5 basechar 0
AnchorPoint: "top" 200 506 basechar 0
LayerCount: 2
Fore
SplineSet
107 250 m 257
 107 287 136 346 160 362 c 257
 170 370 182 374 195 374 c 256
 235 374 268 338 293 310 c 257
 243 282 165 262 107 250 c 257
96 18 m 256
 121 -8 158 -14 227 -14 c 256
 269 -14 289 -3 323 26 c 257
 334 36 376 60 376 78 c 256
 376 89 362 101 349 101 c 256
 333 101 304 88 296 80 c 257
 283 69 252 50 230 50 c 256
 182 50 159 59 146 72 c 256
 127 91 112 128 109 170 c 257
 151 183 199 199 242 213 c 257
 261 221 304 242 315 250 c 257
 339 264 366 285 366 304 c 256
 366 338 345 358 315 387 c 257
 280 419 230 448 184 448 c 256
 162 448 137 438 123 426 c 256
 62 375 33 322 33 200 c 256
 33 117 50 68 96 18 c 256
EndSplineSet
PickledDataWithLists: "(dp0
Vcom.fontlab.hintData
p1
(dp2
Vhhints
p3
(lp4
(dp5
Vposition
p6
I-14
sVwidth
p7
I64
sa(dp8
g6
I374
sg7
I74
sasVvhints
p9
(lp10
(dp11
g6
I33
sg7
I76
sass."
EndChar

StartChar: eight
Encoding: 167 56 167
GlifName: eight
Width: 417
VWidth: 0
Flags: W
HStem: 3 69<166.5 198 166.5 201> 646 66<207.5 247.5>
VStem: 34 66 62 72<571 595 571 608.5> 315 69<145 154 104 175> 334 58<518 543>
LayerCount: 2
Fore
SplineSet
109 118 m 257
 103 129 99 152 99 192 c 256
 99 248 109 282 133 314 c 257
 141 327 166 351 174 357 c 257
 185 346 184 339 198 328 c 257
 212 315 234 290 256 264 c 256
 298 216 315 188 315 162 c 256
 315 128 293 112 267 98 c 257
 249 90 215 72 181 72 c 256
 152 72 127 89 109 118 c 257
149 520 m 256
 143 536 134 558 134 584 c 256
 134 606 138 615 154 626 c 257
 168 634 194 646 221 646 c 256
 274 646 296 628 310 606 c 257
 328 580 334 555 334 531 c 256
 334 505 321 474 307 450 c 256
 281 407 271 386 258 365 c 257
 237 387 232 387 210 422 c 256
 172 480 157 499 149 520 c 256
38 120 m 257
 56 77 75 48 96 29 c 257
 123 7 125 3 168 3 c 256
 234 3 384 67 384 141 c 256
 384 167 378 197 360 224 c 257
 352 238 314 299 296 315 c 257
 304 320 312 326 317 334 c 257
 328 355 366 422 371 435 c 257
 389 478 392 492 392 542 c 256
 392 546 393 554 393 562 c 256
 393 571 392 581 389 592 c 257
 383 618 371 638 342 664 c 256
 302 699 292 712 214 712 c 256
 154 712 120 704 82 658 c 256
 66 639 62 615 62 602 c 256
 62 525 69 508 112 445 c 257
 118 437 131 417 136 406 c 257
 123 390 102 380 78 342 c 256
 36 276 34 254 34 178 c 256
 34 149 35 128 38 120 c 257
EndSplineSet
PickledDataWithLists: "(dp0
Vcom.fontlab.hintData
p1
(dp2
Vhhints
p3
(lp4
(dp5
Vposition
p6
I3
sVwidth
p7
I69
sa(dp8
g6
I646
sg7
I66
sasVvhints
p9
(lp10
(dp11
g6
I34
sg7
I66
sa(dp12
g6
I62
sg7
I72
sa(dp13
g6
I315
sg7
I69
sa(dp14
g6
I334
sg7
I58
sass."
EndChar

StartChar: ellipsis
Encoding: 168 8230 168
GlifName: ellipsis
Width: 566
VWidth: 0
Flags: W
HStem: -3 120<94 96.5 84.5 114 283 284.5 472 473.5>
VStem: 51 94 240 94<32 75> 429 94<32 75>
LayerCount: 2
Fore
SplineSet
445 21 m 256
 455 3 464 -3 480 -3 c 256
 504 -3 523 21 523 43 c 256
 523 53 519 59 514 67 c 257
 509 77 502 95 491 109 c 257
 488 112 480 117 467 117 c 256
 456 117 448 115 443 110 c 256
 435 102 429 84 429 66 c 256
 429 50 435 39 445 21 c 256
256 21 m 256
 266 3 275 -3 291 -3 c 256
 315 -3 334 21 334 43 c 256
 334 53 330 59 325 67 c 257
 320 77 313 95 302 109 c 257
 299 112 291 117 278 117 c 256
 267 117 259 115 254 110 c 256
 246 102 240 84 240 66 c 256
 240 50 246 39 256 21 c 256
67 21 m 256
 77 3 86 -3 102 -3 c 256
 126 -3 146 21 146 43 c 256
 146 53 141 59 136 67 c 257
 131 77 125 95 114 109 c 257
 111 112 103 117 90 117 c 256
 79 117 71 115 66 110 c 256
 58 102 51 84 51 66 c 256
 51 50 57 39 67 21 c 256
EndSplineSet
PickledDataWithLists: "(dp0
Vcom.fontlab.hintData
p1
(dp2
Vhhints
p3
(lp4
(dp5
Vposition
p6
I-3
sVwidth
p7
I120
sasVvhints
p8
(lp9
(dp10
g6
I51
sg7
I94
sa(dp11
g6
I240
sg7
I94
sa(dp12
g6
I429
sg7
I94
sass."
EndChar

StartChar: emdash
Encoding: 170 8212 170
GlifName: emdash
Width: 697
VWidth: 0
Flags: W
HStem: 236 85<624.5 632 624.5 643>
LayerCount: 2
Fore
SplineSet
53 176 m 257
 72 180 207 210 226 214 c 257
 248 217 270 221 294 226 c 257
 340 234 412 233 510 237 c 257
 520 238 531 238 542 238 c 256
 576 238 614 236 628 236 c 256
 658 236 683 238 683 274 c 256
 683 292 683 301 674 307 c 257
 666 313 637 321 627 321 c 256
 622 321 618 320 613 317 c 257
 602 312 575 308 533 306 c 257
 336 293 200 280 125 266 c 256
 51 251 31 245 19 224 c 257
 16 218 14 216 14 214 c 256
 14 213 29 176 53 176 c 257
EndSplineSet
PickledDataWithLists: "(dp0
Vcom.fontlab.hintData
p1
(dp2
Vhhints
p3
(lp4
(dp5
Vposition
p6
I236
sVwidth
p7
I85
sass."
EndChar

StartChar: endash
Encoding: 171 8211 171
GlifName: endash
Width: 494
VWidth: 0
Flags: W
HStem: 202 69 210 72<238 398 397 398 398 410>
LayerCount: 2
Fore
SplineSet
80 202 m 256
 110 202 130 211 214 211 c 256
 216 211 228 210 238 210 c 258
 395 210 l 258
 425 210 447 211 469 213 c 257
 475 213 l 258
 481 213 486 215 486 245 c 256
 486 269 470 282 440 282 c 258
 398 282 l 258
 396 282 302 277 235 277 c 256
 157 275 107 272 88 270 c 257
 63 270 l 258
 56 270 50 270 45 266 c 256
 24 250 13 240 13 230 c 256
 13 202 47 202 80 202 c 256
EndSplineSet
PickledDataWithLists: "(dp0
Vcom.fontlab.hintData
p1
(dp2
Vhhints
p3
(lp4
(dp5
Vposition
p6
I202
sVwidth
p7
I69
sa(dp8
g6
I210
sg7
I72
sass."
EndChar

StartChar: eogonek
Encoding: 172 281 172
GlifName: eogonek
Width: 414
VWidth: 0
Flags: W
HStem: -151 65<420.5 441 413.5 458.5> -35 68<196 212> 386 70
VStem: 29 66<144 173 144 216.5> 301 71<334.5 354.5 320 356> 306 61<-36.5 9>
AnchorPoint: "top" 213 514 basechar 0
AnchorPoint: "bottom" 206 -6 basechar 0
LayerCount: 2
Fore
SplineSet
29 166 m 256
 29 -34 193 -35 199 -35 c 256
 225 -35 290 -19 308 -4 c 257
 307 -13 306 -21 306 -31 c 256
 306 -42 308 -54 311 -65 c 256
 318 -88 349 -129 370 -139 c 256
 389 -147 411 -151 430 -151 c 256
 487 -151 514 -119 514 -90 c 256
 514 -76 507 -64 495 -64 c 256
 493 -64 492 -65 490 -65 c 257
 481 -66 477 -79 468 -81 c 257
 456 -85 446 -86 436 -86 c 256
 391 -86 367 -47 367 4 c 256
 367 14 370 26 370 36 c 256
 370 51 368 102 354 102 c 256
 342 102 328 97 319 87 c 257
 290 60 239 33 198 33 c 256
 126 33 95 115 95 173 c 257
 189 186 247 214 313 257 c 256
 337 273 372 294 372 346 c 256
 372 363 367 396 358 410 c 256
 340 440 302 455 262 455 c 256
 201 455 139 412 100 369 c 257
 61 327 29 267 29 166 c 256
107 245 m 257
 109 257 117 274 124 286 c 256
 151 328 216 386 266 386 c 256
 285 386 301 366 301 346 c 256
 301 323 199 253 107 245 c 257
EndSplineSet
PickledDataWithLists: "(dp0
Vcom.fontlab.hintData
p1
(dp2
Vhhints
p3
(lp4
(dp5
Vposition
p6
I-151
sVwidth
p7
I65
sa(dp8
g6
I-35
sg7
I68
sa(dp9
g6
I386
sg7
I70
sasVvhints
p10
(lp11
(dp12
g6
I29
sg7
I66
sa(dp13
g6
I301
sg7
I71
sa(dp14
g6
I306
sg7
I61
sass."
EndChar

StartChar: equal
Encoding: 173 61 173
GlifName: equal
Width: 374
VWidth: 0
Flags: W
HStem: 102 61<167 187 187 201.5> 109 54 274 62<50 50> 278 69
LayerCount: 2
Fore
SplineSet
50 274 m 256
 55 274 59 273 61 275 c 257
 64 275 111 272 154 272 c 256
 178 272 338 281 344 283 c 257
 357 289 365 296 365 304 c 256
 365 321 322 347 307 347 c 256
 305 347 303 344 301 344 c 257
 296 342 256 339 166 339 c 257
 105 337 67 338 51 336 c 256
 35 334 25 331 22 325 c 257
 19 320 16 313 16 307 c 256
 16 288 44 274 50 274 c 256
46 123 m 256
 75 112 131 102 176 102 c 256
 227 102 283 109 320 109 c 256
 332 109 362 117 362 133 c 256
 362 155 335 166 317 166 c 256
 309 166 307 163 299 163 c 258
 187 163 l 258
 147 163 125 165 85 170 c 257
 64 172 60 179 34 179 c 256
 30 179 27 180 25 180 c 256
 24 180 23 180 22 179 c 257
 19 173 18 168 18 160 c 256
 18 149 25 131 46 123 c 256
EndSplineSet
PickledDataWithLists: "(dp0
Vcom.fontlab.hintData
p1
(dp2
Vhhints
p3
(lp4
(dp5
Vposition
p6
I102
sVwidth
p7
I61
sa(dp8
g6
I109
sg7
I54
sa(dp9
g6
I274
sg7
I62
sa(dp10
g6
I278
sg7
I69
sass."
EndChar

StartChar: eth
Encoding: 174 240 174
GlifName: eth
Width: 489
VWidth: 0
Flags: W
HStem: 6 72<210 232> 365 72<260 287> 650 77
VStem: 77 75<203 221 221 230> 113 83 370 74
AnchorPoint: "top" 272 767 basechar 0
AnchorPoint: "bottom" 256 46 basechar 0
LayerCount: 2
Fore
SplineSet
77 202 m 256
 77 151 88 120 98 90 c 257
 104 74 140 39 154 26 c 256
 164 16 199 6 221 6 c 256
 243 6 270 10 288 24 c 257
 325 46 319 40 338 64 c 257
 428 171 443 289 443 363 c 256
 443 387 442 414 440 445 c 257
 434 493 408 533 398 573 c 256
 394 589 376 619 352 645 c 257
 386 672 411 695 453 717 c 256
 471 727 480 736 480 746 c 256
 480 764 463 778 442 778 c 256
 416 778 392 763 370 744 c 256
 352 728 331 711 301 688 c 257
 271 705 223 726 189 726 c 256
 151 726 99 714 86 709 c 257
 72 703 56 694 34 678 c 256
 24 670 20 659 20 648 c 256
 20 605 43 605 61 605 c 256
 77 605 92 634 110 640 c 256
 129 646 152 650 176 650 c 256
 198 650 219 647 238 641 c 257
 224 631 212 624 206 619 c 256
 177 597 146 581 120 544 c 256
 115 537 113 528 113 521 c 256
 113 496 145 486 155 486 c 256
 169 486 195 506 195 520 c 256
 195 528 209 543 238 557 c 256
 258 567 276 583 297 601 c 257
 357 534 370 438 370 352 c 256
 370 334 362 264 349 221 c 256
 336 179 272 78 222 78 c 256
 198 78 173 101 160 136 c 256
 153 156 152 183 152 203 c 256
 152 209 152 216 152 221 c 256
 152 253 168 289 182 310 c 256
 196 331 245 365 275 365 c 256
 299 365 308 354 325 354 c 256
 341 354 352 363 352 376 c 256
 352 387 343 405 338 411 c 257
 332 421 300 437 278 437 c 256
 230 437 211 427 171 395 c 256
 121 355 117 352 90 294 c 256
 84 281 77 258 77 202 c 256
EndSplineSet
PickledDataWithLists: "(dp0
Vcom.fontlab.hintData
p1
(dp2
Vhhints
p3
(lp4
(dp5
Vposition
p6
I6
sVwidth
p7
I72
sa(dp8
g6
I365
sg7
I72
sa(dp9
g6
I650
sg7
I77
sasVvhints
p10
(lp11
(dp12
g6
I77
sg7
I75
sa(dp13
g6
I113
sg7
I83
sa(dp14
g6
I370
sg7
I74
sass."
EndChar

StartChar: euro
Encoding: 175 8364 175
GlifName: euro
Width: 672
VWidth: 0
Flags: W
HStem: -11 81<423.5 450 388.5 483.5> 235 67 387 80<102 107 107 121> 394 74 402 76<363 438 363 452.5> 707 69<368.5 385>
VStem: 158 72<341.5 350.5 331.5 360.5> 168 74 174 70
LayerCount: 2
Fore
SplineSet
56 200 m 256
 67 190 71 188 82 188 c 258
 86 188 l 258
 87 188 115 194 174 200 c 257
 195 106 234 36 277 13 c 256
 320 -11 394 -11 453 -11 c 256
 514 -11 601 32 638 80 c 257
 652 101 662 114 662 122 c 256
 662 148 661 166 650 166 c 256
 642 166 629 158 613 142 c 256
 551 80 493 70 407 70 c 256
 370 70 319 81 302 98 c 256
 275 126 256 161 245 207 c 257
 396 224 431 228 457 235 c 257
 490 242 494 245 494 262 c 256
 494 300 453 302 424 302 c 256
 398 302 398 302 233 283 c 257
 231 301 230 321 230 342 c 256
 230 359 231 376 233 393 c 257
 254 395 269 395 274 395 c 256
 296 395 342 402 373 402 c 258
 438 402 l 258
 467 402 469 404 469 429 c 256
 469 474 442 480 403 480 c 256
 387 480 373 478 363 478 c 257
 344 477 276 469 242 469 c 257
 250 518 272 594 294 636 c 256
 307 661 356 707 381 707 c 256
 389 707 404 702 424 694 c 256
 460 679 475 646 486 640 c 256
 497 634 505 632 510 632 c 256
 524 632 548 664 548 674 c 256
 548 700 523 724 490 739 c 256
 442 761 403 776 384 776 c 256
 331 776 259 715 237 677 c 256
 200 615 182 538 168 467 c 257
 107 467 l 258
 93 467 18 459 18 440 c 256
 18 426 40 401 53 394 c 257
 61 389 90 387 114 387 c 256
 128 387 144 388 159 388 c 257
 158 378 158 366 158 355 c 256
 158 328 160 301 162 275 c 257
 107 270 45 264 45 224 c 256
 45 213 45 210 56 200 c 256
EndSplineSet
PickledDataWithLists: "(dp0
Vcom.fontlab.hintData
p1
(dp2
Vhhints
p3
(lp4
(dp5
Vposition
p6
I-11
sVwidth
p7
I81
sa(dp8
g6
I235
sg7
I67
sa(dp9
g6
I387
sg7
I80
sa(dp10
g6
I394
sg7
I74
sa(dp11
g6
I402
sg7
I76
sa(dp12
g6
I707
sg7
I69
sasVvhints
p13
(lp14
(dp15
g6
I158
sg7
I72
sa(dp16
g6
I168
sg7
I74
sa(dp17
g6
I174
sg7
I70
sass."
EndChar

StartChar: exclam
Encoding: 176 33 176
GlifName: exclam
Width: 171
VWidth: 0
Flags: W
HStem: -5 114<64 87 59.5 98>
VStem: 45 91<18 71> 51 62 67 51
LayerCount: 2
Fore
SplineSet
53 402 m 256
 56 274 62 266 67 250 c 256
 75 224 82 213 90 213 c 256
 117 213 118 251 118 258 c 256
 118 286 114 361 114 509 c 258
 114 574 l 258
 114 600 115 616 115 622 c 256
 115 688 105 696 98 702 c 257
 87 710 85 715 75 715 c 256
 53 715 50 701 50 642 c 256
 50 629 51 613 51 592 c 258
 51 504 l 258
 51 467 53 432 53 402 c 256
45 58 m 256
 45 18 51 -5 77 -5 c 256
 119 -5 136 10 136 26 c 256
 136 37 133 47 130 58 c 257
 114 103 104 109 70 109 c 256
 49 109 45 84 45 58 c 256
EndSplineSet
PickledDataWithLists: "(dp0
Vcom.fontlab.hintData
p1
(dp2
Vhhints
p3
(lp4
(dp5
Vposition
p6
I-5
sVwidth
p7
I114
sasVvhints
p8
(lp9
(dp10
g6
I45
sg7
I91
sa(dp11
g6
I51
sg7
I62
sa(dp12
g6
I67
sg7
I51
sass."
EndChar

StartChar: exclamdown
Encoding: 177 161 177
GlifName: exclamdown
Width: 177
VWidth: 0
Flags: W
HStem: -269 17 302 82<69 90 69 95>
VStem: 37 83<347 353 331.5 361.5> 64 86<-209 -206 -232 -172>
LayerCount: 2
Fore
SplineSet
37 352 m 256
 37 342 51 302 85 302 c 256
 105 302 120 322 120 341 c 256
 120 365 102 384 78 384 c 256
 60 384 37 371 37 352 c 256
64 -195 m 256
 64 -223 73 -269 109 -269 c 256
 135 -269 150 -245 150 -219 c 256
 150 -193 121 140 115 150 c 256
 110 158 99 162 83 162 c 256
 65 162 54 152 54 123 c 256
 54 80 56 61 58 19 c 256
 63 -64 64 -149 64 -195 c 256
EndSplineSet
PickledDataWithLists: "(dp0
Vcom.fontlab.hintData
p1
(dp2
Vhhints
p3
(lp4
(dp5
Vposition
p6
I-269
sVwidth
p7
I17
sa(dp8
g6
I302
sg7
I82
sasVvhints
p9
(lp10
(dp11
g6
I37
sg7
I83
sa(dp12
g6
I64
sg7
I86
sass."
EndChar

StartChar: f
Encoding: 178 102 178
GlifName: f
Width: 438
VWidth: 0
Flags: W
HStem: 306 74 350 67 674 83<249 276.5 249 286.5>
VStem: 160 62<508.5 526.5 501 579> 192 66<61.5 83> 358 54
AnchorPoint: "top" 251 785 basechar 0
AnchorPoint: "bottom" 224 25 basechar 0
LayerCount: 2
Fore
SplineSet
51 306 m 256
 57 306 171 318 173 318 c 257
 175 303 176 289 179 270 c 256
 190 201 192 84 192 82 c 256
 192 41 186 39 186 16 c 256
 186 3 222 -32 238 -32 c 256
 241 -32 242 -30 248 -24 c 257
 258 -16 258 21 258 48 c 256
 258 147 250 230 236 328 c 257
 263 331 299 336 317 339 c 256
 333 342 353 350 363 350 c 256
 379 350 410 365 410 381 c 256
 410 394 395 418 379 418 c 256
 340 418 299 407 229 394 c 257
 226 434 222 490 222 512 c 256
 222 541 225 674 264 674 c 256
 309 674 345 622 358 555 c 256
 361 542 368 538 378 538 c 256
 404 538 413 563 413 597 c 256
 413 632 389 675 378 694 c 256
 364 720 291 757 262 757 c 256
 236 757 210 749 181 690 c 256
 162 652 160 608 160 550 c 256
 160 467 161 427 165 386 c 257
 143 386 119 384 77 384 c 256
 63 384 41 384 35 379 c 256
 27 373 18 351 18 338 c 256
 18 319 30 306 51 306 c 256
EndSplineSet
PickledDataWithLists: "(dp0
Vcom.fontlab.hintData
p1
(dp2
Vhhints
p3
(lp4
(dp5
Vposition
p6
I306
sVwidth
p7
I74
sa(dp8
g6
I350
sg7
I67
sa(dp9
g6
I674
sg7
I83
sasVvhints
p10
(lp11
(dp12
g6
I160
sg7
I62
sa(dp13
g6
I192
sg7
I66
sa(dp14
g6
I358
sg7
I54
sass."
EndChar

StartChar: five
Encoding: 179 53 179
GlifName: five
Width: 422
VWidth: 0
Flags: W
HStem: -249 87<139.5 155> 99 72<217.5 267.5> 344 72<208 223 223 223>
VStem: 33 70 313 71<7.5 54.5>
LayerCount: 2
Fore
SplineSet
83 -168 m 256
 83 -200 105 -249 146 -249 c 256
 164 -249 199 -229 226 -203 c 257
 316 -121 384 -31 384 39 c 256
 384 133 337 171 242 171 c 256
 193 171 124 150 102 141 c 257
 103 159 105 200 107 219 c 256
 113 277 122 310 127 348 c 257
 149 345 173 344 199 344 c 258
 223 344 l 257
 336 349 384 359 384 387 c 256
 384 412 376 422 338 422 c 256
 337 422 258 416 237 416 c 256
 179 416 105 429 71 429 c 256
 49 429 43 419 43 408 c 256
 43 398 47 382 59 370 c 257
 55 339 46 281 41 222 c 256
 36 168 33 132 33 106 c 256
 33 68 41 58 68 58 c 256
 99 58 183 99 242 99 c 256
 293 99 313 72 313 37 c 256
 313 -22 176 -162 148 -162 c 256
 131 -162 126 -150 104 -150 c 256
 91 -150 83 -158 83 -168 c 256
EndSplineSet
PickledDataWithLists: "(dp0
Vcom.fontlab.hintData
p1
(dp2
Vhhints
p3
(lp4
(dp5
Vposition
p6
I-249
sVwidth
p7
I87
sa(dp8
g6
I99
sg7
I72
sa(dp9
g6
I344
sg7
I72
sasVvhints
p10
(lp11
(dp12
g6
I33
sg7
I70
sa(dp13
g6
I313
sg7
I71
sass."
EndChar

StartChar: four
Encoding: 180 52 180
GlifName: four
Width: 443
VWidth: 0
Flags: W
HStem: -242 17 -2 76<128 131.5> 3 75<222 230.5 200 262 200 262> 443 16
VStem: 24 79<86 90> 160 70 262 78 269 83 290 62
LayerCount: 2
Fore
SplineSet
51 6 m 256
 68 0 90 -2 113 -2 c 256
 150 -2 191 3 222 3 c 258
 262 3 l 257
 264 -34 269 -80 272 -94 c 256
 291 -185 303 -230 341 -238 c 257
 349 -240 353 -242 358 -242 c 256
 371 -242 382 -214 382 -203 c 256
 382 -193 379 -183 371 -173 c 257
 365 -165 341 -85 341 6 c 257
 431 6 435 40 435 50 c 256
 435 58 416 78 410 78 c 256
 395 78 381 75 365 75 c 256
 357 75 348 76 339 78 c 257
 347 152 l 258
 352 200 352 228 352 234 c 256
 352 240 343 243 333 243 c 256
 307 243 292 221 290 197 c 256
 288 176 271 109 269 77 c 257
 254 78 239 78 222 78 c 256
 178 78 176 74 138 74 c 256
 118 74 103 78 103 94 c 256
 103 96 103 99 104 102 c 257
 115 153 140 190 158 230 c 256
 180 278 230 385 230 432 c 256
 230 443 203 459 192 459 c 256
 179 459 170 430 160 408 c 257
 118 302 102 277 96 264 c 256
 75 218 67 189 46 146 c 256
 40 133 24 106 24 74 c 256
 24 40 29 14 51 6 c 256
EndSplineSet
PickledDataWithLists: "(dp0
Vcom.fontlab.hintData
p1
(dp2
Vhhints
p3
(lp4
(dp5
Vposition
p6
I-242
sVwidth
p7
I17
sa(dp8
g6
I-2
sg7
I76
sa(dp9
g6
I3
sg7
I75
sa(dp10
g6
I443
sg7
I16
sasVvhints
p11
(lp12
(dp13
g6
I24
sg7
I79
sa(dp14
g6
I160
sg7
I70
sa(dp15
g6
I262
sg7
I78
sa(dp16
g6
I269
sg7
I83
sa(dp17
g6
I290
sg7
I62
sass."
Substitution2: "'sups' Superscript lookup 19 subtable" uni2074
EndChar

StartChar: fraction
Encoding: 181 8260 181
GlifName: fraction
Width: 527
VWidth: 0
Flags: W
HStem: 632 46
VStem: 24 58<7 17 6 29.5>
LayerCount: 2
Fore
SplineSet
24 20 m 256
 24 -6 53 -24 78 -24 c 256
 92 -24 104 -19 104 -11 c 256
 104 7 82 -3 82 15 c 256
 82 19 83 24 83 26 c 257
 89 48 114 94 125 112 c 256
 143 141 153 154 173 186 c 257
 228 267 303 411 428 575 c 256
 448 601 467 623 489 632 c 256
 499 636 508 647 508 657 c 256
 508 669 483 678 465 678 c 256
 452 678 432 674 426 670 c 257
 412 660 380 634 360 605 c 256
 310 534 336 563 290 490 c 256
 232 398 179 318 101 194 c 256
 53 118 59 119 40 79 c 257
 30 60 24 39 24 20 c 256
EndSplineSet
PickledDataWithLists: "(dp0
Vcom.fontlab.hintData
p1
(dp2
Vhhints
p3
(lp4
(dp5
Vposition
p6
I632
sVwidth
p7
I46
sasVvhints
p8
(lp9
(dp10
g6
I24
sg7
I58
sass."
EndChar

StartChar: g
Encoding: 182 103 182
GlifName: g
Width: 416
VWidth: 0
Flags: W
HStem: -214 74 155 72<115.5 132.5> 261 1 380 70<203 214>
VStem: 37 70 183 76<145 153> 301 68<-100.5 -62.5>
AnchorPoint: "bottom" 216 -170 basechar 0
AnchorPoint: "top" 210 500 basechar 0
LayerCount: 2
Fore
SplineSet
50 -42 m 256
 50 -89 65 -111 126 -161 c 256
 170 -197 206 -214 258 -214 c 256
 319 -214 369 -155 369 -78 c 256
 369 72 259 135 259 155 c 256
 259 199 315 239 333 266 c 257
 336 263 340 262 344 262 c 256
 350 262 357 261 363 261 c 256
 373 261 382 263 382 274 c 256
 382 327 354 369 317 396 c 256
 280 424 245 450 209 450 c 256
 174 450 147 436 85 354 c 256
 46 303 37 269 37 238 c 256
 37 194 57 155 120 155 c 256
 145 155 166 159 185 167 c 257
 184 161 183 156 183 150 c 256
 183 126 208 110 249 56 c 256
 291 0 301 -48 301 -77 c 256
 301 -124 276 -139 254 -139 c 256
 217 -139 137 -92 127 -54 c 257
 133 -42 191 -13 206 -6 c 257
 220 2 229 13 229 26 c 256
 229 43 215 56 193 56 c 256
 146 56 50 -12 50 -42 c 256
106 242 m 256
 106 259 112 278 142 320 c 256
 176 366 197 380 209 380 c 256
 219 380 263 359 285 337 c 257
 215 261 179 227 121 227 c 256
 110 227 106 232 106 242 c 256
EndSplineSet
PickledDataWithLists: "(dp0
Vcom.fontlab.hintData
p1
(dp2
Vhhints
p3
(lp4
(dp5
Vposition
p6
I-214
sVwidth
p7
I74
sa(dp8
g6
I155
sg7
I72
sa(dp9
g6
I261
sg7
I1
sa(dp10
g6
I380
sg7
I70
sasVvhints
p11
(lp12
(dp13
g6
I37
sg7
I70
sa(dp14
g6
I183
sg7
I76
sa(dp15
g6
I301
sg7
I68
sass."
Substitution2: "oneStoreyG subtable" uniE06E
EndChar

StartChar: germandbls
Encoding: 186 223 186
GlifName: germandbls
Width: 507
VWidth: 0
Flags: W
HStem: -26 62<334 355 334 370.5> -6 17 663 66<185 211>
VStem: 46 64<424 448.5 370 462.5> 60 59 303 64<536 563 514 563.5> 408 62<128 173>
AnchorPoint: "top" 253 756 basechar 0
AnchorPoint: "bottom" 270 22 basechar 0
LayerCount: 2
Fore
SplineSet
60 53 m 256
 66 16 76 -6 102 -6 c 256
 113 -6 119 11 119 46 c 256
 119 95 110 359 110 381 c 256
 110 516 126 508 131 554 c 257
 137 583 170 663 200 663 c 256
 222 663 253 644 267 629 c 256
 286 607 303 570 303 557 c 256
 303 515 299 488 278 450 c 257
 260 419 226 401 209 396 c 256
 197 393 177 374 177 361 c 256
 177 359 180 338 186 335 c 256
 189 333 194 334 200 334 c 256
 231 334 297 323 318 302 c 257
 372 260 408 208 408 138 c 256
 408 118 394 70 379 54 c 256
 367 41 358 36 352 36 c 256
 316 36 250 97 238 97 c 256
 217 97 206 87 206 70 c 256
 206 56 213 41 230 26 c 256
 260 -3 296 -26 350 -26 c 256
 391 -26 420 1 428 10 c 256
 461 51 470 99 470 151 c 256
 470 207 452 274 428 296 c 257
 394 329 416 311 362 347 c 256
 333 367 316 379 306 382 c 257
 348 417 367 487 367 541 c 256
 367 585 359 616 349 630 c 257
 323 677 265 729 203 729 c 256
 160 729 119 689 101 653 c 256
 51 551 46 499 46 426 c 256
 46 422 53 95 60 53 c 256
EndSplineSet
PickledDataWithLists: "(dp0
Vcom.fontlab.hintData
p1
(dp2
Vhhints
p3
(lp4
(dp5
Vposition
p6
I-26
sVwidth
p7
I62
sa(dp8
g6
I-6
sg7
I17
sa(dp9
g6
I663
sg7
I66
sasVvhints
p10
(lp11
(dp12
g6
I46
sg7
I64
sa(dp13
g6
I60
sg7
I59
sa(dp14
g6
I303
sg7
I64
sa(dp15
g6
I408
sg7
I62
sass."
EndChar

StartChar: grave
Encoding: 187 96 187
GlifName: grave
Width: 260
VWidth: 0
Flags: W
HStem: 526 210<47 221>
VStem: 14 242<547.5 708>
LayerCount: 2
Fore
SplineSet
78 618 m 256
 99 596 135 570 178 541 c 257
 191 531 204 526 214 526 c 256
 228 526 256 540 256 555 c 256
 256 560 251 571 237 582 c 257
 226 590 197 611 184 619 c 257
 158 637 146 644 125 670 c 256
 117 680 106 691 96 702 c 256
 86 713 82 720 80 722 c 257
 74 732 64 736 51 736 c 256
 43 736 38 733 30 728 c 257
 20 720 14 712 14 704 c 256
 14 688 36 661 78 618 c 256
EndSplineSet
PickledDataWithLists: "(dp0
Vcom.fontlab.hintData
p1
(dp2
Vhhints
p3
(lp4
(dp5
Vposition
p6
I526
sVwidth
p7
I210
sasVvhints
p8
(lp9
(dp10
g6
I14
sg7
I242
sass."
EndChar

StartChar: gravecomb
Encoding: 188 768 188
GlifName: gravecomb
Width: 0
VWidth: 0
HStem: 723 160<-328.5 -168>
VStem: -358 221
AnchorPoint: "top_1" -240 704 mark 0
AnchorPoint: "top_1" -243 902 basemark 0
AnchorPoint: "top" -240 704 mark 0
LayerCount: 2
Fore
SplineSet
-340 828 m 256
 -302 807 -220 723 -178 723 c 256
 -158 723 -138 732 -138 754 c 256
 -138 762 -149 772 -195 806 c 256
 -208 816 -229 831 -266 861 c 256
 -284 875 -300 883 -318 883 c 256
 -339 883 -358 873 -358 851 c 256
 -358 846 -354 836 -340 828 c 256
EndSplineSet
PickledDataWithLists: "(dp0
Vcom.fontlab.hintData
p1
(dp2
Vhhints
p3
(lp4
(dp5
Vposition
p6
I723
sVwidth
p7
I160
sasVvhints
p8
(lp9
(dp10
g6
I-358
sg7
I221
sass."
EndChar

StartChar: greater
Encoding: 189 62 189
GlifName: greater
Width: 456
VWidth: 0
Flags: W
HStem: 350 82
VStem: 54 82
LayerCount: 2
Fore
SplineSet
54 -8 m 256
 54 -21 67 -26 93 -26 c 256
 117 -26 131 -20 136 -2 c 257
 138 8 155 29 184 59 c 256
 240 118 285 133 344 162 c 256
 389 184 414 193 419 195 c 257
 445 203 451 225 451 243 c 256
 451 254 443 264 430 272 c 257
 392 293 408 286 360 307 c 256
 291 336 299 341 213 363 c 257
 186 371 111 399 90 410 c 257
 80 416 82 432 58 432 c 256
 44 432 18 395 18 373 c 256
 18 362 31 353 37 350 c 256
 75 332 112 314 138 306 c 257
 255 266 301 254 336 240 c 257
 325 232 304 223 286 213 c 257
 251 192 230 184 200 165 c 256
 165 143 150 128 120 94 c 256
 85 56 68 34 66 26 c 257
 64 15 54 3 54 -8 c 256
EndSplineSet
PickledDataWithLists: "(dp0
Vcom.fontlab.hintData
p1
(dp2
Vhhints
p3
(lp4
(dp5
Vposition
p6
I350
sVwidth
p7
I82
sasVvhints
p8
(lp9
(dp10
g6
I54
sg7
I82
sass."
EndChar

StartChar: guillemetleft
Encoding: 190 171 190
GlifName: guillemetleft
Width: 436
VWidth: 0
Flags: W
HStem: 48 67 77 58
LayerCount: 2
Fore
SplineSet
38 152 m 256
 49 131 54 135 80 109 c 257
 90 96 170 48 184 48 c 256
 192 48 221 60 221 78 c 256
 221 100 207 112 197 115 c 257
 176 120 149 144 128 157 c 257
 117 165 82 203 74 214 c 257
 80 225 105 259 134 286 c 256
 166 315 213 341 213 362 c 256
 213 384 205 395 189 395 c 256
 165 395 152 378 133 360 c 257
 99 331 85 315 56 280 c 256
 29 246 22 239 22 213 c 256
 22 194 27 173 38 152 c 256
202 192 m 257
 220 141 326 77 378 77 c 256
 404 77 426 84 426 110 c 256
 426 126 415 134 389 134 c 256
 365 134 345 147 323 160 c 256
 318 163 309 168 290 187 c 256
 279 198 272 207 269 210 c 257
 290 230 l 258
 304 244 321 257 336 269 c 257
 358 288 369 297 374 302 c 257
 380 307 386 311 386 314 c 256
 386 321 379 350 357 350 c 256
 346 350 334 344 326 334 c 257
 318 326 299 310 270 288 c 257
 227 258 197 239 197 210 c 256
 197 204 199 198 202 192 c 257
EndSplineSet
PickledDataWithLists: "(dp0
Vcom.fontlab.hintData
p1
(dp2
Vhhints
p3
(lp4
(dp5
Vposition
p6
I48
sVwidth
p7
I67
sa(dp8
g6
I77
sg7
I58
sass."
EndChar

StartChar: guillemetright
Encoding: 191 187 191
GlifName: guillemetright
Width: 404
VWidth: 0
Flags: W
VStem: 126 74<197 200>
LayerCount: 2
Fore
SplineSet
216 72 m 256
 216 58 227 51 238 51 c 256
 257 51 269 60 277 74 c 257
 282 82 293 92 307 110 c 257
 333 137 346 151 365 170 c 256
 375 180 387 181 389 197 c 257
 389 207 367 227 331 261 c 257
 313 277 304 293 294 307 c 257
 288 313 280 322 272 336 c 257
 261 357 242 386 216 386 c 256
 208 386 189 373 189 365 c 256
 189 360 192 351 198 341 c 256
 211 319 237 280 264 248 c 256
 294 211 305 208 315 202 c 257
 301 188 284 166 270 147 c 257
 246 118 216 99 216 72 c 256
34 98 m 256
 34 92 40 77 45 77 c 256
 59 77 75 84 85 94 c 256
 99 108 200 170 200 197 c 256
 200 219 162 232 118 307 c 257
 110 322 80 374 62 374 c 256
 41 374 37 357 37 336 c 256
 37 314 48 305 88 251 c 256
 107 225 120 208 126 200 c 257
 126 194 102 173 86 163 c 257
 41 133 34 127 34 98 c 256
EndSplineSet
PickledDataWithLists: "(dp0
Vcom.fontlab.hintData
p1
(dp2
Vvhints
p3
(lp4
(dp5
Vposition
p6
I126
sVwidth
p7
I74
sass."
EndChar

StartChar: guilsinglleft
Encoding: 192 8249 192
GlifName: guilsinglleft
Width: 316
VWidth: 0
Flags: W
HStem: 414 16
VStem: 30 238<25 202>
LayerCount: 2
Fore
SplineSet
30 199 m 256
 30 165 123 82 149 62 c 256
 176 42 212 2 235 2 c 256
 251 2 268 9 268 41 c 256
 268 54 264 62 255 71 c 257
 241 84 228 91 217 100 c 256
 206 109 190 125 163 143 c 257
 131 168 113 189 107 199 c 257
 125 229 135 226 167 263 c 257
 180 277 195 288 224 326 c 256
 253 364 268 377 268 397 c 256
 268 417 255 430 237 430 c 256
 226 430 213 425 206 414 c 256
 199 403 191 390 181 379 c 257
 141 330 158 359 97 289 c 256
 58 244 47 238 37 220 c 256
 31 209 30 205 30 199 c 256
EndSplineSet
PickledDataWithLists: "(dp0
Vcom.fontlab.hintData
p1
(dp2
Vhhints
p3
(lp4
(dp5
Vposition
p6
I414
sVwidth
p7
I16
sasVvhints
p8
(lp9
(dp10
g6
I30
sg7
I238
sass."
EndChar

StartChar: guilsinglright
Encoding: 193 8250 193
GlifName: guilsinglright
Width: 316
VWidth: 0
Flags: W
HStem: 414 16
VStem: 33 251<195 391.5>
LayerCount: 2
Fore
SplineSet
49 42 m 256
 49 22 57 12 79 12 c 256
 93 12 104 28 151 78 c 256
 193 123 284 172 284 218 c 256
 284 233 176 322 115 406 c 257
 104 424 88 430 74 430 c 256
 53 430 33 401 33 382 c 256
 33 375 56 350 98 304 c 256
 159 238 165 232 190 214 c 257
 179 196 146 170 121 143 c 256
 89 107 49 91 49 42 c 256
EndSplineSet
PickledDataWithLists: "(dp0
Vcom.fontlab.hintData
p1
(dp2
Vhhints
p3
(lp4
(dp5
Vposition
p6
I414
sVwidth
p7
I16
sasVvhints
p8
(lp9
(dp10
g6
I33
sg7
I251
sass."
EndChar

StartChar: h
Encoding: 194 104 194
GlifName: h
Width: 449
VWidth: 0
Flags: W
HStem: -2 17 333 83<306 320> 698 16
VStem: 54 73 323 68<250.5 270 264 297>
AnchorPoint: "top" 230 735 basechar 0
AnchorPoint: "bottom" 232 33 basechar 0
LayerCount: 2
Fore
SplineSet
69 -26 m 256
 83 -34 94 -35 99 -35 c 256
 118 -35 127 14 130 38 c 256
 138 104 143 120 170 171 c 256
 188 205 273 333 317 333 c 256
 323 333 323 320 323 297 c 256
 323 287 323 276 323 264 c 256
 323 152 326 186 326 98 c 256
 326 32 344 -2 389 -2 c 256
 405 -2 427 26 427 42 c 256
 427 61 401 71 398 74 c 256
 390 80 390 132 390 178 c 256
 390 203 391 236 391 265 c 256
 391 341 377 393 376 395 c 256
 371 406 359 416 341 416 c 256
 271 416 183 326 154 272 c 257
 138 246 129 232 126 232 c 257
 125 246 126 257 126 270 c 256
 126 296 126 329 126 389 c 256
 126 501 121 544 107 634 c 257
 99 677 100 714 62 714 c 256
 43 714 30 700 30 682 c 256
 30 674 32 669 35 661 c 257
 47 639 54 571 54 454 c 256
 54 372 51 267 51 136 c 256
 51 85 55 -18 69 -26 c 256
EndSplineSet
PickledDataWithLists: "(dp0
Vcom.fontlab.hintData
p1
(dp2
Vhhints
p3
(lp4
(dp5
Vposition
p6
I-2
sVwidth
p7
I17
sa(dp8
g6
I333
sg7
I83
sa(dp9
g6
I698
sg7
I16
sasVvhints
p10
(lp11
(dp12
g6
I54
sg7
I73
sa(dp13
g6
I323
sg7
I68
sass."
Substitution2: "'sups' Superscript lookup 19 subtable" uni02B0
EndChar

StartChar: hbar
Encoding: 195 295 195
GlifName: hbar
Width: 513
VWidth: 0
Flags: W
HStem: -7 9 295 82<340 343.5> 428 66<47 73 73 80> 434 67 719 16
VStem: 98 72 105 68<593 654 629 638> 106 79 382 89
AnchorPoint: "top" 262 751 basechar 0
AnchorPoint: "bottom" 280 33 basechar 0
LayerCount: 2
Fore
SplineSet
106 91 m 256
 111 61 110 24 132 5 c 256
 139 -1 151 -7 162 -7 c 256
 167 -7 172 -5 176 -3 c 256
 187 3 183 21 186 34 c 256
 203 99 229 180 267 228 c 256
 284 248 309 287 334 294 c 256
 336 295 339 295 341 295 c 256
 346 295 352 293 354 290 c 256
 388 248 377 158 382 105 c 256
 386 63 392 5 421 -12 c 256
 424 -14 429 -15 434 -15 c 256
 469 -15 470 20 470 24 c 256
 470 46 460 71 458 93 c 256
 454 150 449 217 439 272 c 256
 432 314 394 377 340 377 c 256
 270 377 211 277 173 211 c 257
 172 244 170 311 170 366 c 256
 170 379 170 391 170 402 c 258
 170 435 l 257
 188 435 l 258
 211 435 232 434 255 434 c 256
 269 434 280 433 294 433 c 258
 334 433 l 258
 400 433 407 439 410 442 c 256
 420 451 429 462 429 473 c 256
 429 499 394 498 370 498 c 257
 337 500 306 502 272 502 c 256
 238 502 203 501 170 499 c 257
 170 541 173 588 173 629 c 256
 173 638 173 645 173 654 c 256
 173 673 171 691 161 708 c 257
 154 722 144 735 127 735 c 257
 109 731 111 700 108 682 c 256
 106 668 105 652 105 638 c 256
 105 624 105 610 105 596 c 256
 105 590 103 504 102 494 c 257
 73 494 l 258
 19 494 11 470 11 466 c 256
 11 462 18 428 76 428 c 256
 84 428 93 429 101 430 c 257
 101 418 100 406 100 395 c 256
 100 357 98 320 98 282 c 256
 98 273 98 264 98 254 c 256
 98 218 101 179 103 142 c 257
 105 126 103 108 106 91 c 256
EndSplineSet
PickledDataWithLists: "(dp0
Vcom.fontlab.hintData
p1
(dp2
Vhhints
p3
(lp4
(dp5
Vposition
p6
I-7
sVwidth
p7
I9
sa(dp8
g6
I295
sg7
I82
sa(dp9
g6
I428
sg7
I66
sa(dp10
g6
I434
sg7
I67
sa(dp11
g6
I719
sg7
I16
sasVvhints
p12
(lp13
(dp14
g6
I98
sg7
I72
sa(dp15
g6
I105
sg7
I68
sa(dp16
g6
I106
sg7
I79
sa(dp17
g6
I382
sg7
I89
sass."
EndChar

StartChar: hungarumlautcomb
Encoding: 196 779 196
GlifName: hungarumlautcomb
Width: 0
VWidth: 0
HStem: 741 221
AnchorPoint: "top_1" -288 712 mark 0
AnchorPoint: "top_1" -243 974 basemark 0
AnchorPoint: "top" -288 712 mark 0
LayerCount: 2
Fore
SplineSet
-257 821 m 256
 -257 807 -234 778 -215 778 c 256
 -201 778 -188 789 -177 810 c 256
 -172 820 -148 849 -122 876 c 256
 -87 911 -75 926 -75 939 c 256
 -75 945 -77 962 -98 962 c 256
 -119 962 -152 945 -178 919 c 257
 -204 895 -242 850 -252 835 c 256
 -255 830 -257 826 -257 821 c 256
-446 776 m 256
 -446 742 -413 741 -409 741 c 256
 -403 741 -396 742 -394 746 c 256
 -389 753 -372 834 -326 866 c 257
 -293 888 -281 903 -281 917 c 256
 -281 935 -291 944 -310 944 c 256
 -369 944 -446 838 -446 776 c 256
EndSplineSet
PickledDataWithLists: "(dp0
Vcom.fontlab.hintData
p1
(dp2
Vhhints
p3
(lp4
(dp5
Vposition
p6
I741
sVwidth
p7
I221
sass."
EndChar

StartChar: hyphen
Encoding: 197 45 197
GlifName: hyphen
Width: 328
VWidth: 0
Flags: W
HStem: 173 86 173 62<262 262>
LayerCount: 2
Fore
SplineSet
26 197 m 256
 50 173 192 173 262 173 c 256
 286 173 323 194 323 216 c 256
 323 238 298 233 261 235 c 256
 218 237 188 242 170 248 c 257
 151 256 124 259 90 259 c 256
 68 259 56 258 48 256 c 257
 35 251 13 231 13 218 c 256
 13 212 18 205 26 197 c 256
EndSplineSet
PickledDataWithLists: "(dp0
Vcom.fontlab.hintData
p1
(dp2
Vhhints
p3
(lp4
(dp5
Vposition
p6
I173
sVwidth
p7
I86
sa(dp8
g6
I173
sg7
I62
sass."
EndChar

StartChar: idotless
Encoding: 202 305 202
GlifName: idotless
Width: 201
VWidth: 0
Flags: W
HStem: -2 17 422 16
VStem: 74 66 78 80<26 26>
AnchorPoint: "top" 94 502 basechar 0
AnchorPoint: "bottom" 114 26 basechar 0
LayerCount: 2
Fore
SplineSet
78 26 m 256
 80 9 95 -2 118 -2 c 256
 154 -2 158 12 158 26 c 256
 158 37 152 50 150 54 c 257
 147 64 140 109 140 139 c 256
 140 191 136 298 129 370 c 256
 126 406 116 438 93 438 c 256
 73 438 57 423 57 398 c 256
 57 388 58 378 60 371 c 256
 69 327 74 58 78 26 c 256
EndSplineSet
PickledDataWithLists: "(dp0
Vcom.fontlab.hintData
p1
(dp2
Vhhints
p3
(lp4
(dp5
Vposition
p6
I-2
sVwidth
p7
I17
sa(dp8
g6
I422
sg7
I16
sasVvhints
p9
(lp10
(dp11
g6
I74
sg7
I66
sa(dp12
g6
I78
sg7
I80
sass."
EndChar

StartChar: iogonek
Encoding: 205 303 205
GlifName: iogonek
Width: 193
VWidth: 0
Flags: W
HStem: -289 77<117 154> 415 16 538 66
VStem: 2 67 36 75 74 66<91.5 154>
AnchorPoint: "top" 94 711 basechar 0
AnchorPoint: "bottom" 119 -262 basechar 0
LayerCount: 2
Fore
SplineSet
36 680 m 256
 36 639 81 538 130 538 c 256
 148 538 170 549 170 563 c 256
 170 571 161 600 154 604 c 257
 138 609 117 641 111 656 c 256
 101 683 88 703 62 703 c 256
 50 703 36 690 36 680 c 256
2 -160 m 257
 2 -198 6 -220 36 -246 c 257
 68 -275 92 -289 135 -289 c 256
 173 -289 289 -256 289 -213 c 256
 289 -203 278 -198 260 -198 c 256
 221 -198 200 -212 138 -212 c 256
 96 -212 70 -173 70 -150 c 256
 70 -88 101 -43 138 3 c 256
 144 11 147 16 150 20 c 256
 155 26 158 31 158 40 c 256
 158 69 140 87 140 154 c 257
 138 212 135 280 127 359 c 257
 124 400 113 431 91 431 c 256
 71 431 55 418 55 392 c 256
 55 381 56 370 58 362 c 256
 64 329 69 243 74 101 c 257
 74 82 77 56 79 36 c 257
 73 24 65 14 58 3 c 257
 46 -19 29 -42 20 -66 c 256
 9 -96 3 -154 2 -160 c 257
EndSplineSet
PickledDataWithLists: "(dp0
Vcom.fontlab.hintData
p1
(dp2
Vhhints
p3
(lp4
(dp5
Vposition
p6
I-289
sVwidth
p7
I77
sa(dp8
g6
I415
sg7
I16
sa(dp9
g6
I538
sg7
I66
sasVvhints
p10
(lp11
(dp12
g6
I2
sg7
I67
sa(dp13
g6
I36
sg7
I75
sa(dp14
g6
I74
sg7
I66
sass."
EndChar

StartChar: j
Encoding: 206 106 206
GlifName: j
Width: 200
VWidth: 0
Flags: W
HStem: -214 72<64.5 78 50 93> -182 69 418 16
VStem: 68 67<287.5 384> 97 69<-95.5 -55.5>
AnchorPoint: "top" 106 697 basechar 0
AnchorPoint: "bottom" 88 -183 basechar 0
LayerCount: 2
Fore
SplineSet
46 594 m 256
 65 572 95 525 113 525 c 256
 142 525 164 528 164 560 c 256
 164 578 159 587 151 592 c 256
 141 598 98 669 76 669 c 256
 50 669 26 653 26 635 c 256
 26 625 33 610 46 594 c 256
-66 -139 m 256
 -66 -158 -56 -174 -30 -182 c 256
 -4 -190 43 -214 86 -214 c 256
 100 -214 116 -211 124 -203 c 256
 151 -176 166 -128 166 -64 c 256
 166 -24 154 16 148 59 c 256
 137 141 135 242 135 333 c 257
 133 387 128 413 122 419 c 256
 114 427 96 434 86 434 c 256
 68 434 68 397 68 371 c 256
 68 296 74 153 82 59 c 256
 90 -16 97 -34 97 -77 c 256
 97 -114 93 -142 63 -142 c 256
 37 -142 -11 -114 -33 -114 c 256
 -49 -114 -66 -121 -66 -139 c 256
EndSplineSet
PickledDataWithLists: "(dp0
Vcom.fontlab.hintData
p1
(dp2
Vhhints
p3
(lp4
(dp5
Vposition
p6
I-214
sVwidth
p7
I72
sa(dp8
g6
I-182
sg7
I69
sa(dp9
g6
I418
sg7
I16
sasVvhints
p10
(lp11
(dp12
g6
I68
sg7
I67
sa(dp13
g6
I97
sg7
I69
sass."
Substitution2: "'sups' Superscript lookup 19 subtable" uni02B2
EndChar

StartChar: jdotless
Encoding: 207 567 207
GlifName: jdotless
Width: 187
VWidth: 0
Flags: W
HStem: -231 69<42 72 41.5 101> -200 75 424 16
VStem: 58 66 94 64<-103 -60>
AnchorPoint: "top" 90 490 basechar 0
AnchorPoint: "bottom" 88 -183 basechar 0
LayerCount: 2
Fore
SplineSet
-85 -152 m 256
 -85 -173 -72 -192 -45 -200 c 256
 -18 -208 18 -231 66 -231 c 256
 136 -231 158 -148 158 -70 c 256
 158 -12 128 88 128 179 c 256
 128 238 125 266 125 330 c 257
 123 389 123 431 113 434 c 257
 102 439 93 440 82 440 c 256
 63 440 58 399 58 370 c 256
 58 291 66 114 74 66 c 256
 79 36 94 -37 94 -83 c 256
 94 -123 89 -162 55 -162 c 256
 28 -162 -24 -125 -48 -125 c 256
 -66 -125 -85 -133 -85 -152 c 256
EndSplineSet
PickledDataWithLists: "(dp0
Vcom.fontlab.hintData
p1
(dp2
Vhhints
p3
(lp4
(dp5
Vposition
p6
I-231
sVwidth
p7
I69
sa(dp8
g6
I-200
sg7
I75
sa(dp9
g6
I424
sg7
I16
sasVvhints
p10
(lp11
(dp12
g6
I58
sg7
I66
sa(dp13
g6
I94
sg7
I64
sass."
EndChar

StartChar: k
Encoding: 208 107 208
GlifName: k
Width: 453
VWidth: 0
Flags: W
HStem: -8 67<362.5 388> 8 51
VStem: 42 69<644 666 624.5 670.5> 74 70 76 82
AnchorPoint: "top" 214 726 basechar 0
AnchorPoint: "bottom" 248 33 basechar 0
LayerCount: 2
Fore
SplineSet
74 80 m 256
 74 10 77 -8 110 -8 c 256
 128 -8 158 3 158 27 c 256
 158 44 145 37 145 93 c 257
 150 90 164 82 180 69 c 256
 230 27 283 4 337 -6 c 257
 353 -8 361 -8 364 -8 c 256
 380 -8 409 3 422 8 c 257
 432 13 442 27 442 38 c 256
 442 49 431 59 420 59 c 258
 388 59 l 258
 370 59 358 59 350 62 c 257
 331 67 287 94 268 104 c 257
 231 130 197 165 183 179 c 257
 196 190 228 215 249 234 c 256
 279 263 324 309 340 328 c 256
 366 357 372 350 372 376 c 256
 372 394 367 400 353 400 c 256
 342 400 268 348 260 338 c 257
 243 312 166 255 138 238 c 257
 136 252 139 267 134 310 c 256
 129 363 126 509 118 554 c 256
 113 580 111 606 111 643 c 256
 111 689 108 707 79 707 c 256
 53 707 42 680 42 661 c 256
 42 627 57 514 57 506 c 256
 57 378 68 328 70 208 c 256
 72 130 74 88 74 80 c 256
EndSplineSet
PickledDataWithLists: "(dp0
Vcom.fontlab.hintData
p1
(dp2
Vhhints
p3
(lp4
(dp5
Vposition
p6
I-8
sVwidth
p7
I67
sa(dp8
g6
I8
sg7
I51
sasVvhints
p9
(lp10
(dp11
g6
I42
sg7
I69
sa(dp12
g6
I74
sg7
I70
sa(dp13
g6
I76
sg7
I82
sass."
EndChar

StartChar: l
Encoding: 210 108 210
GlifName: l
Width: 232
VWidth: 0
Flags: W
HStem: -13 69<139 160.5> 721 20<70 88.5>
VStem: 49 69<423 423.5>
AnchorPoint: "top" 102 786 basechar 0
AnchorPoint: "bottom" 136 33 basechar 0
LayerCount: 2
Fore
SplineSet
52 93 m 256
 58 51 73 16 111 -3 c 257
 124 -11 135 -13 143 -13 c 256
 164 -13 226 24 226 50 c 256
 226 66 204 69 188 69 c 256
 175 69 163 56 158 56 c 256
 150 56 142 58 137 64 c 256
 111 94 116 160 113 277 c 256
 113 280 113 283 113 287 c 256
 113 320 118 384 118 462 c 256
 118 464 117 527 117 558 c 256
 117 599 118 640 118 670 c 256
 118 697 117 715 116 718 c 256
 111 732 95 741 82 741 c 256
 58 741 50 733 50 712 c 256
 50 582 49 497 49 350 c 256
 49 238 49 119 52 93 c 256
EndSplineSet
PickledDataWithLists: "(dp0
Vcom.fontlab.hintData
p1
(dp2
Vhhints
p3
(lp4
(dp5
Vposition
p6
I-13
sVwidth
p7
I69
sa(dp8
g6
I721
sg7
I20
sasVvhints
p9
(lp10
(dp11
g6
I49
sg7
I69
sass."
Substitution2: "'sups' Superscript lookup 19 subtable" uni02E1
EndChar

StartChar: less
Encoding: 214 60 214
GlifName: less
Width: 457
VWidth: 0
Flags: W
HStem: -19 17 366 61
VStem: 32 75<205 209>
LayerCount: 2
Fore
SplineSet
61 150 m 256
 96 120 116 112 162 90 c 256
 287 31 319 17 354 -5 c 257
 368 -13 377 -19 403 -19 c 257
 432 -17 446 -11 446 2 c 256
 446 24 358 73 328 90 c 256
 261 127 241 122 166 168 c 257
 137 187 107 202 107 208 c 256
 107 218 330 360 381 366 c 257
 407 371 410 381 410 397 c 256
 410 405 372 427 362 427 c 256
 354 427 347 426 344 421 c 257
 342 418 331 412 310 402 c 257
 264 376 253 369 221 347 c 256
 115 273 56 251 54 250 c 257
 40 245 32 216 32 202 c 256
 32 186 39 169 61 150 c 256
EndSplineSet
PickledDataWithLists: "(dp0
Vcom.fontlab.hintData
p1
(dp2
Vhhints
p3
(lp4
(dp5
Vposition
p6
I-19
sVwidth
p7
I17
sa(dp8
g6
I366
sg7
I61
sasVvhints
p9
(lp10
(dp11
g6
I32
sg7
I75
sass."
EndChar

StartChar: lslash
Encoding: 215 322 215
GlifName: lslash
Width: 416
VWidth: 0
Flags: W
HStem: 2 75<253 255.5>
VStem: 158 69 158 61<154 290 275 290 275 320> 164 70<626 692>
AnchorPoint: "top" 206 762 basechar 0
AnchorPoint: "bottom" 237 28 basechar 0
LayerCount: 2
Fore
SplineSet
16 258 m 256
 16 251 36 233 48 233 c 256
 54 233 70 244 97 269 c 256
 115 285 136 302 158 320 c 257
 158 238 l 258
 158 206 158 180 158 154 c 256
 158 71 161 64 187 32 c 257
 203 14 214 2 243 2 c 256
 268 2 292 1 314 23 c 256
 340 49 340 41 367 63 c 256
 374 69 378 77 378 86 c 256
 378 103 358 117 338 117 c 256
 300 117 295 77 264 77 c 256
 242 77 226 90 226 108 c 256
 226 162 221 213 219 275 c 257
 219 305 220 347 221 372 c 257
 234 383 245 393 255 401 c 257
 276 422 319 449 349 485 c 257
 355 491 358 497 358 503 c 256
 358 512 352 525 334 525 c 256
 311 525 277 503 262 487 c 256
 252 477 240 466 226 453 c 257
 226 465 226 477 226 487 c 256
 226 517 232 563 232 588 c 256
 232 618 234 646 234 675 c 256
 234 709 228 722 199 722 c 256
 187 722 179 719 173 713 c 257
 167 706 164 676 164 626 c 256
 163 518 162 483 160 399 c 257
 146 389 132 382 115 368 c 256
 89 346 70 326 52 310 c 257
 32 294 16 277 16 258 c 256
EndSplineSet
PickledDataWithLists: "(dp0
Vcom.fontlab.hintData
p1
(dp2
Vhhints
p3
(lp4
(dp5
Vposition
p6
I2
sVwidth
p7
I75
sasVvhints
p8
(lp9
(dp10
g6
I158
sg7
I69
sa(dp11
g6
I158
sg7
I61
sa(dp12
g6
I164
sg7
I70
sass."
EndChar

StartChar: m
Encoding: 216 109 216
GlifName: m
Width: 708
VWidth: 0
Flags: W
HStem: -6 21<86.5 101> 430 3
VStem: 61 63 283 69<140 142.5 138 188> 295 68 578 69<178 344.5>
AnchorPoint: "top" 347 479 basechar 0
AnchorPoint: "bottom" 352 33 basechar 0
LayerCount: 2
Fore
SplineSet
61 27 m 256
 62 8 77 -6 96 -6 c 256
 106 -6 115 -2 121 6 c 256
 169 64 228 233 286 315 c 256
 289 320 293 324 295 328 c 257
 293 280 283 213 283 163 c 256
 283 117 291 58 350 58 c 256
 372 58 384 72 394 82 c 256
 404 93 415 107 425 123 c 256
 446 154 467 198 490 239 c 256
 508 270 551 334 577 360 c 257
 577 352 l 257
 578 331 578 306 578 279 c 256
 578 265 578 180 578 178 c 256
 578 47 594 -2 650 -2 c 256
 669 -2 685 17 685 36 c 256
 685 54 675 58 662 61 c 257
 649 63 646 113 646 186 c 256
 646 228 647 273 647 315 c 256
 647 374 647 448 596 450 c 257
 560 450 531 420 510 391 c 256
 469 337 416 231 368 161 c 256
 362 152 357 144 352 138 c 257
 352 140 l 258
 352 145 351 151 351 157 c 256
 351 211 363 284 363 336 c 256
 363 338 364 350 364 363 c 256
 364 421 325 425 316 425 c 256
 295 425 279 415 267 404 c 256
 229 366 152 202 124 143 c 257
 120 255 107 349 100 399 c 256
 98 417 80 430 62 430 c 256
 40 430 31 415 31 402 c 256
 31 391 33 384 34 374 c 257
 47 300 55 201 61 27 c 256
EndSplineSet
PickledDataWithLists: "(dp0
Vcom.fontlab.hintData
p1
(dp2
Vhhints
p3
(lp4
(dp5
Vposition
p6
I-6
sVwidth
p7
I21
sa(dp8
g6
I430
sg7
I3
sasVvhints
p9
(lp10
(dp11
g6
I61
sg7
I63
sa(dp12
g6
I283
sg7
I69
sa(dp13
g6
I295
sg7
I68
sa(dp14
g6
I578
sg7
I69
sass."
EndChar

StartChar: macron
Encoding: 217 175 217
GlifName: macron
Width: 332
VWidth: 0
Flags: W
HStem: 562 74 568 68
LayerCount: 2
Fore
SplineSet
76 560 m 256
 88 560 100 562 112 562 c 258
 140 562 l 258
 186 562 245 562 263 568 c 256
 297 579 315 592 315 615 c 256
 315 617 315 619 315 621 c 257
 314 628 272 636 258 636 c 257
 253 637 248 637 242 637 c 256
 226 637 210 635 194 635 c 258
 110 635 l 258
 104 635 97 634 91 634 c 256
 88 634 85 634 82 635 c 257
 72 635 56 643 43 643 c 256
 27 643 13 617 13 603 c 256
 13 574 52 560 76 560 c 256
EndSplineSet
PickledDataWithLists: "(dp0
Vcom.fontlab.hintData
p1
(dp2
Vhhints
p3
(lp4
(dp5
Vposition
p6
I562
sVwidth
p7
I74
sa(dp8
g6
I568
sg7
I68
sass."
EndChar

StartChar: macroncomb
Encoding: 218 772 218
GlifName: macroncomb
Width: 0
VWidth: 0
HStem: 752 74 758 68
AnchorPoint: "top_1" -240 704 mark 0
AnchorPoint: "top_1" -243 834 basemark 0
AnchorPoint: "top" -240 704 mark 0
LayerCount: 2
Fore
SplineSet
-344 730 m 256
 -332 730 -319 732 -307 732 c 258
 -279 732 l 258
 -233 732 -174 732 -156 738 c 256
 -122 749 -104 763 -104 786 c 256
 -104 788 -104 789 -104 791 c 257
 -105 798 -147 806 -161 806 c 257
 -167 807 -171 807 -177 807 c 256
 -193 807 -211 806 -226 806 c 258
 -309 806 l 258
 -315 806 -322 805 -328 805 c 256
 -331 805 -335 805 -338 806 c 257
 -348 806 -363 814 -376 814 c 256
 -392 814 -406 788 -406 774 c 256
 -406 746 -367 730 -344 730 c 256
EndSplineSet
PickledDataWithLists: "(dp0
Vcom.fontlab.hintData
p1
(dp2
Vhhints
p3
(lp4
(dp5
Vposition
p6
I752
sVwidth
p7
I74
sa(dp8
g6
I758
sg7
I68
sass."
EndChar

StartChar: minus
Encoding: 219 8722 219
GlifName: minus
Width: 472
VWidth: 0
Flags: W
HStem: 307 78 318 83
LayerCount: 2
Fore
SplineSet
114 318 m 258
 158 318 l 258
 356 318 345 307 402 307 c 256
 436 307 456 318 456 355 c 256
 456 382 454 372 424 378 c 257
 403 383 372 386 330 386 c 256
 232 386 272 402 150 402 c 256
 27 402 27 393 27 362 c 256
 27 323 34 318 114 318 c 258
EndSplineSet
PickledDataWithLists: "(dp0
Vcom.fontlab.hintData
p1
(dp2
Vhhints
p3
(lp4
(dp5
Vposition
p6
I307
sVwidth
p7
I78
sa(dp8
g6
I318
sg7
I83
sass."
EndChar

StartChar: multiply
Encoding: 220 215 220
GlifName: multiply
Width: 472
VWidth: 0
Flags: W
LayerCount: 2
Fore
SplineSet
64 45 m 256
 64 27 92 10 106 10 c 256
 122 10 152 51 163 64 c 256
 168 70 188 96 206 114 c 256
 224 132 235 145 243 155 c 257
 248 150 259 142 261 139 c 257
 264 134 270 130 286 114 c 256
 313 87 375 18 394 18 c 256
 415 18 438 32 438 58 c 256
 438 66 432 71 429 74 c 257
 415 90 397 103 392 109 c 257
 377 132 290 221 290 227 c 256
 290 232 403 348 414 362 c 256
 422 372 426 382 426 392 c 256
 426 416 424 427 402 427 c 256
 384 427 369 421 358 410 c 257
 337 391 335 382 325 374 c 257
 320 371 276 317 274 314 c 257
 269 308 247 277 237 267 c 257
 232 270 228 277 218 282 c 257
 197 296 169 322 139 360 c 256
 89 421 88 421 78 421 c 256
 65 421 30 397 30 378 c 256
 30 354 100 298 150 242 c 257
 161 229 187 203 187 203 c 257
 179 195 160 176 154 168 c 257
 152 166 127 128 125 125 c 257
 119 117 108 109 90 91 c 256
 72 73 64 59 64 45 c 256
EndSplineSet
EndChar

StartChar: n
Encoding: 221 110 221
GlifName: n
Width: 462
VWidth: 0
Flags: W
HStem: -11 17 362 74 437 16
VStem: 54 66<278 352 296 352> 338 70<223 296.5>
AnchorPoint: "top" 238 486 basechar 0
AnchorPoint: "bottom" 240 33 basechar 0
LayerCount: 2
Fore
SplineSet
101 -11 m 256
 127 -11 140 5 146 26 c 256
 180 148 224 242 256 306 c 256
 270 335 288 362 304 362 c 256
 336 362 338 334 338 259 c 256
 338 130 334 92 334 90 c 256
 334 73 336 46 338 34 c 256
 341 13 349 -4 376 -6 c 257
 402 -6 424 -3 424 29 c 256
 424 47 411 59 408 78 c 256
 407 81 407 95 407 113 c 256
 407 149 408 204 408 242 c 256
 408 405 387 435 323 435 c 256
 249 435 233 415 206 365 c 256
 174 307 147 254 128 195 c 257
 126 213 120 338 120 352 c 257
 118 411 120 429 107 443 c 257
 101 448 97 453 91 453 c 256
 90 453 91 453 90 453 c 256
 68 453 40 420 38 397 c 257
 38 391 43 387 48 384 c 256
 54 379 54 366 54 338 c 256
 54 327 54 313 54 296 c 256
 54 260 66 -11 101 -11 c 256
EndSplineSet
PickledDataWithLists: "(dp0
Vcom.fontlab.hintData
p1
(dp2
Vhhints
p3
(lp4
(dp5
Vposition
p6
I-11
sVwidth
p7
I17
sa(dp8
g6
I362
sg7
I74
sa(dp9
g6
I437
sg7
I16
sasVvhints
p10
(lp11
(dp12
g6
I54
sg7
I66
sa(dp13
g6
I338
sg7
I70
sass."
Substitution2: "'sups' Superscript lookup 19 subtable" uni207F
EndChar

StartChar: nine
Encoding: 226 57 226
GlifName: nine
Width: 435
VWidth: 0
Flags: W
HStem: -269 17 13 82 360 75<200.5 208.5 173.5 227>
VStem: 34 70<169.5 198.5 133.5 233> 285 67<-187.5 -141.5 -198 -115>
LayerCount: 2
Fore
SplineSet
104 152 m 256
 104 245 114 288 154 331 c 257
 176 357 187 360 214 360 c 256
 240 360 278 331 288 285 c 257
 296 251 304 237 314 234 c 257
 306 223 302 214 296 206 c 256
 256 156 215 113 194 102 c 257
 183 97 171 94 163 94 c 256
 126 94 104 115 104 152 c 256
43 94 m 256
 51 67 98 13 133 13 c 256
 197 13 294 104 336 154 c 257
 328 104 320 74 312 24 c 257
 309 -5 285 -56 285 -174 c 256
 285 -201 284 -222 286 -230 c 256
 289 -244 309 -269 323 -269 c 256
 342 -269 352 -233 352 -163 c 256
 352 -120 360 -70 363 -48 c 256
 366 -29 385 33 387 59 c 256
 389 83 399 179 405 205 c 257
 413 247 419 261 419 277 c 256
 419 315 402 315 395 315 c 256
 382 315 371 307 358 296 c 257
 336 371 309 399 256 426 c 257
 243 434 222 435 195 435 c 256
 152 435 114 404 85 358 c 257
 55 307 34 274 34 192 c 256
 34 147 37 113 43 94 c 256
EndSplineSet
PickledDataWithLists: "(dp0
Vcom.fontlab.hintData
p1
(dp2
Vhhints
p3
(lp4
(dp5
Vposition
p6
I-269
sVwidth
p7
I17
sa(dp8
g6
I13
sg7
I82
sa(dp9
g6
I360
sg7
I75
sasVvhints
p10
(lp11
(dp12
g6
I34
sg7
I70
sa(dp13
g6
I285
sg7
I67
sass."
EndChar

StartChar: numbersign
Encoding: 228 35 228
GlifName: numbersign
Width: 428
VWidth: 0
Flags: W
HStem: 224 64<110 118 118 118> 248 70<290 290> 272 61 424 72<131 134> 443 72<349 382 349 382>
VStem: 117 64<64.5 94 64.5 112.5> 134 53 146 64<559 622> 290 62<318 337 330 337 330 442> 290 58
LayerCount: 2
Fore
SplineSet
19 254 m 257
 29 224 60 224 86 224 c 258
 118 224 l 257
 118 205 117 147 117 78 c 256
 117 51 122 32 138 24 c 257
 149 19 164 10 174 10 c 256
 191 10 203 27 203 43 c 256
 203 63 181 52 181 77 c 256
 181 111 182 187 187 224 c 257
 219 229 264 240 290 248 c 257
 290 170 l 258
 290 112 306 96 320 96 c 256
 322 96 326 97 334 102 c 257
 340 105 347 119 347 146 c 256
 347 245 354 225 354 267 c 257
 367 270 377 270 390 272 c 257
 416 274 424 281 424 307 c 256
 424 329 414 333 392 333 c 256
 370 333 362 333 352 330 c 257
 352 344 350 422 350 446 c 257
 353 447 357 447 359 447 c 256
 370 447 374 443 380 443 c 258
 382 443 l 257
 400 446 411 463 411 480 c 256
 411 486 408 490 397 504 c 256
 389 514 375 515 349 515 c 257
 349 534 356 549 356 556 c 256
 356 576 339 590 325 590 c 256
 301 590 296 573 294 514 c 257
 259 514 237 510 205 507 c 257
 210 533 210 589 210 611 c 256
 210 633 209 639 187 643 c 257
 185 643 182 644 180 644 c 256
 146 644 146 610 146 576 c 256
 146 542 141 512 139 496 c 257
 123 496 102 490 59 485 c 257
 18 482 13 481 13 448 c 256
 13 430 21 429 32 421 c 257
 42 413 54 411 67 411 c 256
 75 411 80 413 85 416 c 257
 88 419 118 424 134 424 c 257
 134 397 126 317 123 288 c 257
 97 288 70 301 51 301 c 256
 33 301 16 285 16 269 c 256
 16 267 17 262 19 254 c 257
187 294 m 257
 187 334 194 413 197 434 c 257
 229 437 250 442 290 442 c 257
 290 318 l 257
 268 312 200 294 187 294 c 257
EndSplineSet
PickledDataWithLists: "(dp0
Vcom.fontlab.hintData
p1
(dp2
Vhhints
p3
(lp4
(dp5
Vposition
p6
I224
sVwidth
p7
I64
sa(dp8
g6
I248
sg7
I70
sa(dp9
g6
I272
sg7
I61
sa(dp10
g6
I424
sg7
I72
sa(dp11
g6
I443
sg7
I72
sasVvhints
p12
(lp13
(dp14
g6
I117
sg7
I64
sa(dp15
g6
I134
sg7
I53
sa(dp16
g6
I146
sg7
I64
sa(dp17
g6
I290
sg7
I62
sa(dp18
g6
I290
sg7
I58
sass."
EndChar

StartChar: o
Encoding: 229 111 229
GlifName: o
Width: 428
VWidth: 0
Flags: W
HStem: -8 65<183.5 199 183.5 212> 370 65<209 263>
VStem: 37 70<214 231.5 186 279.5> 330 62<240 273.5>
AnchorPoint: "bottom" 221 23 basechar 0
AnchorPoint: "top" 224 474 basechar 0
LayerCount: 2
Fore
SplineSet
150 84 m 256
 121 118 107 155 107 217 c 256
 107 246 110 278 118 294 c 257
 144 352 176 370 242 370 c 256
 284 370 289 363 315 334 c 257
 323 324 330 292 330 255 c 256
 330 225 328 188 320 174 c 257
 310 152 290 125 258 98 c 257
 229 72 208 57 190 57 c 256
 177 57 166 65 150 84 c 256
70 78 m 256
 97 27 142 -8 191 -8 c 256
 233 -8 262 15 298 46 c 256
 336 79 366 122 377 146 c 256
 391 177 392 221 392 259 c 256
 392 387 357 435 229 435 c 256
 147 435 114 406 72 358 c 256
 50 332 37 301 37 258 c 256
 37 170 56 104 70 78 c 256
EndSplineSet
PickledDataWithLists: "(dp0
Vcom.fontlab.hintData
p1
(dp2
Vhhints
p3
(lp4
(dp5
Vposition
p6
I-8
sVwidth
p7
I65
sa(dp8
g6
I370
sg7
I65
sasVvhints
p9
(lp10
(dp11
g6
I37
sg7
I70
sa(dp12
g6
I330
sg7
I62
sass."
Substitution2: "Single Substitution lookup 18 subtable" ordmasculine
EndChar

StartChar: oe
Encoding: 233 339 233
GlifName: oe
Width: 630
VWidth: 0
Flags: W
HStem: -1 69<201 202 186 212> 31 84 370 75 372 67<185 203.5>
VStem: 39 62 278 76 519 61<298.5 330.5 285 334>
AnchorPoint: "top" 312 482 basechar 0
AnchorPoint: "bottom" 326 25 basechar 0
LayerCount: 2
Fore
SplineSet
47 127 m 257
 57 81 108 27 142 8 c 256
 153 2 200 -1 202 -1 c 256
 222 -1 267 22 304 66 c 256
 314 77 322 93 328 111 c 257
 330 107 331 103 333 99 c 256
 351 57 405 4 449 4 c 256
 507 4 525 16 562 31 c 256
 597 45 618 80 618 98 c 256
 618 110 604 115 582 115 c 256
 571 115 568 113 566 111 c 256
 552 95 492 71 470 71 c 256
 436 71 420 83 401 106 c 256
 395 114 385 145 378 170 c 256
 377 175 376 179 375 183 c 257
 429 195 517 220 554 238 c 256
 575 248 580 268 580 302 c 256
 580 359 565 384 539 406 c 256
 511 430 471 446 422 446 c 256
 374 446 327 413 306 366 c 257
 280 409 246 439 192 439 c 256
 154 439 108 421 83 383 c 256
 59 346 39 316 39 229 c 256
 39 191 42 157 47 127 c 257
142 89 m 256
 112 113 102 133 102 216 c 256
 102 242 102 287 116 313 c 256
 144 363 174 372 196 372 c 256
 211 372 233 355 249 335 c 257
 271 311 278 240 278 206 c 258
 278 186 l 258
 278 149 268 127 246 97 c 256
 236 83 210 68 194 68 c 256
 178 68 160 75 142 89 c 256
361 246 m 257
 358 267 354 289 354 299 c 256
 354 326 384 370 418 370 c 256
 475 370 519 361 519 307 c 256
 519 290 515 288 497 282 c 256
 470 273 403 255 361 246 c 257
EndSplineSet
PickledDataWithLists: "(dp0
Vcom.fontlab.hintData
p1
(dp2
Vhhints
p3
(lp4
(dp5
Vposition
p6
I-1
sVwidth
p7
I69
sa(dp8
g6
I31
sg7
I84
sa(dp9
g6
I370
sg7
I75
sa(dp10
g6
I372
sg7
I67
sasVvhints
p11
(lp12
(dp13
g6
I39
sg7
I62
sa(dp14
g6
I278
sg7
I76
sa(dp15
g6
I519
sg7
I61
sass."
EndChar

StartChar: ogonekcomb
Encoding: 234 808 234
GlifName: ogonekcomb
Width: 0
VWidth: 0
HStem: -293 85<-198 -159.5>
VStem: -317 75<-160.5 -128>
LayerCount: 2
Fore
SplineSet
-282 -250 m 257
 -249 -280 -225 -293 -180 -293 c 256
 -139 -293 -22 -260 -22 -213 c 256
 -22 -199 -37 -194 -55 -194 c 256
 -96 -194 -117 -208 -178 -208 c 256
 -218 -208 -242 -171 -242 -150 c 256
 -242 -47 -153 4 -153 41 c 256
 -153 68 -180 69 -183 69 c 256
 -197 69 -211 62 -221 51 c 257
 -229 41 -250 21 -261 5 c 256
 -297 -46 -317 -96 -317 -160 c 256
 -317 -201 -314 -223 -282 -250 c 257
EndSplineSet
PickledDataWithLists: "(dp0
Vcom.fontlab.hintData
p1
(dp2
Vhhints
p3
(lp4
(dp5
Vposition
p6
I-293
sVwidth
p7
I85
sasVvhints
p8
(lp9
(dp10
g6
I-317
sg7
I75
sass."
EndChar

StartChar: one
Encoding: 237 49 237
GlifName: one
Width: 274
VWidth: 0
Flags: W
HStem: -13 17 432 16
VStem: 158 69<95 145 78 148.5> 162 83<13.5 34> 168 62<285.5 356.5>
LayerCount: 2
Fore
SplineSet
51 230 m 256
 65 230 131 307 165 328 c 257
 167 320 168 309 168 296 c 256
 168 275 158 182 158 115 c 256
 158 75 162 52 162 16 c 256
 162 -2 178 -13 197 -13 c 256
 205 -13 237 -3 242 2 c 257
 245 4 245 8 245 19 c 256
 245 77 227 12 227 144 c 256
 227 146 230 317 230 323 c 256
 230 390 227 421 221 429 c 257
 211 440 203 448 184 448 c 256
 168 448 165 441 157 422 c 257
 152 411 139 400 115 376 c 257
 89 352 56 328 29 286 c 257
 26 280 24 278 24 272 c 256
 24 251 42 230 51 230 c 256
EndSplineSet
PickledDataWithLists: "(dp0
Vcom.fontlab.hintData
p1
(dp2
Vhhints
p3
(lp4
(dp5
Vposition
p6
I-13
sVwidth
p7
I17
sa(dp8
g6
I432
sg7
I16
sasVvhints
p9
(lp10
(dp11
g6
I158
sg7
I69
sa(dp12
g6
I162
sg7
I83
sa(dp13
g6
I168
sg7
I62
sass."
Substitution2: "'sups' Superscript lookup 19 subtable" uni00B9
EndChar

StartChar: ordfeminine
Encoding: 238 170 238
GlifName: ordfeminine
Width: 451
VWidth: 0
Flags: W
HStem: 45 70<315.5 348> 304 72<155 163.5> 461 67<214 234> 624 74<210.5 236.5 210.5 254>
VStem: 70 74<388.5 399 388.5 420> 322 61
LayerCount: 2
Fore
SplineSet
144 395 m 256
 144 403 146 410 152 426 c 257
 160 445 202 461 226 461 c 256
 242 461 272 455 280 442 c 257
 288 431 290 417 290 406 c 257
 285 408 275 410 270 410 c 256
 237 410 218 376 163 376 c 256
 147 376 144 382 144 395 c 256
90 334 m 257
 101 318 110 311 118 309 c 257
 126 306 138 304 149 304 c 256
 178 304 285 332 307 350 c 257
 309 349 312 350 314 350 c 256
 326 350 339 357 347 373 c 256
 357 394 368 410 371 426 c 256
 373 436 379 449 381 470 c 257
 383 484 382 507 382 533 c 256
 382 605 349 638 293 678 c 256
 275 691 251 698 222 698 c 256
 199 698 180 689 163 674 c 257
 147 661 139 655 134 653 c 256
 129 651 122 641 122 630 c 256
 122 612 149 598 163 598 c 256
 186 598 192 624 227 624 c 256
 281 624 322 576 322 525 c 256
 322 514 320 510 320 491 c 257
 315 497 299 511 286 517 c 257
 264 527 248 528 224 528 c 256
 198 528 176 523 154 515 c 257
 111 493 70 445 70 395 c 256
 70 371 74 356 90 334 c 257
72 8 m 256
 80 8 106 22 170 32 c 256
 207 38 298 45 333 45 c 256
 363 45 382 46 390 48 c 257
 404 51 424 77 424 91 c 256
 424 99 418 105 410 110 c 256
 402 115 375 115 330 115 c 256
 272 115 104 100 48 78 c 256
 40 75 37 69 37 59 c 256
 37 47 59 8 72 8 c 256
EndSplineSet
PickledDataWithLists: "(dp0
Vcom.fontlab.hintData
p1
(dp2
Vhhints
p3
(lp4
(dp5
Vposition
p6
I45
sVwidth
p7
I70
sa(dp8
g6
I304
sg7
I72
sa(dp9
g6
I461
sg7
I67
sa(dp10
g6
I624
sg7
I74
sasVvhints
p11
(lp12
(dp13
g6
I70
sg7
I74
sa(dp14
g6
I322
sg7
I61
sass."
Substitution2: "oneStoreyA subtable" uniE038
EndChar

StartChar: ordmasculine
Encoding: 239 186 239
GlifName: ordmasculine
Width: 414
VWidth: 0
Flags: W
HStem: 14 88<65 212> 34 70 368 66<176 188.5> 659 50<249 255.5 207 281>
VStem: 51 58<500.5 519 493 542> 307 50<551 563.5>
LayerCount: 2
Fore
SplineSet
130 461 m 257
 117 474 109 488 109 498 c 256
 109 540 125 575 136 594 c 257
 141 602 153 617 190 643 c 257
 212 656 242 659 256 659 c 256
 306 659 307 564 307 563 c 256
 307 539 290 493 274 469 c 256
 255 440 245 434 195 434 c 256
 157 434 154 434 130 461 c 257
64 458 m 257
 91 392 154 368 178 368 c 256
 199 368 241 376 267 389 c 256
 294 402 357 493 357 562 c 256
 357 607 351 637 341 653 c 257
 331 666 328 674 325 680 c 257
 323 685 318 690 307 698 c 257
 297 706 273 709 238 709 c 256
 176 709 149 693 109 653 c 256
 75 619 51 574 51 510 c 256
 51 491 56 474 64 458 c 257
85 14 m 256
 101 14 115 19 131 21 c 256
 185 27 312 32 341 34 c 256
 391 37 390 44 390 50 c 256
 390 61 381 93 371 99 c 257
 365 104 352 104 333 104 c 256
 290 104 251 102 173 102 c 256
 144 102 118 102 110 107 c 256
 105 110 100 112 90 112 c 256
 61 112 26 87 26 53 c 256
 26 27 45 14 85 14 c 256
EndSplineSet
PickledDataWithLists: "(dp0
Vcom.fontlab.hintData
p1
(dp2
Vhhints
p3
(lp4
(dp5
Vposition
p6
I14
sVwidth
p7
I88
sa(dp8
g6
I34
sg7
I70
sa(dp9
g6
I368
sg7
I66
sa(dp10
g6
I659
sg7
I50
sasVvhints
p11
(lp12
(dp13
g6
I51
sg7
I58
sa(dp14
g6
I307
sg7
I50
sass."
EndChar

StartChar: oslash
Encoding: 240 248 240
GlifName: oslash
Width: 465
VWidth: 0
Flags: W
HStem: -2 68<238 255.5 238 260> 358 68<224.5 277>
VStem: 36 63<216 244 216 261.5> 124 49 371 56<169 205.5>
AnchorPoint: "top" 238 558 basechar 0
AnchorPoint: "bottom" 256 33 basechar 0
LayerCount: 2
Fore
SplineSet
119 -14 m 257
 121 -36 122 -48 124 -54 c 256
 125 -58 128 -62 135 -67 c 257
 142 -69 152 -70 154 -71 c 257
 170 -71 170 -55 173 -41 c 256
 175 -35 180 -13 186 9 c 257
 212 -1 213 -2 223 -2 c 256
 297 -2 341 20 389 75 c 256
 410 98 427 131 427 183 c 256
 427 244 424 274 398 329 c 256
 384 359 373 376 352 396 c 257
 354 401 357 406 361 412 c 256
 378 439 391 459 412 478 c 256
 422 486 427 498 427 512 c 256
 427 534 405 537 405 537 c 257
 384 537 343 502 333 486 c 256
 324 473 312 454 298 423 c 257
 290 425 280 426 274 426 c 256
 273 426 206 424 186 410 c 257
 182 424 179 434 161 434 c 256
 152 434 135 427 124 423 c 257
 54 393 36 296 36 227 c 256
 36 110 83 75 130 40 c 257
 124 21 119 -1 119 -11 c 258
 119 -14 l 257
205 76 m 257
 209 90 212 102 213 104 c 257
 213 105 l 257
 231 160 252 202 274 240 c 256
 296 278 305 303 323 337 c 257
 338 323 347 302 350 293 c 256
 351 291 352 290 352 289 c 257
 370 260 371 225 371 186 c 256
 371 152 363 131 343 103 c 256
 321 74 272 66 239 66 c 256
 237 66 224 67 205 76 c 257
122 142 m 257
 105 172 99 202 99 230 c 256
 99 258 104 292 114 306 c 257
 152 330 202 358 247 358 c 256
 254 358 262 358 268 357 c 257
 234 281 232 319 154 109 c 257
 140 120 127 132 122 142 c 257
EndSplineSet
PickledDataWithLists: "(dp0
Vcom.fontlab.hintData
p1
(dp2
Vhhints
p3
(lp4
(dp5
Vposition
p6
I-2
sVwidth
p7
I68
sa(dp8
g6
I358
sg7
I68
sasVvhints
p9
(lp10
(dp11
g6
I36
sg7
I63
sa(dp12
g6
I124
sg7
I49
sa(dp13
g6
I371
sg7
I56
sass."
EndChar

StartChar: p
Encoding: 242 112 242
GlifName: p
Width: 467
VWidth: 0
Flags: W
HStem: -248 17 -5 66<255 294 255 303> 355 77<212 243 191.5 266> 443 16
VStem: 50 67<293 322 293 333.5> 61 75 67 70 387 62
AnchorPoint: "bottom" 104 -225 basechar 0
AnchorPoint: "top" 227 490 basechar 0
LayerCount: 2
Fore
SplineSet
67 -181 m 256
 67 -216 79 -248 106 -248 c 256
 120 -248 138 -227 138 -184 c 256
 138 -155 136 -72 136 37 c 256
 136 107 176 249 184 283 c 256
 197 336 205 355 219 355 c 256
 313 355 387 244 387 202 c 256
 387 154 321 61 267 61 c 256
 243 61 238 77 219 77 c 256
 197 77 190 73 190 54 c 256
 190 36 197 32 203 26 c 256
 219 10 238 -5 256 -5 c 256
 350 -5 450 109 450 202 c 256
 450 245 417 312 358 371 c 256
 321 408 272 432 214 432 c 256
 169 432 133 387 117 293 c 257
 117 351 112 384 102 421 c 257
 94 448 85 459 56 459 c 256
 37 459 30 445 30 427 c 256
 30 399 50 369 50 298 c 256
 50 163 67 37 67 -181 c 256
EndSplineSet
PickledDataWithLists: "(dp0
Vcom.fontlab.hintData
p1
(dp2
Vhhints
p3
(lp4
(dp5
Vposition
p6
I-248
sVwidth
p7
I17
sa(dp8
g6
I-5
sg7
I66
sa(dp9
g6
I355
sg7
I77
sa(dp10
g6
I443
sg7
I16
sasVvhints
p11
(lp12
(dp13
g6
I50
sg7
I67
sa(dp14
g6
I61
sg7
I75
sa(dp15
g6
I67
sg7
I70
sa(dp16
g6
I387
sg7
I62
sass."
EndChar

StartChar: paragraph
Encoding: 243 182 243
GlifName: paragraph
Width: 622
VWidth: 0
Flags: W
HStem: -22 31 296 74<334.5 336.5> 643 78 734 2
VStem: 37 75<498.5 524.5> 366 67 370 58 387 74<9 35 5 89> 494 59 496 67 510 75
LayerCount: 2
Fore
SplineSet
510 53 m 256
 510 27 537 -8 558 -8 c 256
 577 -8 586 28 586 54 c 256
 586 91 578 96 570 182 c 256
 565 236 562 410 560 435 c 256
 557 478 554 546 554 597 c 258
 552 725 l 258
 552 743 541 749 528 749 c 256
 521 749 515 750 511 750 c 256
 496 750 494 705 494 618 c 256
 494 509 496 502 496 414 c 256
 496 209 510 189 510 53 c 256
152 430 m 256
 126 457 112 485 112 512 c 256
 112 611 248 643 294 643 c 256
 320 643 340 640 366 638 c 257
 366 634 366 630 366 624 c 256
 366 594 370 552 370 490 c 256
 370 420 367 400 365 374 c 257
 359 371 352 370 341 370 c 256
 328 370 298 376 248 387 c 257
 200 400 168 414 152 430 c 256
117 357 m 257
 160 323 273 296 331 296 c 256
 342 296 353 296 366 299 c 257
 368 285 369 271 371 218 c 257
 371 135 387 160 387 18 c 256
 387 0 424 -22 440 -22 c 256
 450 -22 461 -8 461 18 c 256
 461 52 459 64 454 93 c 256
 452 104 448 112 446 123 c 257
 446 125 427 276 427 318 c 257
 432 320 446 337 446 355 c 256
 446 363 437 377 427 382 c 257
 427 453 l 258
 427 559 434 643 434 645 c 256
 434 667 420 736 397 736 c 256
 389 736 379 726 371 715 c 257
 360 720 357 722 320 722 c 256
 280 722 247 717 221 709 c 257
 199 701 173 683 154 675 c 257
 112 656 96 637 70 611 c 257
 48 585 37 542 37 507 c 256
 37 438 106 365 117 357 c 257
EndSplineSet
PickledDataWithLists: "(dp0
Vcom.fontlab.hintData
p1
(dp2
Vhhints
p3
(lp4
(dp5
Vposition
p6
I-22
sVwidth
p7
I31
sa(dp8
g6
I296
sg7
I74
sa(dp9
g6
I643
sg7
I78
sa(dp10
g6
I734
sg7
I2
sasVvhints
p11
(lp12
(dp13
g6
I37
sg7
I75
sa(dp14
g6
I366
sg7
I67
sa(dp15
g6
I370
sg7
I58
sa(dp16
g6
I387
sg7
I74
sa(dp17
g6
I494
sg7
I59
sa(dp18
g6
I496
sg7
I67
sa(dp19
g6
I510
sg7
I75
sass."
EndChar

StartChar: parenleft
Encoding: 244 40 244
GlifName: parenleft
Width: 316
VWidth: 0
Flags: W
HStem: -216 70<224.5 251.5> 598 62
VStem: 30 61<220.5 284>
LayerCount: 2
Fore
SplineSet
50 86 m 256
 64 -11 122 -216 246 -216 c 256
 257 -216 290 -192 290 -166 c 256
 290 -153 282 -144 272 -144 c 256
 262 -144 258 -146 248 -146 c 256
 201 -146 169 -80 154 -43 c 257
 118 28 91 182 91 259 c 256
 91 320 117 438 149 493 c 257
 167 528 218 586 256 598 c 256
 275 604 278 608 278 634 c 256
 278 656 270 661 259 661 c 256
 171 661 89 543 64 469 c 256
 38 389 30 325 30 243 c 256
 30 182 42 144 50 86 c 256
EndSplineSet
PickledDataWithLists: "(dp0
Vcom.fontlab.hintData
p1
(dp2
Vhhints
p3
(lp4
(dp5
Vposition
p6
I-216
sVwidth
p7
I70
sa(dp8
g6
I598
sg7
I62
sasVvhints
p9
(lp10
(dp11
g6
I30
sg7
I61
sass."
EndChar

StartChar: parenright
Encoding: 245 41 245
GlifName: parenright
Width: 329
VWidth: 0
Flags: W
HStem: -232 17
VStem: 237 60<227.5 243.5>
LayerCount: 2
Fore
SplineSet
40 -203 m 256
 40 -217 61 -232 72 -232 c 256
 96 -232 165 -142 179 -122 c 256
 248 -21 266 62 282 110 c 256
 296 153 297 227 297 228 c 256
 297 342 259 437 234 499 c 256
 221 533 209 547 139 624 c 256
 115 650 106 688 80 688 c 256
 59 688 38 666 38 656 c 256
 38 618 195 477 218 347 c 256
 228 291 237 281 237 206 c 256
 237 163 206 63 203 53 c 257
 192 21 153 -67 118 -109 c 257
 110 -117 85 -140 69 -158 c 256
 56 -172 40 -189 40 -203 c 256
EndSplineSet
PickledDataWithLists: "(dp0
Vcom.fontlab.hintData
p1
(dp2
Vhhints
p3
(lp4
(dp5
Vposition
p6
I-232
sVwidth
p7
I17
sasVvhints
p8
(lp9
(dp10
g6
I237
sg7
I60
sass."
EndChar

StartChar: percent
Encoding: 246 37 246
GlifName: percent
Width: 707
VWidth: 0
Flags: W
HStem: 14 72<519 544.5> 240 82<544.5 561 541 566> 390 74<116 127> 534 64<340 363> 632 85
VStem: 16 69<511 523> 186 70 222 67 427 69<123.5 162 123.5 177> 630 70
LayerCount: 2
Fore
SplineSet
50 422 m 257
 68 403 77 390 107 390 c 256
 147 390 185 408 219 442 c 256
 237 460 283 513 291 547 c 257
 307 536 333 534 347 534 c 256
 379 534 414 552 432 563 c 257
 421 531 416 528 392 477 c 257
 336 365 l 258
 317 327 281 254 246 187 c 257
 241 179 209 121 198 110 c 256
 190 102 186 88 186 69 c 256
 186 42 192 27 205 27 c 256
 226 27 254 53 256 72 c 256
 258 88 270 110 291 147 c 257
 306 177 448 463 450 466 c 257
 500 568 525 610 530 613 c 256
 535 616 539 628 539 638 c 256
 539 662 523 678 507 678 c 256
 501 678 498 676 493 670 c 256
 469 641 383 598 349 598 c 256
 320 598 296 610 290 632 c 256
 284 653 271 659 253 659 c 256
 227 659 222 643 222 611 c 256
 222 579 235 587 235 571 c 256
 235 557 226 538 205 512 c 257
 179 483 157 464 123 464 c 256
 109 464 85 492 85 530 c 256
 85 573 112 627 149 632 c 256
 192 637 232 648 232 674 c 256
 232 685 181 717 154 717 c 256
 148 717 136 715 123 709 c 257
 101 699 50 650 40 629 c 257
 24 591 16 548 16 498 c 256
 16 456 28 448 50 422 c 257
496 142 m 256
 496 182 501 194 512 213 c 257
 525 234 531 240 558 240 c 256
 574 240 591 237 605 229 c 257
 631 216 630 208 630 178 c 256
 630 130 576 86 531 86 c 256
 507 86 496 105 496 142 c 256
427 146 m 256
 427 77 455 14 522 14 c 256
 567 14 620 29 662 88 c 257
 689 130 701 165 701 184 c 256
 701 224 696 280 610 301 c 257
 594 306 576 322 546 322 c 256
 536 322 504 315 490 299 c 256
 436 238 427 208 427 146 c 256
EndSplineSet
PickledDataWithLists: "(dp0
Vcom.fontlab.hintData
p1
(dp2
Vhhints
p3
(lp4
(dp5
Vposition
p6
I14
sVwidth
p7
I72
sa(dp8
g6
I240
sg7
I82
sa(dp9
g6
I390
sg7
I74
sa(dp10
g6
I534
sg7
I64
sa(dp11
g6
I632
sg7
I85
sasVvhints
p12
(lp13
(dp14
g6
I16
sg7
I69
sa(dp15
g6
I186
sg7
I70
sa(dp16
g6
I222
sg7
I67
sa(dp17
g6
I427
sg7
I69
sa(dp18
g6
I630
sg7
I70
sass."
EndChar

StartChar: period
Encoding: 247 46 247
GlifName: period
Width: 188
VWidth: 0
Flags: W
HStem: -3 120<94 96.5 84.5 114>
VStem: 51 94
LayerCount: 2
Fore
SplineSet
67 21 m 256
 77 3 86 -3 102 -3 c 256
 126 -3 146 21 146 43 c 256
 146 53 141 59 136 67 c 257
 131 77 125 95 114 109 c 257
 111 112 103 117 90 117 c 256
 79 117 71 115 66 110 c 256
 58 102 51 84 51 66 c 256
 51 50 57 39 67 21 c 256
EndSplineSet
PickledDataWithLists: "(dp0
Vcom.fontlab.hintData
p1
(dp2
Vhhints
p3
(lp4
(dp5
Vposition
p6
I-3
sVwidth
p7
I120
sasVvhints
p8
(lp9
(dp10
g6
I51
sg7
I94
sass."
EndChar

StartChar: periodcentered
Encoding: 248 183 248
GlifName: periodcentered
Width: 153
VWidth: 0
Flags: W
HStem: 160 94<83 94 70 98.5>
VStem: 46 83
LayerCount: 2
Fore
SplineSet
34 194 m 256
 34 177 76 160 90 160 c 256
 107 160 130 192 130 216 c 256
 130 243 106 254 82 254 c 256
 58 254 46 245 46 224 c 256
 46 200 34 205 34 194 c 256
EndSplineSet
PickledDataWithLists: "(dp0
Vcom.fontlab.hintData
p1
(dp2
Vhhints
p3
(lp4
(dp5
Vposition
p6
I160
sVwidth
p7
I94
sasVvhints
p8
(lp9
(dp10
g6
I46
sg7
I83
sass."
EndChar

StartChar: plus
Encoding: 249 43 249
GlifName: plus
Width: 454
VWidth: 0
Flags: W
HStem: -11 17 153 73<98 170> 184 58<430 430>
VStem: 221 67 232 48
LayerCount: 2
Fore
SplineSet
51 155 m 257
 61 153 83 153 113 153 c 256
 143 153 180 153 221 155 c 257
 223 94 226 43 234 24 c 257
 245 0 257 -11 270 -11 c 256
 291 -11 302 12 302 30 c 256
 302 52 290 61 288 160 c 257
 322 166 393 170 430 184 c 257
 441 189 450 192 450 218 c 256
 450 232 448 242 430 242 c 256
 369 242 348 232 286 232 c 257
 286 270 288 309 288 349 c 256
 288 412 278 422 253 422 c 256
 240 422 234 421 232 418 c 257
 226 404 217 236 216 230 c 257
 198 227 183 226 157 226 c 256
 130 226 80 227 62 227 c 256
 33 227 16 218 16 197 c 256
 16 175 32 158 51 155 c 257
EndSplineSet
PickledDataWithLists: "(dp0
Vcom.fontlab.hintData
p1
(dp2
Vhhints
p3
(lp4
(dp5
Vposition
p6
I-11
sVwidth
p7
I17
sa(dp8
g6
I153
sg7
I73
sa(dp9
g6
I184
sg7
I58
sasVvhints
p10
(lp11
(dp12
g6
I221
sg7
I67
sa(dp13
g6
I232
sg7
I48
sass."
EndChar

StartChar: q
Encoding: 250 113 250
GlifName: q
Width: 456
VWidth: 0
Flags: W
HStem: -230 67<409 436 409 437.5> 6 75 363 69<198 252.5>
VStem: 45 64<170 238> 323 66<-88.5 -65> 331 74<309 315> 333 62<55 125>
AnchorPoint: "bottom" 392 -196 basechar 0
AnchorPoint: "top" 224 476 basechar 0
LayerCount: 2
Fore
SplineSet
109 197 m 256
 109 304 148 363 238 363 c 256
 267 363 291 355 312 336 c 257
 325 325 328 321 331 315 c 257
 331 265 323 226 298 181 c 257
 271 130 225 82 166 82 c 256
 128 82 109 143 109 197 c 256
45 186 m 256
 45 82 88 6 187 6 c 256
 245 6 311 85 333 125 c 257
 333 106 323 -53 323 -77 c 256
 323 -157 339 -230 419 -230 c 256
 456 -230 504 -195 504 -160 c 256
 504 -147 498 -128 480 -128 c 256
 454 -128 448 -163 424 -163 c 256
 394 -163 389 -118 389 -59 c 256
 389 -33 395 16 395 94 c 256
 395 129 405 308 405 310 c 256
 405 350 399 372 389 378 c 257
 384 380 369 385 347 395 c 257
 318 409 280 432 229 432 c 256
 167 432 133 415 93 378 c 256
 61 348 45 290 45 186 c 256
EndSplineSet
PickledDataWithLists: "(dp0
Vcom.fontlab.hintData
p1
(dp2
Vhhints
p3
(lp4
(dp5
Vposition
p6
I-230
sVwidth
p7
I67
sa(dp8
g6
I6
sg7
I75
sa(dp9
g6
I363
sg7
I69
sasVvhints
p10
(lp11
(dp12
g6
I45
sg7
I64
sa(dp13
g6
I323
sg7
I66
sa(dp14
g6
I331
sg7
I74
sa(dp15
g6
I333
sg7
I62
sass."
EndChar

StartChar: question
Encoding: 251 63 251
GlifName: question
Width: 379
VWidth: 0
Flags: W
HStem: -6 86 662 72<178 198>
VStem: 19 66 117 86 144 77 290 62<544 580.5>
LayerCount: 2
Fore
SplineSet
117 308 m 256
 117 294 127 264 130 250 c 256
 133 235 137 207 144 195 c 257
 152 173 161 162 187 162 c 256
 205 162 221 179 221 197 c 256
 221 231 202 227 202 293 c 257
 239 307 279 345 302 388 c 256
 329 438 352 523 352 565 c 256
 352 629 333 672 298 699 c 256
 263 726 241 734 179 734 c 256
 152 734 137 731 129 726 c 257
 67 697 19 669 19 592 c 256
 19 571 33 560 53 560 c 256
 73 560 83 568 85 586 c 257
 90 616 108 629 127 640 c 257
 150 655 169 662 187 662 c 256
 209 662 242 655 263 635 c 256
 285 613 290 605 290 556 c 256
 290 516 265 468 251 434 c 256
 231 385 175 348 150 340 c 256
 128 333 117 323 117 308 c 256
157 27 m 256
 157 10 189 -6 199 -6 c 256
 217 -6 270 21 270 38 c 256
 270 63 210 79 192 79 c 256
 178 79 169 71 169 61 c 256
 169 56 157 37 157 27 c 256
EndSplineSet
PickledDataWithLists: "(dp0
Vcom.fontlab.hintData
p1
(dp2
Vhhints
p3
(lp4
(dp5
Vposition
p6
I-6
sVwidth
p7
I86
sa(dp8
g6
I662
sg7
I72
sasVvhints
p9
(lp10
(dp11
g6
I19
sg7
I66
sa(dp12
g6
I117
sg7
I86
sa(dp13
g6
I144
sg7
I77
sa(dp14
g6
I290
sg7
I62
sass."
EndChar

StartChar: questiondown
Encoding: 252 191 252
GlifName: questiondown
Width: 403
VWidth: 0
Flags: W
HStem: -234 69<156 176> 349 93<215.5 223 193.5 230>
VStem: 38 70 162 66 165 91<389.5 415 389.5 415>
LayerCount: 2
Fore
SplineSet
165 402 m 256
 165 372 209 349 222 349 c 256
 238 349 256 379 256 400 c 256
 256 430 238 442 208 442 c 256
 179 442 165 428 165 402 c 256
61 -194 m 257
 85 -220 104 -234 160 -234 c 256
 192 -234 218 -232 234 -224 c 256
 266 -208 296 -195 306 -187 c 257
 351 -158 373 -135 373 -114 c 256
 373 -106 364 -99 346 -99 c 256
 296 -99 266 -165 176 -165 c 256
 136 -165 109 -149 109 -107 c 256
 109 -64 127 -27 170 21 c 257
 183 37 191 51 197 62 c 257
 210 89 227 128 227 210 c 256
 227 236 209 264 190 264 c 256
 171 264 162 225 162 206 c 256
 162 129 157 112 141 94 c 257
 138 91 133 83 125 70 c 257
 114 51 101 35 91 22 c 256
 57 -20 38 -45 38 -117 c 256
 38 -160 47 -178 61 -194 c 257
EndSplineSet
PickledDataWithLists: "(dp0
Vcom.fontlab.hintData
p1
(dp2
Vhhints
p3
(lp4
(dp5
Vposition
p6
I-234
sVwidth
p7
I69
sa(dp8
g6
I349
sg7
I93
sasVvhints
p9
(lp10
(dp11
g6
I38
sg7
I70
sa(dp12
g6
I162
sg7
I66
sa(dp13
g6
I165
sg7
I91
sass."
EndChar

StartChar: quotedbl
Encoding: 253 34 253
GlifName: quotedbl
Width: 331
VWidth: 0
Flags: W
HStem: 698 16 726 16
VStem: 58 66 190 66<613.5 671>
LayerCount: 2
Fore
SplineSet
190 640 m 256
 190 587 192 531 222 485 c 257
 232 471 246 462 259 462 c 256
 265 462 274 464 274 490 c 256
 274 564 256 522 256 658 c 256
 256 722 240 742 218 742 c 256
 207 742 198 741 196 736 c 257
 193 734 190 702 190 640 c 256
88 488 m 256
 99 462 112 461 118 461 c 256
 124 461 146 488 146 501 c 256
 146 525 130 574 125 608 c 257
 123 618 123 634 123 656 c 256
 123 709 115 714 94 714 c 256
 84 714 77 713 72 710 c 257
 66 705 58 691 58 654 c 256
 58 581 59 553 88 488 c 256
EndSplineSet
PickledDataWithLists: "(dp0
Vcom.fontlab.hintData
p1
(dp2
Vhhints
p3
(lp4
(dp5
Vposition
p6
I698
sVwidth
p7
I16
sa(dp8
g6
I726
sg7
I16
sasVvhints
p9
(lp10
(dp11
g6
I58
sg7
I66
sa(dp12
g6
I190
sg7
I66
sass."
EndChar

